<?xml version="1.0" encoding="UTF-8"?>
<svg xmlns="http://www.w3.org/2000/svg" xmlns:xlink="http://www.w3.org/1999/xlink" version="1.1" id="NIF_Infrastructure" x="0px" y="0px" viewBox="0 0 500 500" style="enable-background:new 0 0 500 500;" xml:space="preserve"> <style type="text/css"> .st0{fill:#0FA5AC;} .st1{fill:#15427F;} </style> <g> <path class="st0" d="M53.1,254.9l2.3-2.5c4,4.3,8.6,6.5,14.1,6.6h0.2c3.4,0,6.1-0.9,8.3-2.7c2.2-1.8,3.3-4.3,3.3-7.5 c0-2.3-0.7-4.3-2-6c-1.3-1.6-3.1-2.8-5.1-3.6c-2-0.7-4.2-1.6-6.6-2.5s-4.6-1.8-6.6-2.7c-2-0.9-3.7-2.3-5.1-4.1 c-1.3-1.9-2-4.2-2-6.9c0-3.4,1.3-6.4,3.9-8.7S64,211,68.5,211c2.7,0,5.4,0.7,8.2,1.9c2.8,1.3,5.1,3.4,6.9,6.1l-2.6,2.2 c-1.3-1.9-3-3.6-5.2-4.7c-2.2-1.2-4.5-1.8-7-1.8c-0.1,0-0.2,0-0.3,0c-3.3,0-5.9,0.7-8,2.3c-2,1.6-3.1,3.6-3.1,6.1 c0,1.9,0.5,3.4,1.5,4.7c1,1.3,2.3,2.3,3.9,3.1c1.6,0.7,3.4,1.5,5.3,2.2c1.9,0.7,3.9,1.3,5.8,2.1c1.9,0.7,3.7,1.6,5.3,2.7 c1.6,1,2.9,2.5,3.9,4.3c1,1.9,1.5,4,1.5,6.5c0,4.3-1.4,7.8-4.3,10.2c-2.9,2.5-6.5,3.7-10.8,3.7c-0.1,0-0.1,0-0.2,0 C63.1,262.6,57.7,260,53.1,254.9L53.1,254.9z M96,262.6h-4.2l19.1-51.4h4.3l19.1,51.4h-4l-5.2-13.5h-23.7L96,262.6z M113,216.6 l-10.5,28.7h21.2L113,216.6z M141.3,211.3h3.7V243c0,5.2,1.3,9.2,4.1,12c2.7,2.8,6.2,4.2,10.4,4.2c4.3,0,7.9-1.4,10.7-4.2 c2.8-2.8,4.2-6.8,4.2-12v-31.7h3.8V243c0,6.2-1.7,11.1-5.2,14.7c-3.5,3.7-7.9,5.5-13.2,5.5c-5.4,0-9.8-1.8-13.2-5.5 c-3.4-3.7-5.2-8.5-5.2-14.7L141.3,211.3z M200.8,211.3c7.9,0,14.3,2.5,19.4,7.4s7.6,11,7.6,18.2c0,7.3-2.5,13.5-7.4,18.4 c-4.9,4.9-11.4,7.4-19.5,7.4h-11.6v-51.4H200.8z M193.1,215.2v43.5h7.6c7,0,12.6-2.1,16.7-6.3s6.2-9.4,6.2-15.6 c0-5.9-2.2-11-6.4-15.2s-9.8-6.4-16.5-6.4L193.1,215.2L193.1,215.2z M242.2,262.6h-4v-51.4h4V262.6z"></path> <path class="st1" d="M300.9,250.3v12.3h-33.7V211h33.7v12h-22.1v7.5h20.9v11.5h-20.9v8.5L300.9,250.3z M382.3,211v51.7h-12.1V211 H382.3z M449.5,211v51.7h-12v-36.9l-12.2,36.9h-10.3l-11.8-36.9v36.9h-11.2V211h17.2l11.8,33.9l11.4-33.9H449.5z"></path> <path class="st0" d="M62.6,300.9c0,0.4-0.1,0.7-0.5,0.9c-0.3,0.2-0.7,0.4-1.2,0.4s-0.9-0.1-1.2-0.4s-0.5-0.5-0.5-0.9 c0-0.4,0.1-0.7,0.5-0.9c0.3-0.2,0.7-0.4,1.2-0.4s0.9,0.1,1.2,0.4C62.5,300.3,62.6,300.6,62.6,300.9z M62.5,285.4 c0.6-0.4,1.3-0.5,2.1-0.5c0.7,0,1.4,0.1,2.2,0.4l0.7-2.8c-1.3-0.4-2.5-0.6-3.5-0.6c-0.7,0-1.5,0.1-2.2,0.3c-0.7,0.2-1.2,0.5-1.7,1 c-0.4,0.4-0.9,1-1.1,1.7c-0.3,0.7-0.4,1.6-0.4,2.5v2.5c0,0.5,0.1,1,0.5,1.3c0.4,0.4,0.8,0.5,1.3,0.5h4v0.6c0,0.7-0.2,1.3-0.7,1.7 c-0.4,0.4-1,0.7-1.7,0.7H56c-0.7,0-1.3-0.2-1.7-0.7c-0.4-0.4-0.7-1-0.7-1.7v-3.4c0-0.1-0.1-0.3-0.1-0.4c-0.1-0.1-0.3-0.1-0.4-0.1 h-1.9c-0.1,0-0.3,0.1-0.4,0.1c-0.1,0.1-0.1,0.3-0.1,0.4v3.4c0,0.7,0.1,1.5,0.4,2.2c0.3,0.7,0.7,1.3,1.2,1.8s1.1,0.9,1.8,1.2 c0.7,0.3,1.4,0.4,2.2,0.4H62c0.7,0,1.5-0.1,2.2-0.4c0.7-0.3,1.3-0.7,1.8-1.2c0.5-0.5,0.9-1.1,1.2-1.8c0.3-0.7,0.4-1.4,0.4-2.2v-1.3 c0-0.7-0.2-1.3-0.7-1.7c-0.4-0.4-1-0.7-1.7-0.7h-3.4v-1.3C61.6,286.4,61.9,285.7,62.5,285.4L62.5,285.4z M58.1,300 c-0.3-0.2-0.7-0.4-1.2-0.4c-0.4,0-0.9,0.1-1.2,0.4s-0.5,0.5-0.5,0.9c0,0.4,0.1,0.7,0.5,0.9c0.3,0.2,0.7,0.4,1.2,0.4 c0.4,0,0.9-0.1,1.2-0.4s0.5-0.5,0.5-0.9C58.7,300.6,58.4,300.3,58.1,300z M78.6,283.7c-0.4-0.4-1-0.8-1.7-1 c-0.7-0.2-1.4-0.3-2.2-0.3c-1,0-2.2,0.2-3.5,0.6l0.7,2.8c0.7-0.2,1.4-0.4,2.2-0.4c0.8,0,1.5,0.1,2.1,0.5c0.6,0.4,0.9,1,0.9,1.9v2.8 h-6.5v3.1h9c0.1,0,0.3-0.1,0.4-0.1c0.1-0.1,0.1-0.3,0.1-0.4V288c0-1-0.1-1.8-0.4-2.5C79.5,284.7,79,284.2,78.6,283.7L78.6,283.7z M156.9,277c0.1,0.1,0.1,0.3,0.1,0.4v13.9c0,0.7-0.2,1.3-0.7,1.7c-0.4,0.4-1,0.7-1.7,0.7h-2.5h-21.6H95.6h-1.9 c0,0.9-0.1,1.7-0.4,2.4s-0.6,1.2-1,1.6c-0.4,0.4-0.9,0.7-1.4,1c-0.5,0.2-1.2,0.3-1.8,0.3c-0.7,0-1.5-0.1-2.2-0.3 c-0.8-0.2-1.6-0.5-2.4-1l0.9-2.3c0.4,0.1,1,0.4,1.5,0.5c0.5,0.1,1,0.2,1.6,0.2c0.6,0,1.1-0.1,1.6-0.5s0.7-1,0.7-1.9H87 c-0.9,0-1.6-0.3-2.2-0.9c-0.6-0.6-0.9-1.3-0.9-2.2V289c0-0.9,0.1-1.7,0.4-2.3c0.3-0.7,0.7-1.2,1.1-1.6c0.4-0.4,1-0.7,1.6-1 c0.6-0.2,1.3-0.3,2-0.3c0.7,0,1.6,0.1,2.4,0.4s1.6,0.7,2.3,1.1v5.5h1.9h3.8l-1.6-2.8c-0.1-0.2-0.1-0.4-0.2-0.7 c-0.1-0.2-0.1-0.5-0.1-0.7c0-0.4,0.1-0.7,0.1-1s0.2-0.7,0.4-0.9c0.2-0.2,0.4-0.4,0.7-0.6c0.3-0.1,0.7-0.2,1-0.2h6.8 c0.4,0,0.7,0.1,1,0.2c0.3,0.1,0.6,0.4,0.7,0.6c0.2,0.2,0.4,0.5,0.4,0.9s0.1,0.7,0.1,1c0,0.2,0,0.5-0.1,0.7 c-0.1,0.2-0.1,0.4-0.3,0.7l-1.6,2.8h23.3h3.1v-6.5c0-0.1,0.1-0.3,0.1-0.4c0.1-0.1,0.3-0.1,0.4-0.1h1.9c0.1,0,0.3,0.1,0.4,0.1 c0.1,0.1,0.1,0.3,0.1,0.4v6.5h3.1v-6.5c0-0.1,0.1-0.3,0.1-0.4c0.1-0.1,0.3-0.1,0.4-0.1h1.9c0.1,0,0.3,0.1,0.4,0.1 c0.1,0.1,0.1,0.3,0.1,0.4v6.5h3.1v-6.5c0-0.1,0.1-0.3,0.1-0.4c0.1-0.1,0.3-0.1,0.4-0.1h1.9c0.1,0,0.3,0.1,0.4,0.1 c0.1,0.1,0.1,0.3,0.1,0.4v6.5h3.1h1.9v-13.3c0-0.1,0.1-0.3,0.1-0.4c0.1-0.1,0.3-0.1,0.4-0.1h1.9C156.6,276.8,156.8,276.8,156.9,277 L156.9,277z M90.6,286.9c-0.5-0.1-1-0.3-1.6-0.3s-1,0.1-1.5,0.5c-0.4,0.4-0.6,0.9-0.6,1.6v1.9h3.7L90.6,286.9z M105.9,286.7h-5.3 l2.3,4h0.7L105.9,286.7z M163.3,276.8h-1.9c-0.1,0-0.3,0.1-0.4,0.1c-0.1,0.1-0.1,0.3-0.1,0.4v15.8c0,0.1,0.1,0.3,0.1,0.4 c0.1,0.1,0.3,0.1,0.4,0.1h1.9c0.1,0,0.3-0.1,0.4-0.1c0.1-0.1,0.1-0.3,0.1-0.4v-15.8c0-0.1-0.1-0.3-0.1-0.4 C163.6,276.8,163.4,276.8,163.3,276.8z M179.1,283.8c-0.4-0.4-1-0.8-1.7-1c-0.7-0.2-1.4-0.3-2.2-0.3c-1,0-2.2,0.2-3.5,0.6l0.7,2.8 c0.7-0.2,1.4-0.4,2.2-0.4c0.8,0,1.5,0.1,2.1,0.5c0.6,0.4,0.9,1,0.9,1.9v2.8h-6.5v3.1h9c0.1,0,0.3-0.1,0.4-0.1 c0.1-0.1,0.1-0.3,0.1-0.4v-5.2c0-1-0.1-1.8-0.4-2.5C180,284.8,179.6,284.3,179.1,283.8L179.1,283.8z M187.3,293.7 c0.1-0.1,0.1-0.3,0.1-0.4v-15.8c0-0.1-0.1-0.3-0.1-0.4c-0.1-0.1-0.3-0.1-0.4-0.1H185c-0.1,0-0.3,0.1-0.4,0.1 c-0.1,0.1-0.1,0.3-0.1,0.4v15.8c0,0.1,0.1,0.3,0.1,0.4c0.1,0.1,0.3,0.1,0.4,0.1h1.9C187,293.9,187.1,293.8,187.3,293.7z M203.7,296.1c-0.3-0.3-0.7-0.4-1.2-0.4s-0.9,0.1-1.2,0.4c-0.3,0.3-0.5,0.6-0.5,1c0,0.4,0.1,0.7,0.5,1c0.3,0.3,0.7,0.4,1.2,0.4 s0.9-0.1,1.2-0.4c0.3-0.3,0.5-0.6,0.5-1C204.2,296.7,204,296.4,203.7,296.1z M199.6,296.1c-0.3-0.3-0.7-0.4-1.2-0.4 s-0.9,0.1-1.2,0.4c-0.3,0.3-0.5,0.6-0.5,1c0,0.4,0.1,0.7,0.5,1c0.3,0.3,0.7,0.4,1.2,0.4s0.9-0.1,1.2-0.4c0.3-0.3,0.5-0.6,0.5-1 C200.2,296.7,199.9,296.4,199.6,296.1z M210.7,281.1c0.3,0.3,0.7,0.4,1.2,0.4s0.9-0.1,1.2-0.4c0.3-0.3,0.5-0.6,0.5-1 c0-0.4-0.1-0.7-0.5-1c-0.3-0.3-0.7-0.4-1.2-0.4s-0.9,0.1-1.2,0.4c-0.3,0.3-0.5,0.6-0.5,1C210.2,280.5,210.3,280.9,210.7,281.1z M206.7,281.1c0.3,0.3,0.7,0.4,1.2,0.4s0.9-0.1,1.2-0.4c0.3-0.3,0.5-0.6,0.5-1c0-0.4-0.1-0.7-0.5-1c-0.3-0.3-0.7-0.4-1.2-0.4 s-0.9,0.1-1.2,0.4c-0.3,0.3-0.5,0.6-0.5,1C206.1,280.5,206.3,280.9,206.7,281.1z M252.5,283.7h-1.9c-0.1,0-0.3,0.1-0.4,0.1 c-0.1,0.1-0.1,0.3-0.1,0.4v6.5H247v-6.5c0-0.1-0.1-0.3-0.1-0.4c-0.1-0.1-0.3-0.1-0.4-0.1h-1.9c-0.1,0-0.3,0.1-0.4,0.1 c-0.1,0.1-0.1,0.3-0.1,0.4v6.5h-3.1v-6.5c0-0.1-0.1-0.3-0.1-0.4c-0.1-0.1-0.3-0.1-0.4-0.1h-1.9c-0.1,0-0.3,0.1-0.4,0.1 c-0.1,0.1-0.1,0.3-0.1,0.4v6.5h-3.1h-22.4v-6.5c0-0.1-0.1-0.3-0.1-0.4c-0.1-0.1-0.3-0.1-0.4-0.1h-1.9c-0.1,0-0.3,0.1-0.4,0.1 c-0.1,0.1-0.1,0.3-0.1,0.4v6.5h-3.1h-3.1v-6.5c0-0.1-0.1-0.3-0.1-0.4c-0.1-0.1-0.3-0.1-0.4-0.1h-2c-0.1,0-0.3,0.1-0.4,0.1 c-0.1,0.1-0.1,0.3-0.1,0.4v6.5h-3.1h-1.9v-6.5c0-0.1-0.1-0.3-0.1-0.4c-0.1-0.1-0.3-0.1-0.4-0.1h-1.9c-0.1,0-0.3,0.1-0.4,0.1 c-0.1,0.1-0.1,0.3-0.1,0.4v9.6c0,1-0.2,1.6-0.6,1.9c-0.4,0.4-0.9,0.5-1.5,0.5c-0.5,0-1-0.1-1.6-0.3c-0.5-0.1-1-0.4-1.5-0.5 l-0.9,2.4c0.8,0.4,1.6,0.7,2.4,1c0.8,0.2,1.6,0.3,2.2,0.3c0.7,0,1.3-0.1,1.8-0.3c0.5-0.2,1-0.5,1.4-1c0.4-0.4,0.7-1,1-1.6 c0.2-0.7,0.4-1.5,0.4-2.4h1.9h9.3h28.6h16.1c0.7,0,1.3-0.2,1.7-0.7c0.4-0.4,0.7-1,0.7-1.7v-7.1c0-0.1-0.1-0.3-0.1-0.4 C252.8,283.7,252.7,283.7,252.5,283.7L252.5,283.7z M267.1,276.9h-1.9c-0.1,0-0.3,0.1-0.4,0.1c-0.1,0.1-0.1,0.3-0.1,0.4v14.8 c0,0.3-0.1,0.6-0.2,0.8s-0.4,0.4-0.6,0.5c-0.2,0.1-0.5,0.2-0.9,0.3c-0.3,0.1-0.7,0.1-1,0.1c-0.6,0-1.2-0.1-1.8-0.1 c-0.6-0.1-1-0.2-1.3-0.3l-0.8,2.7c0.7,0.3,1.3,0.4,2.2,0.6c0.7,0.1,1.5,0.2,2.2,0.2c0.7,0,1.4-0.1,2-0.2c0.7-0.1,1.2-0.4,1.7-0.8 c0.5-0.4,0.9-0.8,1.2-1.4c0.3-0.6,0.4-1.3,0.4-2.2v-14.8c0-0.1-0.1-0.3-0.1-0.4C267.4,276.9,267.2,276.9,267.1,276.9L267.1,276.9z M258.9,292c0.1,0.1,0.3,0.1,0.4,0.1h2.5l-1.6-13.2c-0.1-0.2-0.1-0.4-0.3-0.4c-0.1-0.1-0.3-0.1-0.4-0.1H257l1.6,13.2 C258.6,291.8,258.7,292,258.9,292z M273.9,276.9H272c-0.1,0-0.3,0.1-0.4,0.1c-0.1,0.1-0.1,0.3-0.1,0.4v15.8c0,0.1,0.1,0.3,0.1,0.4 c0.1,0.1,0.3,0.1,0.4,0.1h1.9c0.1,0,0.3-0.1,0.4-0.1c0.1-0.1,0.1-0.3,0.1-0.4v-15.8c0-0.1-0.1-0.3-0.1-0.4 C274.2,276.9,274,276.9,273.9,276.9z M289.2,284.1c0.8,0.2,1.6,0.7,2.3,1.1v8.7c0,0.9-0.1,1.7-0.4,2.4c-0.2,0.7-0.6,1.2-1,1.6 c-0.4,0.4-0.9,0.7-1.4,1c-0.5,0.2-1.2,0.3-1.8,0.3c-0.7,0-1.5-0.1-2.2-0.3c-0.8-0.2-1.6-0.5-2.4-1l0.9-2.3c0.4,0.1,1,0.4,1.5,0.5 s1,0.2,1.6,0.2c0.6,0,1.1-0.1,1.6-0.5c0.4-0.4,0.7-1,0.7-1.9h-3.7c-0.9,0-1.6-0.3-2.2-0.9c-0.6-0.6-0.9-1.3-0.9-2.2V289 c0-0.9,0.1-1.7,0.4-2.3c0.3-0.7,0.7-1.2,1.1-1.6c0.4-0.4,1-0.7,1.6-1s1.3-0.3,2-0.3C287.6,283.7,288.4,283.8,289.2,284.1 L289.2,284.1z M288.4,287.1c-0.5-0.1-1-0.3-1.6-0.3c-0.5,0-1,0.1-1.5,0.5s-0.6,0.9-0.6,1.6v1.9h3.7L288.4,287.1L288.4,287.1z M310.6,293.9c0.7,0,1.3-0.2,1.7-0.7c0.4-0.4,0.7-1,0.7-1.7v-7.1c0-0.1-0.1-0.3-0.1-0.4c-0.1-0.1-0.3-0.1-0.4-0.1h-1.9 c-0.1,0-0.3,0.1-0.4,0.1c-0.1,0.1-0.1,0.3-0.1,0.4v6.5h-3.1h-1.9v-6.5c0-0.1-0.1-0.3-0.1-0.4c-0.1-0.1-0.3-0.1-0.4-0.1h-1.9 c-0.1,0-0.3,0.1-0.4,0.1c-0.1,0.1-0.1,0.3-0.1,0.4v9.6c0,1-0.2,1.6-0.6,1.9c-0.4,0.4-0.9,0.5-1.5,0.5c-0.5,0-1-0.1-1.6-0.3 c-0.5-0.1-1-0.4-1.5-0.5l-0.9,2.4c0.8,0.4,1.6,0.7,2.4,1c0.8,0.2,1.6,0.3,2.2,0.3s1.3-0.1,1.8-0.3c0.5-0.2,1-0.5,1.4-1 c0.4-0.4,0.7-1,1-1.6c0.2-0.7,0.4-1.5,0.4-2.4h1.9L310.6,293.9z M313.2,296.1c-0.3-0.3-0.7-0.4-1.2-0.4c-0.4,0-0.9,0.1-1.2,0.4 c-0.3,0.3-0.5,0.6-0.5,1c0,0.4,0.1,0.7,0.5,1c0.3,0.3,0.7,0.4,1.2,0.4c0.4,0,0.9-0.1,1.2-0.4c0.3-0.3,0.5-0.6,0.5-1 C313.8,296.7,313.6,296.4,313.2,296.1z M309.2,296.1c-0.3-0.3-0.7-0.4-1.2-0.4c-0.4,0-0.9,0.1-1.2,0.4c-0.3,0.3-0.5,0.6-0.5,1 c0,0.4,0.1,0.7,0.5,1c0.3,0.3,0.7,0.4,1.2,0.4c0.4,0,0.9-0.1,1.2-0.4c0.3-0.3,0.5-0.6,0.5-1C309.7,296.7,309.6,296.4,309.2,296.1z M371.6,281.1c0.3,0.3,0.7,0.4,1.2,0.4c0.4,0,0.9-0.1,1.2-0.4c0.3-0.3,0.5-0.6,0.5-1c0-0.4-0.1-0.7-0.5-1c-0.3-0.3-0.7-0.4-1.2-0.4 c-0.4,0-0.9,0.1-1.2,0.4c-0.3,0.3-0.5,0.6-0.5,1C371,280.5,371.2,280.9,371.6,281.1z M367.5,281.1c0.3,0.3,0.7,0.4,1.2,0.4 c0.4,0,0.9-0.1,1.2-0.4c0.3-0.3,0.5-0.6,0.5-1c0-0.4-0.1-0.7-0.5-1c-0.3-0.3-0.7-0.4-1.2-0.4c-0.4,0-0.9,0.1-1.2,0.4 c-0.3,0.3-0.5,0.6-0.5,1C367,280.5,367.2,280.9,367.5,281.1z M380.9,277.1c0.1,0.1,0.1,0.3,0.1,0.4v13.9c0,0.7-0.2,1.3-0.7,1.7 c-0.4,0.4-1,0.7-1.7,0.7h-2.5h-9.3h-19.1h-31.5v-3.1h6.5v-2.8c0-0.9-0.3-1.6-0.9-1.9s-1.3-0.5-2.1-0.5c-0.7,0-1.4,0.1-2.2,0.4 l-0.7-2.8c1.3-0.4,2.5-0.6,3.5-0.6c0.7,0,1.5,0.1,2.2,0.3c0.7,0.2,1.3,0.5,1.7,1s0.9,1,1.1,1.7c0.3,0.7,0.4,1.6,0.4,2.5v2.8h21.9 h1.9v-6.5c0-0.1,0.1-0.3,0.1-0.4c0.1-0.1,0.3-0.1,0.4-0.1h1.9c0.1,0,0.3,0.1,0.4,0.1c0.1,0.1,0.1,0.3,0.1,0.4v3.1l3.2-2.8 c0.3-0.3,0.7-0.5,1-0.7c0.4-0.1,0.8-0.2,1.3-0.2h4.3c0.7,0,1.3,0.2,1.7,0.7c0.4,0.4,0.7,1,0.7,1.7v4.6h1.9h3.1v-6.5 c0-0.1,0.1-0.3,0.1-0.4c0.1-0.1,0.3-0.1,0.4-0.1h1.9c0.1,0,0.3,0.1,0.4,0.1c0.1,0.1,0.1,0.3,0.1,0.4v6.5h3.1h1.9v-13.3 c0-0.1,0.1-0.3,0.1-0.4c0.1-0.1,0.3-0.1,0.4-0.1h1.9C380.6,276.9,380.8,276.9,380.9,277.1L380.9,277.1z M361.9,286.8h-3.8l-5.5,4 h9.3L361.9,286.8z M387.3,276.9h-1.9c-0.1,0-0.3,0.1-0.4,0.1c-0.1,0.1-0.1,0.3-0.1,0.4v15.8c0,0.1,0.1,0.3,0.1,0.4 c0.1,0.1,0.3,0.1,0.4,0.1h1.9c0.1,0,0.3-0.1,0.4-0.1c0.1-0.1,0.1-0.3,0.1-0.4v-15.8c0-0.1-0.1-0.3-0.1-0.4 C387.6,276.9,387.4,276.9,387.3,276.9z M406.5,284.3c0-1.6-0.9-2.4-2.6-2.5l2.3-2.2l-1-1.6l-3.8,3.8l1,1.7c0.3-0.1,0.5-0.1,0.8-0.1 c0.3,0,0.6,0.1,1,0.2c0.4,0.1,0.5,0.4,0.5,0.8v0.4h-3.4v1.9h5.2L406.5,284.3z M436.3,281.1c0.3,0.3,0.7,0.4,1.2,0.4 c0.4,0,0.9-0.1,1.2-0.4c0.3-0.3,0.5-0.6,0.5-1c0-0.4-0.1-0.7-0.5-1c-0.3-0.3-0.7-0.4-1.2-0.4c-0.4,0-0.9,0.1-1.2,0.4 c-0.3,0.3-0.5,0.6-0.5,1C435.8,280.5,436,280.9,436.3,281.1z M446.9,296.1c-0.3-0.3-0.7-0.4-1.2-0.4s-0.9,0.1-1.2,0.4 c-0.3,0.3-0.5,0.6-0.5,1c0,0.4,0.1,0.7,0.5,1c0.3,0.3,0.7,0.4,1.2,0.4s0.9-0.1,1.2-0.4c0.3-0.3,0.5-0.6,0.5-1 C447.4,296.7,447.2,296.4,446.9,296.1z M448.6,283.9c-0.1-0.1-0.3-0.1-0.4-0.1h-1.9c-0.1,0-0.3,0.1-0.4,0.1 c-0.1,0.1-0.1,0.3-0.1,0.4v6.5h-3.1H439v-6.5c0-0.1-0.1-0.3-0.1-0.4c-0.1-0.1-0.3-0.1-0.4-0.1h-1.9c-0.1,0-0.3,0.1-0.4,0.1 c-0.1,0.1-0.1,0.3-0.1,0.4v6.5h-21.8h-1.9v-13.3c0-0.1-0.1-0.3-0.1-0.4c-0.1-0.1-0.3-0.1-0.4-0.1h-1.9c-0.1,0-0.3,0.1-0.4,0.1 c-0.1,0.1-0.1,0.3-0.1,0.4v13.3h-10.8v-5.5c0-0.1-0.1-0.3-0.1-0.4c-0.1-0.1-0.3-0.1-0.4-0.1h-1.9c-0.1,0-0.3,0.1-0.4,0.1 c-0.1,0.1-0.1,0.3-0.1,0.4v6.2c0,0.7,0.2,1.3,0.7,1.7c0.4,0.4,1,0.7,1.7,0.7h15.9h0.4h27.9v-0.1c0.1,0.1,0.3,0.1,0.4,0.1h3.7 c0.7,0,1.3-0.2,1.7-0.7c0.4-0.4,0.7-1,0.7-1.7v-7.1C448.7,284.2,448.7,284,448.6,283.9L448.6,283.9z"></path> <path class="st0" d="M333.9,237.7l-27.4,38.2H303l28-39l-28-39h3.5l27.4,38.2C334.2,236.5,334.2,237.1,333.9,237.7L333.9,237.7z"></path> <path class="st1" d="M343.9,236.8l18.5,25.9h-16.7l-10.1-14.1l-6.5,9.2l-4.9,6.9h-2.4l7.3-10.2l12-16.8c0.4-0.6,0.4-1.3,0-1.9 L329,219l-7.3-10.2h2.4l4.9,6.9l6.5,9.2l10.1-14.1h16.7L343.9,236.8z"></path> <path class="st0" d="M323.3,237.4l-2.5,3.5l-9,12.6h-2.2l11.2-15.8l0.7-1l-0.7-1l-11.3-15.9h2.2l9,12.7l2.5,3.5 C323.6,236.6,323.6,237,323.3,237.4L323.3,237.4z"></path> </g> </svg>
