<?xml version="1.0" encoding="UTF-8"?>
<svg xmlns="http://www.w3.org/2000/svg" xmlns:xlink="http://www.w3.org/1999/xlink" viewBox="0 0 1000 1000">
  <defs>
    <style>
      .cls-1 {
        fill: #945821;
      }

      .cls-1, .cls-2, .cls-3, .cls-4, .cls-5, .cls-6, .cls-7, .cls-8, .cls-9, .cls-10, .cls-11, .cls-12, .cls-13, .cls-14, .cls-15, .cls-16, .cls-17, .cls-18, .cls-19, .cls-20, .cls-21, .cls-22, .cls-23, .cls-24, .cls-25, .cls-26, .cls-27, .cls-28, .cls-29, .cls-30, .cls-31, .cls-32, .cls-33, .cls-34, .cls-35, .cls-36, .cls-37, .cls-38, .cls-39 {
        stroke-width: 0px;
      }

      .cls-40 {
        clip-path: url(#clippath-11);
      }

      .cls-2 {
        fill: #d38a27;
      }

      .cls-3 {
        fill: url(#linear-gradient);
      }

      .cls-4 {
        fill: #3e803d;
      }

      .cls-5 {
        fill: #06062c;
      }

      .cls-6 {
        fill: #b5dcbf;
      }

      .cls-7 {
        fill: #abdef5;
      }

      .cls-41 {
        clip-path: url(#clippath-2);
      }

      .cls-42 {
        clip-path: url(#clippath-13);
      }

      .cls-43 {
        isolation: isolate;
      }

      .cls-9 {
        fill: #fcc8ab;
      }

      .cls-44 {
        clip-path: url(#clippath-6);
      }

      .cls-10 {
        fill: #2a3885;
      }

      .cls-11 {
        fill: #e82128;
      }

      .cls-12 {
        fill: #2c2e6d;
      }

      .cls-13 {
        fill: url(#linear-gradient-5);
      }

      .cls-14 {
        fill: none;
      }

      .cls-15 {
        fill: #2f739d;
      }

      .cls-45 {
        clip-path: url(#clippath-7);
      }

      .cls-16 {
        fill: #4a8cc9;
      }

      .cls-17 {
        fill: #f7a527;
      }

      .cls-46 {
        clip-path: url(#clippath-1);
      }

      .cls-47 {
        clip-path: url(#clippath-4);
      }

      .cls-18 {
        fill: #981c20;
      }

      .cls-48 {
        clip-path: url(#clippath-12);
      }

      .cls-19 {
        fill: #c57028;
      }

      .cls-20 {
        fill: #ce8ebc;
      }

      .cls-21 {
        fill: url(#linear-gradient-2);
      }

      .cls-22 {
        fill: #d76828;
      }

      .cls-23 {
        fill: #d65527;
      }

      .cls-24 {
        fill: #0b6893;
      }

      .cls-25 {
        fill: #0470b7;
      }

      .cls-26 {
        fill: url(#linear-gradient-3);
      }

      .cls-49 {
        clip-path: url(#clippath-9);
      }

      .cls-50 {
        clip-path: url(#clippath);
      }

      .cls-27 {
        fill: #c02128;
      }

      .cls-28 {
        fill: #057345;
      }

      .cls-29 {
        fill: #dd8726;
      }

      .cls-30 {
        fill: #3e7da8;
      }

      .cls-51 {
        clip-path: url(#clippath-3);
      }

      .cls-31 {
        fill: #003e21;
      }

      .cls-32 {
        fill: #c98b27;
      }

      .cls-52 {
        clip-path: url(#clippath-8);
      }

      .cls-53 {
        clip-path: url(#clippath-14);
      }

      .cls-54 {
        clip-path: url(#clippath-5);
      }

      .cls-33 {
        fill: #56c2d6;
      }

      .cls-55 {
        clip-path: url(#clippath-10);
      }

      .cls-34 {
        fill: #831618;
      }

      .cls-35 {
        fill: #1b204a;
      }

      .cls-36 {
        fill: url(#linear-gradient-4);
      }

      .cls-56 {
        mix-blend-mode: multiply;
      }

      .cls-37 {
        fill: #f39124;
      }

      .cls-38 {
        fill: #ffe5ca;
      }

      .cls-39 {
        fill: #3c6530;
      }
    </style>
    <clipPath id="clippath">
      <path class="cls-14" d="M298.9,497.83c6.8,22.15,11.82,44.28,18.4,49.06,20.26,14.72,60.96,1.09,85.02,18.57,22.79,16.56,17.63,72.98,38.57,75.46,21.62,2.56,19.44-29.24,26.51-54.16,6.04-21.3,14.7-47.35,35.55-78.2-7.38-9.93-18.76-22.17-35.89-34.61-12.66-9.2-27.75-15.79-43.21-20.43-35.5-10.19-62.78-10.43-84.8-9.61-.52.04-1.04.09-1.52.14-.01-.02-.03-.04-.05-.07-23.55,1.18-49.74,10.74-57.04-4.1,3.3,10.07,11.54,35.39,18.48,57.97"/>
    </clipPath>
    <clipPath id="clippath-1">
      <path class="cls-14" d="M535.63,473.91c-12.66,9.2-23.59,21.51-32.78,34.78-20.65,30.61-29.32,56.48-35.34,77.68-.12.51-.24,1.02-.34,1.49-.03,0-.05.02-.08.03-6.16,22.76-5.16,50.63-21.53,52.98,10.59-.03,37.22-.04,60.85.34,23.16.38,45.76,2.44,52.34-2.34,20.25-14.72,19.87-57.64,43.93-75.12,11.03-8.01,28.91-6.92,45.44-5.82,17.62,1.17,33.69,2.34,38.25-7.54,9.11-19.77-21.8-27.53-43.32-41.95-18.39-12.33-40.49-28.62-63.39-57.98-11.72,3.95-26.88,10.99-44.01,23.44"/>
    </clipPath>
    <clipPath id="clippath-2">
      <path class="cls-14" d="M371.15,256.18c-18.96,13.31-38.46,24.93-40.97,32.65-7.74,23.82,17.8,58.31,8.61,86.6-8.71,26.8-63.96,39.32-59.85,60,4.25,21.36,33.82,9.45,59.71,8.48,22.13-.84,49.58-.65,85.36,9.64,7.16-10.08,15.28-24.69,21.83-44.83,4.84-14.89,6.44-31.27,6.08-47.41-1.28-36.91-9.48-62.93-17.06-83.63-.2-.48-.41-.97-.6-1.4.02-.02.03-.05.04-.07-8.39-22.03-25.59-43.99-13.72-55.52-8.55,6.25-30.09,21.91-49.42,35.49"/>
    </clipPath>
    <clipPath id="clippath-3">
      <path class="cls-14" d="M622.84,317.21c-17.41,13.68-39.72,29.66-74.73,42.37.14,12.36,2.15,28.96,8.69,49.09,4.84,14.89,13.17,29.08,22.95,41.93,22.73,29.1,44.66,45.34,62.96,57.62.44.27.89.54,1.31.79,0,.03,0,.05,0,.08,19.74,12.89,46.55,20.55,43.74,36.85,3.25-10.08,11.46-35.41,19.13-57.76,7.51-21.91,16.46-42.77,13.95-50.5-7.73-23.81-48.67-36.71-57.86-64.99-8.71-26.8,28.63-69.4,13.15-83.71-3.24-3-6.53-4.28-9.86-4.28-13.13,0-27.18,19.75-43.42,32.52"/>
    </clipPath>
    <clipPath id="clippath-4">
      <path class="cls-14" d="M424.33,217.92c-19,10.64,1.46,35.09,10.39,59.41,7.63,20.79,15.93,46.95,17.21,84.16,11.8,3.69,28.2,6.91,49.38,6.91,15.65,0,31.73-3.54,46.97-8.87,34.7-12.63,56.92-28.46,74.25-42.07.39-.34.79-.68,1.15-1,.03,0,.05,0,.08.02,18.36-14.79,33.92-37.92,48.56-30.21-8.58-6.2-30.14-21.84-49.02-36.04-18.52-13.92-35.59-28.87-43.71-28.87-25.04,0-49.96,34.95-79.7,34.95-25.48,0-51.62-39.81-69.99-39.81-1.94,0-3.8.45-5.56,1.43"/>
    </clipPath>
    <clipPath id="clippath-5">
      <rect class="cls-14" x="416.51" y="216.48" width="255.81" height="151.91"/>
    </clipPath>
    <clipPath id="clippath-6">
      <path class="cls-14" d="M424.33,217.92c-19,10.64,1.46,35.08,10.39,59.4,7.63,20.79,15.93,46.95,17.21,84.16,11.8,3.69,28.21,6.91,49.38,6.91,15.65,0,31.73-3.54,46.96-8.87,34.7-12.63,56.92-28.46,74.26-42.07.39-.34.79-.68,1.15-1,.03,0,.05.01.08.02,18.36-14.79,33.92-37.93,48.56-30.21-8.58-6.2-30.14-21.84-49.03-36.04-18.52-13.92-35.59-28.87-43.71-28.87-25.04,0-49.96,34.95-79.69,34.95-25.48,0-51.62-39.81-69.99-39.81-1.94,0-3.8.45-5.56,1.43"/>
    </clipPath>
    <linearGradient id="linear-gradient" x1="7492.07" y1="6996.84" x2="7493.37" y2="6996.84" gradientTransform="translate(-1381712.29 -1479929.63) rotate(90) scale(197.55 -197.55)" gradientUnits="userSpaceOnUse">
      <stop offset="0" stop-color="#2d313d"/>
      <stop offset=".09" stop-color="#2d313d"/>
      <stop offset=".13" stop-color="#313540"/>
      <stop offset=".18" stop-color="#3d414c"/>
      <stop offset=".23" stop-color="#52555f"/>
      <stop offset=".27" stop-color="#6f7179"/>
      <stop offset=".32" stop-color="#94969c"/>
      <stop offset=".37" stop-color="#c1c2c6"/>
      <stop offset=".41" stop-color="#f6f6f7"/>
      <stop offset=".42" stop-color="#fff"/>
      <stop offset="1" stop-color="#fff"/>
    </linearGradient>
    <clipPath id="clippath-7">
      <rect class="cls-14" x="278.73" y="220.69" width="173.24" height="232.85"/>
    </clipPath>
    <clipPath id="clippath-8">
      <path class="cls-14" d="M371.15,256.18c-18.96,13.31-38.46,24.93-40.97,32.65-7.74,23.81,17.8,58.31,8.61,86.6-8.39,25.82-59.98,38.38-60.06,57.76v.09c0,.7.07,1.42.22,2.14,4.25,21.36,33.82,9.45,59.71,8.48,22.13-.83,49.58-.65,85.36,9.64,7.16-10.08,15.28-24.69,21.83-44.83,4.36-13.42,6.09-28.06,6.13-42.64v-.89c0-1.29-.02-2.59-.05-3.88-1.28-36.91-9.48-62.93-17.06-83.63-.2-.48-.4-.97-.6-1.4.02-.02.03-.05.04-.07-8.4-22.03-25.58-43.99-13.73-55.52-8.55,6.25-30.09,21.91-49.43,35.49"/>
    </clipPath>
    <linearGradient id="linear-gradient-2" x1="7536.12" y1="7032.87" x2="7537.43" y2="7032.87" gradientTransform="translate(-1488555.28 1389707.21) scale(197.55 -197.55)" gradientUnits="userSpaceOnUse">
      <stop offset="0" stop-color="#4e1f18"/>
      <stop offset=".09" stop-color="#4e1f18"/>
      <stop offset=".13" stop-color="#51231c"/>
      <stop offset=".17" stop-color="#5a2f28"/>
      <stop offset=".22" stop-color="#6b433e"/>
      <stop offset=".26" stop-color="#81605b"/>
      <stop offset=".31" stop-color="#9f8581"/>
      <stop offset=".36" stop-color="#c2b2b0"/>
      <stop offset=".4" stop-color="#ece7e6"/>
      <stop offset=".42" stop-color="#fff"/>
      <stop offset="1" stop-color="#fff"/>
    </linearGradient>
    <clipPath id="clippath-9">
      <rect class="cls-14" x="280.43" y="439.86" width="222.52" height="201.2"/>
    </clipPath>
    <clipPath id="clippath-10">
      <path class="cls-14" d="M280.43,439.86c3.3,10.07,11.54,35.39,18.48,57.97,6.8,22.14,11.82,44.28,18.4,49.05,20.25,14.72,60.96,1.09,85.01,18.57,22.79,16.56,17.63,72.98,38.57,75.46,21.62,2.56,19.44-29.24,26.51-54.17,6.04-21.3,14.7-47.35,35.55-78.2h0c-7.38-9.93-18.76-22.17-35.89-34.61-12.66-9.2-27.75-15.79-43.21-20.43-35.5-10.19-62.78-10.43-84.8-9.61-.52.04-1.04.09-1.52.13-.02-.02-.04-.04-.05-.06-23.55,1.18-49.74,10.74-57.04-4.1Z"/>
    </clipPath>
    <linearGradient id="linear-gradient-3" x1="7583.9" y1="7002.03" x2="7585.2" y2="7002.03" gradientTransform="translate(1383667.38 1498881) rotate(-90) scale(197.55 -197.55)" gradientUnits="userSpaceOnUse">
      <stop offset="0" stop-color="#183b46"/>
      <stop offset=".09" stop-color="#183b46"/>
      <stop offset=".13" stop-color="#1c3e49"/>
      <stop offset=".17" stop-color="#294953"/>
      <stop offset=".22" stop-color="#3e5b64"/>
      <stop offset=".26" stop-color="#5c747c"/>
      <stop offset=".31" stop-color="#82959b"/>
      <stop offset=".36" stop-color="#b1bdc0"/>
      <stop offset=".4" stop-color="#e7ebec"/>
      <stop offset=".42" stop-color="#fff"/>
      <stop offset="1" stop-color="#fff"/>
    </linearGradient>
    <clipPath id="clippath-11">
      <rect class="cls-14" x="445.56" y="450.47" width="242.44" height="191.51"/>
    </clipPath>
    <clipPath id="clippath-12">
      <path class="cls-14" d="M535.63,473.91c-12.66,9.2-23.59,21.51-32.78,34.78-20.65,30.61-29.32,56.48-35.34,77.68-.12.51-.24,1.02-.34,1.49-.03,0-.05.02-.08.03-6.16,22.76-5.16,50.62-21.53,52.98,10.59-.03,37.22-.04,60.85.34,23.16.38,45.76,2.44,52.34-2.34,20.25-14.72,19.87-57.64,43.93-75.12,11.03-8.01,28.91-6.92,45.43-5.82,17.62,1.17,33.69,2.34,38.25-7.54,1.1-2.38,1.61-4.58,1.64-6.64v-.32c-.19-14.88-26.16-22.39-44.96-34.99-18.39-12.33-40.49-28.62-63.39-57.98-11.72,3.95-26.88,10.99-44.01,23.44"/>
    </clipPath>
    <linearGradient id="linear-gradient-4" x1="7569.37" y1="6946.97" x2="7570.67" y2="6946.97" gradientTransform="translate(1496041.02 -1371851.5) rotate(-180) scale(197.55 -197.55)" gradientUnits="userSpaceOnUse">
      <stop offset="0" stop-color="#413936"/>
      <stop offset=".09" stop-color="#413936"/>
      <stop offset=".13" stop-color="#453d3a"/>
      <stop offset=".18" stop-color="#504946"/>
      <stop offset=".23" stop-color="#645e5b"/>
      <stop offset=".28" stop-color="#807b79"/>
      <stop offset=".33" stop-color="#a4a09f"/>
      <stop offset=".37" stop-color="#cfcdcc"/>
      <stop offset=".42" stop-color="#fff"/>
      <stop offset="1" stop-color="#fff"/>
    </linearGradient>
    <clipPath id="clippath-13">
      <rect class="cls-14" x="548.11" y="284.7" width="173.16" height="261.25"/>
    </clipPath>
    <clipPath id="clippath-14">
      <path class="cls-14" d="M622.84,317.21c-17.41,13.68-39.72,29.66-74.73,42.37.14,12.37,2.15,28.96,8.69,49.1,4.84,14.89,13.17,29.08,22.95,41.93,22.73,29.1,44.66,45.33,62.96,57.62.44.27.89.54,1.31.79,0,.03,0,.05,0,.08,19.74,12.89,46.55,20.55,43.74,36.85,3.25-10.08,11.46-35.41,19.13-57.76,6.61-19.27,14.33-37.73,14.38-47.16v-.2c0-1.2-.14-2.26-.43-3.14-7.74-23.81-48.68-36.71-57.87-64.99-8.71-26.8,28.63-69.41,13.15-83.72-3.24-3-6.52-4.28-9.86-4.28-13.13,0-27.18,19.75-43.42,32.51"/>
    </clipPath>
    <linearGradient id="linear-gradient-5" x1="7512.61" y1="6943.81" x2="7513.92" y2="6943.81" gradientTransform="translate(1484910.76 -1371358.87) rotate(-180) scale(197.55 -197.55)" gradientUnits="userSpaceOnUse">
      <stop offset="0" stop-color="#2d3d36"/>
      <stop offset=".09" stop-color="#2d3d36"/>
      <stop offset=".13" stop-color="#31403a"/>
      <stop offset=".18" stop-color="#3d4c46"/>
      <stop offset=".23" stop-color="#525f5a"/>
      <stop offset=".27" stop-color="#707b76"/>
      <stop offset=".32" stop-color="#969e9a"/>
      <stop offset=".37" stop-color="#c4c9c7"/>
      <stop offset=".42" stop-color="#fafbfa"/>
      <stop offset=".42" stop-color="#fff"/>
      <stop offset="1" stop-color="#fff"/>
    </linearGradient>
  </defs>
  <g class="cls-43">
    <g id="Layer_2" data-name="Layer 2">
      <g>
        <path class="cls-7" d="M339.05,443.89c-.52.04-1.04.09-1.52.13-.02-.02-.04-.04-.05-.06-23.55,1.18-49.74,10.74-57.04-4.1,3.3,10.07,11.54,35.39,18.47,57.97,6.8,22.15,11.82,44.28,18.4,49.05,20.26,14.72,60.96,1.09,85.02,18.57,22.79,16.56,17.63,72.98,38.57,75.46,21.62,2.56,19.44-29.24,26.51-54.17,6.04-21.3,14.7-47.35,35.55-78.2-7.38-9.93-18.76-22.17-35.89-34.61-12.66-9.2-27.75-15.79-43.21-20.43-35.5-10.18-62.78-10.43-84.8-9.61"/>
        <g class="cls-50">
          <polygon class="cls-24" points="338.41 502.9 338.41 525.4 343.86 530.85 346.44 530.85 346.44 497.45 343.86 497.45 338.41 502.9"/>
          <rect class="cls-24" x="347.47" y="637.62" width="15.49" height="33.4"/>
          <polygon class="cls-24" points="338.41 537.94 338.41 560.44 343.86 565.9 346.44 565.9 346.44 532.49 343.86 532.49 338.41 537.94"/>
          <polygon class="cls-24" points="328.97 602.58 328.97 635.98 331.35 635.98 336.8 630.53 336.8 608.03 331.35 602.58 328.97 602.58"/>
          <polygon class="cls-24" points="338.41 432.82 338.41 455.32 343.86 460.77 346.44 460.77 346.44 427.37 343.86 427.37 338.41 432.82"/>
          <rect class="cls-24" x="347.47" y="532.49" width="15.49" height="33.4"/>
          <rect class="cls-24" x="347.47" y="602.58" width="15.49" height="33.4"/>
          <rect class="cls-24" x="347.47" y="497.45" width="15.49" height="33.4"/>
          <rect class="cls-24" x="347.47" y="567.53" width="15.49" height="33.4"/>
          <polygon class="cls-24" points="328.97 567.53 328.97 600.94 331.35 600.94 336.8 595.49 336.8 572.99 331.35 567.53 328.97 567.53"/>
          <polygon class="cls-24" points="338.41 572.98 338.41 595.49 343.86 600.94 346.44 600.94 346.44 567.53 343.86 567.53 338.41 572.98"/>
          <polygon class="cls-24" points="328.97 497.45 328.97 530.85 331.35 530.85 336.8 525.4 336.8 502.9 331.35 497.45 328.97 497.45"/>
          <rect class="cls-24" x="347.47" y="462.41" width="15.49" height="33.4"/>
          <polygon class="cls-24" points="328.97 462.41 328.97 495.81 331.35 495.81 336.8 490.36 336.8 467.86 331.35 462.41 328.97 462.41"/>
          <polygon class="cls-24" points="328.97 532.49 328.97 565.9 331.35 565.9 336.8 560.45 336.8 537.94 331.35 532.49 328.97 532.49"/>
          <polygon class="cls-24" points="328.97 427.37 328.97 460.77 331.35 460.77 336.8 455.32 336.8 432.82 331.35 427.37 328.97 427.37"/>
          <polygon class="cls-24" points="338.41 608.03 338.41 630.53 343.86 635.98 346.44 635.98 346.44 602.58 343.86 602.58 338.41 608.03"/>
          <polygon class="cls-24" points="338.41 643.07 338.41 665.57 343.86 671.02 346.44 671.02 346.44 637.62 343.86 637.62 338.41 643.07"/>
          <polygon class="cls-24" points="338.41 467.86 338.41 490.36 343.86 495.81 346.44 495.81 346.44 462.41 343.86 462.41 338.41 467.86"/>
          <polygon class="cls-24" points="373.42 467.86 373.42 490.36 378.87 495.81 381.45 495.81 381.45 462.41 378.87 462.41 373.42 467.86"/>
          <polygon class="cls-24" points="373.42 432.82 373.42 455.32 378.87 460.77 381.45 460.77 381.45 427.37 378.87 427.37 373.42 432.82"/>
          <polygon class="cls-24" points="373.42 537.94 373.42 560.44 378.87 565.9 381.45 565.9 381.45 532.49 378.87 532.49 373.42 537.94"/>
          <polygon class="cls-24" points="373.42 572.98 373.42 595.49 378.87 600.94 381.45 600.94 381.45 567.53 378.87 567.53 373.42 572.98"/>
          <rect class="cls-24" x="382.48" y="602.58" width="15.49" height="33.4"/>
          <rect class="cls-24" x="382.48" y="637.62" width="15.49" height="33.4"/>
          <rect class="cls-24" x="382.48" y="567.53" width="15.49" height="33.4"/>
          <polygon class="cls-24" points="373.42 608.03 373.42 630.53 378.87 635.98 381.45 635.98 381.45 602.58 378.87 602.58 373.42 608.03"/>
          <polygon class="cls-24" points="363.98 427.37 363.98 460.77 366.36 460.77 371.81 455.32 371.81 432.82 366.36 427.37 363.98 427.37"/>
          <polygon class="cls-24" points="363.98 567.53 363.98 600.94 366.36 600.94 371.81 595.49 371.81 572.99 366.36 567.53 363.98 567.53"/>
          <polygon class="cls-24" points="363.98 602.58 363.98 635.98 366.36 635.98 371.81 630.53 371.81 608.03 366.36 602.58 363.98 602.58"/>
          <polygon class="cls-24" points="363.98 637.62 363.98 671.02 366.36 671.02 371.81 665.57 371.81 643.07 366.36 637.62 363.98 637.62"/>
          <polygon class="cls-24" points="363.98 532.49 363.98 565.9 366.36 565.9 371.81 560.45 371.81 537.94 366.36 532.49 363.98 532.49"/>
          <polygon class="cls-24" points="373.42 643.07 373.42 665.57 378.87 671.02 381.45 671.02 381.45 637.62 378.87 637.62 373.42 643.07"/>
          <polygon class="cls-24" points="363.98 497.45 363.98 530.85 366.36 530.85 371.81 525.4 371.81 502.9 366.36 497.45 363.98 497.45"/>
          <rect class="cls-24" x="347.47" y="427.37" width="15.49" height="33.4"/>
          <polygon class="cls-24" points="363.98 462.41 363.98 495.81 366.36 495.81 371.81 490.36 371.81 467.86 366.36 462.41 363.98 462.41"/>
          <rect class="cls-24" x="382.48" y="532.49" width="15.49" height="33.4"/>
          <rect class="cls-24" x="277.45" y="497.45" width="15.49" height="33.4"/>
          <rect class="cls-24" x="277.45" y="532.49" width="15.49" height="33.4"/>
          <polygon class="cls-24" points="328.97 637.62 328.97 671.02 331.35 671.02 336.8 665.57 336.8 643.07 331.35 637.62 328.97 637.62"/>
          <rect class="cls-24" x="277.45" y="567.53" width="15.49" height="33.4"/>
          <rect class="cls-24" x="277.45" y="427.37" width="15.49" height="33.4"/>
          <polygon class="cls-24" points="293.96 602.58 293.96 635.98 296.34 635.98 301.79 630.53 301.79 608.03 296.34 602.58 293.96 602.58"/>
          <polygon class="cls-24" points="293.96 567.53 293.96 600.94 296.34 600.94 301.79 595.49 301.79 572.99 296.34 567.53 293.96 567.53"/>
          <polygon class="cls-24" points="293.96 637.62 293.96 671.02 296.34 671.02 301.79 665.57 301.79 643.07 296.34 637.62 293.96 637.62"/>
          <rect class="cls-24" x="277.45" y="602.58" width="15.49" height="33.4"/>
          <rect class="cls-24" x="277.45" y="637.62" width="15.49" height="33.4"/>
          <polygon class="cls-24" points="293.96 532.49 293.96 565.9 296.34 565.9 301.79 560.45 301.79 537.94 296.34 532.49 293.96 532.49"/>
          <rect class="cls-24" x="277.45" y="462.41" width="15.49" height="33.4"/>
          <rect class="cls-24" x="312.45" y="532.49" width="15.49" height="33.4"/>
          <rect class="cls-24" x="312.45" y="567.53" width="15.49" height="33.4"/>
          <rect class="cls-24" x="312.45" y="602.58" width="15.49" height="33.4"/>
          <rect class="cls-24" x="312.45" y="637.62" width="15.49" height="33.4"/>
          <rect class="cls-24" x="312.45" y="427.37" width="15.49" height="33.4"/>
          <polygon class="cls-24" points="303.39 432.82 303.39 455.32 308.85 460.77 311.43 460.77 311.43 427.37 308.85 427.37 303.39 432.82"/>
          <polygon class="cls-24" points="293.96 497.45 293.96 530.85 296.34 530.85 301.79 525.4 301.79 502.9 296.34 497.45 293.96 497.45"/>
          <rect class="cls-24" x="312.45" y="497.45" width="15.49" height="33.4"/>
          <rect class="cls-24" x="312.45" y="462.41" width="15.49" height="33.4"/>
          <polygon class="cls-24" points="293.96 427.37 293.96 460.77 296.34 460.77 301.79 455.32 301.79 432.82 296.34 427.37 293.96 427.37"/>
          <polygon class="cls-24" points="303.39 608.03 303.39 630.53 308.85 635.98 311.43 635.98 311.43 602.58 308.85 602.58 303.39 608.03"/>
          <polygon class="cls-24" points="303.39 643.07 303.39 665.57 308.85 671.02 311.43 671.02 311.43 637.62 308.85 637.62 303.39 643.07"/>
          <polygon class="cls-24" points="303.39 467.86 303.39 490.36 308.85 495.81 311.43 495.81 311.43 462.41 308.85 462.41 303.39 467.86"/>
          <polygon class="cls-24" points="293.96 462.41 293.96 495.81 296.34 495.81 301.79 490.36 301.79 467.86 296.34 462.41 293.96 462.41"/>
          <polygon class="cls-24" points="303.39 502.9 303.39 525.4 308.85 530.85 311.43 530.85 311.43 497.45 308.85 497.45 303.39 502.9"/>
          <polygon class="cls-24" points="303.39 572.98 303.39 595.49 308.85 600.94 311.43 600.94 311.43 567.53 308.85 567.53 303.39 572.98"/>
          <polygon class="cls-24" points="303.39 537.94 303.39 560.44 308.85 565.9 311.43 565.9 311.43 532.49 308.85 532.49 303.39 537.94"/>
          <polygon class="cls-24" points="373.42 502.9 373.42 525.4 378.87 530.85 381.45 530.85 381.45 497.45 378.87 497.45 373.42 502.9"/>
          <polygon class="cls-24" points="469.02 532.49 469.02 565.9 471.39 565.9 476.84 560.45 476.84 537.94 471.39 532.49 469.02 532.49"/>
          <polygon class="cls-24" points="469.02 497.45 469.02 530.85 471.39 530.85 476.84 525.4 476.84 502.9 471.39 497.45 469.02 497.45"/>
          <polygon class="cls-24" points="469.02 602.58 469.02 635.98 471.39 635.98 476.84 630.53 476.84 608.03 471.39 602.58 469.02 602.58"/>
          <polygon class="cls-24" points="469.02 462.41 469.02 495.81 471.39 495.81 476.84 490.36 476.84 467.86 471.39 462.41 469.02 462.41"/>
          <polygon class="cls-24" points="478.45 537.94 478.45 560.44 483.9 565.9 486.48 565.9 486.48 532.49 483.9 532.49 478.45 537.94"/>
          <polygon class="cls-24" points="478.45 572.98 478.45 595.49 483.9 600.94 486.48 600.94 486.48 567.53 483.9 567.53 478.45 572.98"/>
          <polygon class="cls-24" points="469.02 427.37 469.02 460.77 471.39 460.77 476.84 455.32 476.84 432.82 471.39 427.37 469.02 427.37"/>
          <polygon class="cls-24" points="478.45 608.03 478.45 630.53 483.9 635.98 486.48 635.98 486.48 602.58 483.9 602.58 478.45 608.03"/>
          <polygon class="cls-24" points="478.45 643.07 478.45 665.57 483.9 671.02 486.48 671.02 486.48 637.62 483.9 637.62 478.45 643.07"/>
          <polygon class="cls-24" points="469.02 567.53 469.02 600.94 471.39 600.94 476.84 595.49 476.84 572.99 471.39 567.53 469.02 567.53"/>
          <rect class="cls-24" x="452.5" y="532.49" width="15.49" height="33.4"/>
          <polygon class="cls-24" points="469.02 637.62 469.02 671.02 471.39 671.02 476.84 665.57 476.84 643.07 471.39 637.62 469.02 637.62"/>
          <rect class="cls-24" x="452.5" y="602.58" width="15.49" height="33.4"/>
          <rect class="cls-24" x="452.5" y="637.62" width="15.49" height="33.4"/>
          <rect class="cls-24" x="452.5" y="567.53" width="15.49" height="33.4"/>
          <rect class="cls-24" x="452.5" y="497.45" width="15.49" height="33.4"/>
          <polygon class="cls-24" points="443.44 432.82 443.44 455.32 448.89 460.77 451.47 460.77 451.47 427.37 448.89 427.37 443.44 432.82"/>
          <rect class="cls-24" x="452.5" y="462.41" width="15.49" height="33.4"/>
          <rect class="cls-24" x="452.5" y="427.37" width="15.49" height="33.4"/>
          <polygon class="cls-24" points="504.03 567.53 504.03 600.94 506.4 600.94 511.85 595.49 511.85 572.99 506.4 567.53 504.03 567.53"/>
          <polygon class="cls-24" points="504.03 602.58 504.03 635.98 506.4 635.98 511.85 630.53 511.85 608.03 506.4 602.58 504.03 602.58"/>
          <polygon class="cls-24" points="504.03 532.49 504.03 565.9 506.4 565.9 511.85 560.45 511.85 537.94 506.4 532.49 504.03 532.49"/>
          <rect class="cls-24" x="487.51" y="427.37" width="15.49" height="33.4"/>
          <polygon class="cls-24" points="504.03 637.62 504.03 671.02 506.4 671.02 511.85 665.57 511.85 643.07 506.4 637.62 504.03 637.62"/>
          <polygon class="cls-24" points="506.4 427.37 504.03 427.37 504.03 460.77 506.4 460.77 511.85 455.32 511.85 432.82 506.4 427.37"/>
          <polygon class="cls-24" points="504.03 497.45 504.03 530.85 506.4 530.85 511.85 525.4 511.85 502.9 506.4 497.45 504.03 497.45"/>
          <polygon class="cls-24" points="504.03 462.41 504.03 495.81 506.4 495.81 511.85 490.36 511.85 467.86 506.4 462.41 504.03 462.41"/>
          <rect class="cls-24" x="487.51" y="602.58" width="15.49" height="33.4"/>
          <polygon class="cls-24" points="478.45 502.9 478.45 525.4 483.9 530.85 486.48 530.85 486.48 497.45 483.9 497.45 478.45 502.9"/>
          <rect class="cls-24" x="487.51" y="462.41" width="15.49" height="33.4"/>
          <polygon class="cls-24" points="478.45 432.82 478.45 455.32 483.9 460.77 486.48 460.77 486.48 427.37 483.9 427.37 478.45 432.82"/>
          <polygon class="cls-24" points="478.45 467.86 478.45 490.36 483.9 495.81 486.48 495.81 486.48 462.41 483.9 462.41 478.45 467.86"/>
          <rect class="cls-24" x="487.51" y="637.62" width="15.49" height="33.4"/>
          <rect class="cls-24" x="487.51" y="567.53" width="15.49" height="33.4"/>
          <rect class="cls-24" x="487.51" y="497.45" width="15.49" height="33.4"/>
          <rect class="cls-24" x="487.51" y="532.49" width="15.49" height="33.4"/>
          <polygon class="cls-24" points="443.44 608.03 443.44 630.53 448.89 635.98 451.47 635.98 451.47 602.58 448.89 602.58 443.44 608.03"/>
          <polygon class="cls-24" points="408.43 608.03 408.43 630.53 413.88 635.98 416.46 635.98 416.46 602.58 413.88 602.58 408.43 608.03"/>
          <polygon class="cls-24" points="408.43 537.94 408.43 560.44 413.88 565.9 416.46 565.9 416.46 532.49 413.88 532.49 408.43 537.94"/>
          <rect class="cls-24" x="417.49" y="602.58" width="15.49" height="33.4"/>
          <polygon class="cls-24" points="408.43 643.07 408.43 665.57 413.88 671.02 416.46 671.02 416.46 637.62 413.88 637.62 408.43 643.07"/>
          <polygon class="cls-24" points="408.43 467.86 408.43 490.36 413.88 495.81 416.46 495.81 416.46 462.41 413.88 462.41 408.43 467.86"/>
          <polygon class="cls-24" points="408.43 432.82 408.43 455.32 413.88 460.77 416.46 460.77 416.46 427.37 413.88 427.37 408.43 432.82"/>
          <rect class="cls-24" x="417.49" y="637.62" width="15.49" height="33.4"/>
          <polygon class="cls-24" points="408.43 502.9 408.43 525.4 413.88 530.85 416.46 530.85 416.46 497.45 413.88 497.45 408.43 502.9"/>
          <polygon class="cls-24" points="398.99 427.37 398.99 460.77 401.37 460.77 406.82 455.32 406.82 432.82 401.37 427.37 398.99 427.37"/>
          <polygon class="cls-24" points="408.43 572.98 408.43 595.49 413.88 600.94 416.46 600.94 416.46 567.53 413.88 567.53 408.43 572.98"/>
          <polygon class="cls-24" points="398.99 637.62 398.99 671.02 401.37 671.02 406.82 665.57 406.82 643.07 401.37 637.62 398.99 637.62"/>
          <rect class="cls-24" x="382.48" y="427.37" width="15.49" height="33.4"/>
          <polygon class="cls-24" points="398.99 462.41 398.99 495.81 401.37 495.81 406.82 490.36 406.82 467.86 401.37 462.41 398.99 462.41"/>
          <polygon class="cls-24" points="398.99 602.58 398.99 635.98 401.37 635.98 406.82 630.53 406.82 608.03 401.37 602.58 398.99 602.58"/>
          <rect class="cls-24" x="382.48" y="462.41" width="15.49" height="33.4"/>
          <polygon class="cls-24" points="398.99 497.45 398.99 530.85 401.37 530.85 406.82 525.4 406.82 502.9 401.37 497.45 398.99 497.45"/>
          <polygon class="cls-24" points="398.99 567.53 398.99 600.94 401.37 600.94 406.82 595.49 406.82 572.99 401.37 567.53 398.99 567.53"/>
          <polygon class="cls-24" points="398.99 532.49 398.99 565.9 401.37 565.9 406.82 560.45 406.82 537.94 401.37 532.49 398.99 532.49"/>
          <rect class="cls-24" x="417.49" y="497.45" width="15.49" height="33.4"/>
          <polygon class="cls-24" points="443.44 643.07 443.44 665.57 448.89 671.02 451.47 671.02 451.47 637.62 448.89 637.62 443.44 643.07"/>
          <rect class="cls-24" x="417.49" y="567.53" width="15.49" height="33.4"/>
          <polygon class="cls-24" points="434 462.41 434 495.81 436.38 495.81 441.83 490.36 441.83 467.86 436.38 462.41 434 462.41"/>
          <rect class="cls-24" x="382.48" y="497.45" width="15.49" height="33.4"/>
          <polygon class="cls-24" points="443.44 537.94 443.44 560.44 448.89 565.9 451.47 565.9 451.47 532.49 448.89 532.49 443.44 537.94"/>
          <polygon class="cls-24" points="443.44 502.9 443.44 525.4 448.89 530.85 451.47 530.85 451.47 497.45 448.89 497.45 443.44 502.9"/>
          <polygon class="cls-24" points="434 497.45 434 530.85 436.38 530.85 441.83 525.4 441.83 502.9 436.38 497.45 434 497.45"/>
          <polygon class="cls-24" points="443.44 572.98 443.44 595.49 448.89 600.94 451.47 600.94 451.47 567.53 448.89 567.53 443.44 572.98"/>
          <polygon class="cls-24" points="434 427.37 434 460.77 436.38 460.77 441.83 455.32 441.83 432.82 436.38 427.37 434 427.37"/>
          <polygon class="cls-24" points="443.44 467.86 443.44 490.36 448.89 495.81 451.47 495.81 451.47 462.41 448.89 462.41 443.44 467.86"/>
          <rect class="cls-24" x="417.49" y="462.41" width="15.49" height="33.4"/>
          <rect class="cls-24" x="417.49" y="427.37" width="15.49" height="33.4"/>
          <rect class="cls-24" x="417.49" y="532.49" width="15.49" height="33.4"/>
          <polygon class="cls-24" points="434 532.49 434 565.9 436.38 565.9 441.83 560.45 441.83 537.94 436.38 532.49 434 532.49"/>
          <polygon class="cls-24" points="434 567.53 434 600.94 436.38 600.94 441.83 595.49 441.83 572.99 436.38 567.53 434 567.53"/>
          <polygon class="cls-24" points="434 637.62 434 671.02 436.38 671.02 441.83 665.57 441.83 643.07 436.38 637.62 434 637.62"/>
          <polygon class="cls-24" points="434 602.58 434 635.98 436.38 635.98 441.83 630.53 441.83 608.03 436.38 602.58 434 602.58"/>
        </g>
        <path class="cls-38" d="M467.5,586.37c-.12.51-.24,1.02-.34,1.49-.03,0-.05.02-.08.03-6.16,22.76-5.16,50.62-21.53,52.98,10.59-.02,37.22-.04,60.85.34,23.16.38,45.76,2.44,52.34-2.34,20.25-14.72,19.87-57.64,43.93-75.12,22.8-16.56,74.86,5.79,83.68-13.36,9.12-19.77-21.81-27.53-43.32-41.95-18.39-12.33-40.49-28.62-63.39-57.98-11.72,3.95-26.88,10.99-44.01,23.44-12.66,9.2-23.59,21.51-32.78,34.78-20.65,30.61-29.32,56.49-35.35,77.68"/>
        <g class="cls-46">
          <path class="cls-30" d="M523.56,613.74c.76-3.54,7.42-34.74,7.37-39-.05-5.17-6.45-13.6-7.25-14.34-.63-.58-1.61-.53-2.19.11-.57.64-.53,1.63.1,2.22,1.01.99,6.06,8.3,6.23,11.91,0,.05,0,.09,0,.14.04,2.95-4.33,24.46-7.28,38.23-.4,1.37-5.09,17.41-6.45,29.59,1.05,0,2.09,0,3.13,0,1.42-12.12,6.24-28.55,6.3-28.75l.03-.12Z"/>
          <path class="cls-5" d="M531.5,606.06c2.34-10.18,5.56-24.11,5.18-29.9-.47-7.44-1.4-15.61-6.52-18.32-4.21-2.22-13.15-1.95-17.95-1.81-.55.02-1.03.03-1.4.04-3.73.07-16.21,4.91-20.64,8.93-.73.67-1.72,1.51-2.87,2.49-5.54,4.73-13.91,11.89-16.89,18.27-1.44,3.09-3.35,5.84-5.2,8.15-.42,2.07-.8,4.08-1.17,6.06,2.76-2.88,6.6-7.37,9.17-12.87,2.7-5.76,11.08-12.93,16.09-17.22,1.16-.99,2.16-1.85,2.93-2.55,3.99-3.62,15.85-8.08,18.63-8.13.38,0,.87-.02,1.44-.04,3.87-.12,12.93-.4,16.42,1.45,4,2.11,4.58,11.31,4.86,15.73,0,.05,0,.11,0,.16.26,5.43-2.97,19.49-5.12,28.83-.6,2.61-1.12,4.86-1.49,6.61-1.34,6.28-3.14,20.12-4.19,30.66,1.05,0,2.09,0,3.11,0,1.04-10.38,2.8-23.86,4.1-30,.37-1.72.88-3.96,1.48-6.56"/>
          <path class="cls-29" d="M480.91,569.02c8.76-5.32,19-11.92,19.11-11.98.72-.47.94-1.44.48-2.17-.46-.73-1.42-.95-2.14-.49-.1.07-10.32,6.64-19.04,11.94-3.27,1.99-6.77,5.94-10.01,10.28-.8,2.91-1.51,5.77-2.17,8.58,4.15-6.33,9.32-13.45,13.78-16.16"/>
          <path class="cls-24" d="M497.7,553.47c8.5-1.45,23.22-1.68,23.37-1.68.1,0,13.58.2,15.34,7.61,2.14,8.96,3.45,24.5,2.47,29.17-1.07,5.08-8.69,31.63-8.76,31.89-.24.83.23,1.71,1.06,1.95.82.24,1.68-.24,1.92-1.07.31-1.1,7.72-26.93,8.82-32.12,1.16-5.51-.42-21.89-2.49-30.57-2.33-9.79-17.71-10-18.37-10.01-.64,0-15.13.24-23.87,1.72-6.71,1.14-17.7,7.57-23.05,10.89-.61,1.7-1.21,3.39-1.77,5.08.22-.25.41-.45.52-.57,1.73-1.13,16.94-10.95,24.8-12.29"/>
          <path class="cls-16" d="M547.67,585.1c-.04-1.51-.07-3.15-.1-4.87-.18-11.13-.41-24.97-5.61-30.42-5.8-6.06-14.41-9.02-24.25-8.33-9.48.67-23.8,3.91-27.89,5.08-2.06.59-7.15,3.09-12.15,5.78-.65,1.53-1.28,3.06-1.87,4.59,5.66-3.17,12.53-6.67,14.86-7.34,4.01-1.15,18.01-4.32,27.27-4.97,9.04-.64,16.58,1.92,21.81,7.38,4.35,4.55,4.58,18.27,4.74,28.28.03,1.73.05,3.39.1,4.91.24,8.13-3.25,21.34-10.36,39.27-2.37,5.97-4.09,11.98-5.22,18.16,1.08,0,2.13,0,3.16,0,1.08-5.78,2.71-11.41,4.93-16.99,7.28-18.34,10.84-31.98,10.59-40.54"/>
          <path class="cls-34" d="M549.77,610.74c1.1-7.22,2.24-14.68,3.6-19.12,2.94-9.54-.61-31.65-1.77-38.2-1.83-10.36-9.36-14.23-14.87-16.24-5.58-2.04-23-.16-29.23.53-5.01.55-17.43,3.74-26.25,6.63-.62,1.3-1.22,2.6-1.81,3.9,8.73-2.94,23.28-6.84,28.39-7.41,9.02-.99,23.62-2.24,27.85-.69,5.18,1.89,11.33,5.18,12.86,13.84,2.32,13.13,4.03,29.67,1.86,36.71-1.43,4.66-2.59,12.24-3.71,19.58-.92,6.06-1.79,11.79-2.7,14.97-.95,3.35-2.8,10.41-4.63,17.42,1.12,0,2.19,0,3.2,0,1.75-6.72,3.49-13.36,4.4-16.55.97-3.37,1.85-9.19,2.79-15.36"/>
          <path class="cls-19" d="M543.04,621.57c.23-.83-.25-1.7-1.08-1.94-.82-.23-1.68.26-1.91,1.09-.01.04-1.14,4.11-2.47,7.52-.71,1.81-2.43,8.71-3.74,14.4,1.1,0,2.16,0,3.19,0,1.2-5.25,2.72-11.42,3.44-13.24,1.39-3.57,2.53-7.66,2.57-7.83"/>
          <path class="cls-28" d="M558.59,600.36l.03-.21c.11-1.3,2.61-31.93.88-39.24-1.71-7.22-5.07-21.39-10.86-25.39-5.3-3.66-19.12-8.79-25.16-9.06-3.81-.17-12.26,1.47-18.44,2.41-2.88.44-5.37.81-6.19.86-1.2.06-5.68.57-10.76,1.2-.62,1.13-1.22,2.25-1.82,3.39,5.9-.74,11.48-1.39,12.73-1.45.97-.05,3.29-.4,6.49-.89,5.71-.86,14.33-2.54,17.84-2.38,5,.23,18.35,4.93,23.56,8.52,4.8,3.32,8.1,17.21,9.59,23.53,1.29,5.44-.05,27.27-.94,38.14-.37,1.71-5.26,24.25-6.23,28.74-.51,2.35-2.03,8.2-3.68,14.13,1.2,0,2.28,0,3.22,0,1.61-5.85,3.04-11.41,3.49-13.46,1.01-4.67,6.26-28.84,6.26-28.84"/>
          <path class="cls-24" d="M500.42,537.27c3.46-.79,11.94-1.69,16.5-2.17l1.77-.19c3.37-.37,9.75.13,9.81.13.85.07,1.6-.58,1.66-1.44.06-.87-.57-1.62-1.43-1.69-.27-.02-6.73-.52-10.38-.12l-1.76.19c-4.62.49-13.23,1.4-16.87,2.23-2.27.52-8.88,1.58-14.73,2.52-.59,1.15-1.16,2.31-1.74,3.46.72-.12,1.44-.23,2.17-.35,6.19-1,12.6-2.02,14.97-2.56"/>
          <path class="cls-24" d="M538.49,527.4c.84.18,1.66-.36,1.84-1.21.18-.85-.35-1.68-1.19-1.87-1.97-.42-19.58-3.05-23.43-2.53-2.52.34-10.35,1.2-23.21,1.43-.63,1.06-1.27,2.11-1.88,3.17,10.28-.17,22.02-1.01,25.5-1.49,2.5-.34,15.13.92,22.38,2.49"/>
          <path class="cls-11" d="M514.56,519.81c6.84-.13,21.45,1.85,26.02,3.87,4.53,2.01,9.89,9.47,13.53,14.9,3.84,5.74,7.18,17.91,7.6,20.39.3,1.8.18,14.23.03,22.15-.02.86.66,1.59,1.52,1.6.86.02,1.56-.67,1.58-1.54.04-2.05.37-20.07-.07-22.74-.5-2.97-3.99-15.51-8.09-21.62-4.18-6.24-9.65-13.71-14.85-16.01-5.01-2.22-20.11-4.28-27.32-4.14-2.41.05-6.93.07-11.72.09-2.08,0-4.22.02-6.31.03-.67,1.05-1.34,2.1-1.99,3.15,2.76-.02,5.64-.03,8.31-.04,4.8-.02,9.33-.04,11.76-.09"/>
          <path class="cls-11" d="M576.13,614.69c.29-1.17,7.13-28.8,7.42-42.51.27-12.92-7.55-30.3-15.27-39.63-7.68-9.3-18.25-20.79-24.97-22.79-6.16-1.82-26.67-6.91-37.07-6.99-.58.76-1.16,1.52-1.73,2.29-.21.29-.41.59-.63.88.48,0,.94-.02,1.36-.03,9.63-.28,30.93,5.01,37.19,6.87,4.59,1.36,13.15,9.3,23.47,21.79,7.19,8.69,14.79,25.52,14.54,37.54-.28,13.36-7.03,40.65-7.32,41.81l-.09.36c-.85,3.44-2.36,9.5-3.66,16.24,1.97-3.12,3.77-6.63,5.39-10.25.49-2.07.94-3.86,1.28-5.22l.09-.36Z"/>
          <path class="cls-5" d="M587.03,557.36c-3.24-11.05-11.63-24.14-12.58-25.6-2.71-4.17-13.72-17.86-22.45-23.98-7.93-5.55-25.1-9.3-36.46-11.78l-2.3-.5c-.35-.08-.7-.13-1.06-.2-.77.92-1.53,1.85-2.29,2.79.89.13,1.78.29,2.68.49l2.31.5c10.45,2.28,27.93,6.1,35.35,11.3,7.99,5.6,18.77,18.74,21.62,23.12,3.34,5.14,9.67,16.14,12.2,24.77,2.68,9.13,1.89,23.4,1.47,31.06-.03.51-.08,1.13-.14,1.81,1.02-2.68,2.18-5.47,3.56-8.27.29-7.93.24-18.15-1.91-25.5"/>
          <path class="cls-32" d="M571.19,495.92c-9.2-6.56-20.75-14.44-28.5-17.25-2.71-.98-6.87-2.33-11.16-3.68-.91.81-1.79,1.63-2.67,2.45,4.85,1.51,9.75,3.08,12.79,4.18,7.4,2.68,18.72,10.42,27.76,16.86,7.93,5.65,21.25,23.86,24.18,30.82,2.88,6.81,6.93,32.8,6.44,36.72-.04.31-.05.7-.06,1.07,1-.97,2.05-1.89,3.17-2.76-.32-7.7-3.87-29.59-6.69-36.27-3.14-7.43-16.8-26.13-25.25-32.16"/>
          <path class="cls-11" d="M581.56,503.78c.6.62,1.58.63,2.19.02.61-.61.62-1.6.02-2.22-.28-.29-7.06-7.27-14.8-12.68-6.83-4.77-24.33-15.11-32.32-18.29-.32.26-.65.51-.97.78-.61.51-1.19,1.04-1.79,1.55,5.97,1.77,25.4,13,33.32,18.54,7.49,5.23,14.27,12.22,14.34,12.29"/>
          <path class="cls-15" d="M586.28,497.13c-6.83-9.67-23.95-22.2-33.16-27.16-2.6-1.4-6.07-2.96-9.77-4.51-.98.71-1.96,1.44-2.94,2.18,4.27,1.76,8.34,3.54,11.25,5.11,9.15,4.92,25.79,17.28,32.1,26.22,6.28,8.89,16.38,34.81,18.38,42.2.8,2.95,2.75,11.28,4.35,20.82.92-.57,1.88-1.09,2.87-1.59-1.59-9.25-3.45-17.18-4.23-20.06-2.1-7.76-12.27-33.88-18.85-43.2"/>
          <path class="cls-19" d="M602.52,520.51c-2.03-4.54-3.95-8.83-4.94-11.59l-.42-1.19c-2.5-7.09-6.69-18.95-15.9-25.03-9.18-6.07-21.3-14.36-21.42-14.44-.71-.49-1.67-.3-2.15.43-.19.29-.28.63-.26.95.02.48.26.94.68,1.23.12.08,12.26,8.39,21.46,14.47,8.33,5.51,12.3,16.74,14.68,23.46l.42,1.2c1.03,2.88,2.97,7.22,5.03,11.82,2.73,6.11,5.83,13.03,7.04,17.18,1.24,4.25,3.36,14.83,4.84,22.62.95-.41,1.93-.79,2.94-1.13-1.46-7.72-3.56-18.1-4.81-22.39-1.27-4.36-4.28-11.08-7.19-17.59"/>
          <path class="cls-5" d="M606.29,501.98c-1.21-1.15-3.17-3.76-5.44-6.79-3.77-5.02-8.45-11.28-13.25-15.69-8.3-7.64-22.07-15.06-31.33-16.89-1.73-.34-3.81-.98-6.04-1.78-1.1.69-2.19,1.4-3.27,2.13,3.2,1.23,6.26,2.25,8.72,2.73,8.64,1.71,22.03,8.96,29.85,16.14,4.59,4.21,9.18,10.34,12.86,15.26,2.45,3.27,4.38,5.85,5.79,7.18,3.22,3.05,16.14,25.19,18.04,37.5.7,4.5.97,11.43,1.03,16.75,1.01-.08,2.04-.13,3.1-.15-.06-5.42-.35-12.45-1.06-17.09-2.03-13.16-15.49-36-18.99-39.31"/>
          <path class="cls-22" d="M612.46,497.4c-.73-1.31-1.41-2.56-2.05-3.72-5.13-9.42-12.34-17.65-23.37-26.69-8.84-7.25-15.86-11.9-21.71-14.39-1.3.61-2.59,1.24-3.87,1.89,6.01,1.93,13.55,6.69,23.63,14.95,10.71,8.77,17.68,16.72,22.61,25.76.64,1.17,1.33,2.42,2.06,3.74,5.49,9.92,13,23.51,16.45,37.12,1.69,6.69,2.64,15.71,3.07,22.25,1.02.02,2.06.05,3.11.09-.44-6.78-1.41-16.12-3.18-23.12-3.55-14.01-11.18-27.8-16.74-37.88"/>
          <path class="cls-11" d="M583.36,472.62c2.72,2.43,16.04,17.56,17.86,20.47.46.73,1.41.95,2.14.49.72-.46.94-1.43.48-2.17-1.96-3.13-15.54-18.56-18.43-21.14-3.03-2.71-17.69-9.64-24.92-11.41-1.22-.3-2.73-.83-4.37-1.51-1.13.64-2.26,1.29-3.38,1.96,2.65,1.19,5.11,2.14,7.02,2.61,7.04,1.72,21.15,8.53,23.59,10.71"/>
          <path class="cls-25" d="M614.71,486.83c-.82-.73-1.64-1.44-2.45-2.19-7.89-7.35-15.55-14.85-22.69-23.55-5.48-3.86-11.56-7.37-18.22-10.53-.25-.12-.52-.25-.77-.38-1.23.54-2.45,1.1-3.65,1.67,1.06.55,2.11,1.08,3.11,1.55,17.89,8.47,30.94,19.06,39.89,32.37,11.9,17.69,17.53,31.45,21.51,52.55,1.33,7.06,2.02,14.4,2.43,19.79,1.02.05,2.07.1,3.12.15-.42-5.59-1.12-13.14-2.51-20.53-3.76-19.95-9.23-34.54-19.77-50.91"/>
          <path class="cls-27" d="M585.8,456.39c-1.6-2.05-3.16-4.15-4.69-6.27-1.52-.87-2.97-1.7-4.36-2.5-1.24.48-2.47.97-3.68,1.48,3.45,2.02,7.43,4.28,11.74,6.73.33.19.67.38,1,.57"/>
          <path class="cls-11" d="M625.23,495.26c-2.01-1.53-4.02-3.13-6.02-4.79.3.55.95,2.19,1.25,2.74,7.68,13.88,12.32,30.85,13.96,37.5,1.41,5.75,3.66,18.24,5.46,27.65,1.06.07,2.12.13,3.19.19-1.84-9.62-4.18-22.63-5.65-28.61-1.49-6.05-5.79-21.56-12.2-34.69"/>
          <path class="cls-37" d="M635.92,502.8c-1.47-.98-2.95-1.99-4.43-3.03,2.17,5.47,3.97,12.14,4.97,17.94,2.35,13.54,5.26,29.89,7.59,40.9,1.07.06,2.14.13,3.21.19-2.36-11.03-5.34-27.77-7.75-41.64-.75-4.32-1.95-9.7-3.59-14.36"/>
          <path class="cls-10" d="M643.05,507.5c-1.27-.78-2.55-1.58-3.84-2.41,2.46,8.11,7.31,36.59,8.98,47.76.2,1.33.58,4.29.86,5.99,1.06.06,2.11.12,3.16.17-.3-1.87-.71-5.02-.96-6.63-1.31-8.76-5.47-33.58-8.21-44.88"/>
          <path class="cls-2" d="M659.3,526.2c-.1-1.41-.55-5.11-1.09-9.18-1.11-.6-2.23-1.22-3.37-1.85.64,4.6,1.22,9.24,1.37,11.26.15,2.05,1.53,11.88,3.13,23.25.38,2.7,1.05,7.54,1.43,10.28,1.06.01,2.1,0,3.13-.01-.4-2.88-1.09-7.87-1.49-10.72-1.53-10.85-2.97-21.09-3.11-23.04"/>
          <path class="cls-35" d="M667.1,542.47c.74-6.14.41-13.8-.76-21.1-1.14-.61-2.29-1.22-3.48-1.85,1.45,7.69,1.95,16.02,1.16,22.57-.52,4.36-.1,12.21.48,17.64,1.06-.02,2.09-.07,3.11-.12-.57-5.31-1.01-13.02-.52-17.14"/>
          <path class="cls-4" d="M673.79,525.35c-.98-.53-1.99-1.08-3.03-1.63-.01.35,0,.71-.04,1.06-.59,7.45-1.17,23.72-.62,34.73,1.05-.09,2.08-.2,3.08-.34-.46-9.45-.16-23.98.61-33.81"/>
          <path class="cls-23" d="M682.03,530.18c-.07-.05-.13-.1-.2-.15-.5-.34-1.02-.67-1.56-1.01-.4-.24-.85-.49-1.26-.74,1.2,7.58,2.07,18.5,2.53,28.19,1.1-.46,2.11-1,3.03-1.61-.41-8.17-1.16-17.57-2.09-24.37-.15-.1-.28-.21-.43-.31"/>
          <path class="cls-5" d="M688.6,544.21c-.22-2.77-.45-5.55-.71-8.28-.58-.95-1.3-1.9-2.23-2.82h0c-.35-.34-.73-.68-1.13-1.02,0,0,0,0,0,0-.06-.05-.12-.09-.17-.14.47,3.97.82,8.27,1.16,12.51.2,2.55.41,5.15.65,7.67,1.19-1.12,2.12-2.44,2.76-3.98-.11-1.31-.22-2.63-.32-3.93"/>
          <path class="cls-11" d="M516.69,571.9c-4.05-4.65-7.85-2.61-11.21-.8-.26.14-.53.29-.8.43-3.19,1.68-12.67,11.26-21.52,20.4l-1.21,1.25c-3.59,3.7-6.43,9.26-7.59,14.88-.53,2.55-1.87,6.69-3.05,10.34-1.21,3.72-1.95,6.07-2.12,7.21-.27,1.91-5.4,13.43-7.51,16.93,1.15,0,2.33,0,3.56,0,2.54-4.81,6.71-14.29,7.02-16.48.13-.93,1.08-3.86,2-6.68,1.21-3.73,2.58-7.96,3.14-10.68,1.03-4.98,3.62-10.08,6.76-13.31l1.21-1.25c4.34-4.48,17.56-18.13,20.74-19.81.28-.15.56-.3.83-.44,3.56-1.91,5.09-2.58,7.43.11,2.13,2.45-.04,10.3-2.97,16.56-1.14,2.44-5.58,10.88-10.83,17.43-5.43,6.77-10.75,17.34-12.36,22.06-1.28,3.78-.78,8.6-.09,12.54,1.04,0,2.1,0,3.15,0-.68-3.68-1.25-8.24-.14-11.52,1.56-4.6,6.82-14.85,11.83-21.1,5.48-6.83,9.96-15.36,11.23-18.07,2.09-4.48,6.52-15.37,2.49-20"/>
          <path class="cls-17" d="M524.81,574.57c-.18-3.66-.61-7.46-3.76-10.28-3.05-2.73-6.5-5.12-12.03-1.76-2.64,1.6-8.04,5.92-13.27,10.09-3.8,3.03-7.38,5.9-9.03,7-.64.43-15.76,10.6-17.58,18.91-1.41,6.43-4.06,19.18-4.18,20.29-1.48,8.94-9.83,22.35-11.09,23.69,1.22,0,2.55,0,3.95,0,3.35-4.68,8.76-15.45,10.2-23.19l.02-.12c.01-.13,2.72-13.59,4.13-20,1.14-5.22,10.58-13.18,16.26-16.97,1.76-1.17,5.22-3.95,9.24-7.15,4.91-3.92,10.47-8.36,12.94-9.86,3.49-2.12,5.34-1.32,8.39,1.42,2.04,1.83,2.53,4.25,2.71,8.07.14,2.85-1.76,16.32-2.53,21.42-.56,1.9-8.46,28.76-11.99,39.57-.71,2.18-1.19,4.51-1.5,6.88,1.05,0,2.1,0,3.14,0,.29-2.05.71-4.05,1.31-5.9,3.66-11.2,11.97-39.48,12.05-39.77l.05-.21c.11-.75,2.76-18.38,2.58-22.15"/>
          <path class="cls-18" d="M484.5,634.46c.23-.96.47-2.04.71-3.19.83-3.85,1.86-8.65,3.64-11.91,6.07-11.2,6.85-12.19,9.44-15.49.85-1.08,1.88-2.4,3.35-4.38l.86-1.16c2.09-2.79,3.74-4.99,7.31-12.45,1.4-2.92,2.57-6.11.7-7.66-.57-.47-2.31-1.91-8,2.56-1.77,1.39-7.42,7.05-9.91,9.92-2.38,2.75-2.56,3.13-5.59,9.49l-.88,1.84c-.38.79-.05,1.74.73,2.12.78.38,1.72.05,2.09-.74l.88-1.84c2.97-6.24,3.02-6.35,5.12-8.78,2.35-2.71,7.84-8.22,9.47-9.5,1.92-1.51,3.2-2.14,3.87-2.36-.09.56-.39,1.64-1.31,3.56-3.43,7.17-4.92,9.16-6.98,11.91l-.88,1.18c-1.43,1.95-2.45,3.24-3.29,4.31-2.64,3.37-3.53,4.5-9.73,15.94-1.99,3.67-3.07,8.71-3.95,12.76-.24,1.13-.47,2.18-.7,3.12-.62,2.56-.77,5.99-.7,8.85,1.06,0,2.12,0,3.15,0-.06-2.63.05-5.84.6-8.1"/>
          <path class="cls-12" d="M476.08,639.68l.49-1.27c1.69-4.4,3.79-9.87,4.43-14.4l.27-1.94c.56-3.98,1.04-7.42,1.54-12.03.1-.87-.53-1.66-1.39-1.75-.85-.1-1.64.53-1.73,1.41-.5,4.56-.98,7.97-1.53,11.92l-.27,1.94c-.58,4.16-2.61,9.45-4.24,13.69l-.49,1.28c-.51,1.33-.97,2.71-1.37,4.01,1.12,0,2.21,0,3.29,0,.31-.95.64-1.92,1-2.86"/>
          <path class="cls-5" d="M575.29,559.34c-.24-.94-.45-1.76-.58-2.79-.52-4.01-2.56-8.91-4.35-11.99-1.92-3.31-10.19-11-11.12-11.86-.04-.03-.08-.04-.12-.07-1.96-3.34-3.97-6.44-5.71-8.65-6.29-7.98-17.21-10.91-21.22-11.02-1.63-.05-7.51-.53-13.75-1.05-6.35-.52-13.28-1.1-17.82-1.38-.69,1-1.36,2.02-2.03,3.03,4.25.22,12.6.91,19.6,1.49,6.55.54,12.2,1.01,13.91,1.06,3.97.11,13.58,3.11,18.89,9.84,5.83,7.4,13.59,23.14,13.89,25.86l.11,1c2.5,21.55,2.21,27.18,1.81,28.62-.53,1.91-2.56,10.52-4.92,20.48-3.06,12.95-6.87,29.07-7.73,31.92-.39,1.28-1.11,4.55-1.97,8.84.71,0,1.11,0,1.11,0,.71,0,1.41-.08,2.1-.21.76-3.78,1.39-6.62,1.72-7.72.89-2.94,4.55-18.44,7.79-32.11,2.25-9.52,4.38-18.52,4.89-20.37.82-2.99.26-12.75-1.72-29.83l-.11-.99c-.17-1.55-1.68-5.19-3.78-9.45,1.58,1.68,2.93,3.23,3.48,4.18,1.93,3.31,3.54,7.75,3.94,10.79.16,1.23.4,2.17.65,3.17.5,1.97,1.07,4.19,1.07,9.53,0,10.08-1.36,19.89-4.06,29.17-3.2,11.03-3.84,13.57-3.86,13.68-.21.85.3,1.71,1.14,1.93.13.03.26.05.38.05.7,0,1.34-.48,1.52-1.2,0-.02.66-2.64,3.83-13.55,2.78-9.57,4.19-19.69,4.18-30.07,0-5.74-.62-8.17-1.17-10.32"/>
          <path class="cls-34" d="M565.1,636.28c.37-7.58,1.44-14.84,1.46-14.95.13-.87-.46-1.68-1.31-1.81-.88-.14-1.66.46-1.79,1.33-.08.52-1.45,9.81-1.61,18.53,1.13-.89,2.21-1.93,3.25-3.09"/>
          <path class="cls-24" d="M588.67,541.92c-3.37-7.61-14.01-23.8-17.43-27.08l-.67-.65c-3.59-3.47-11.98-11.6-23-16.22-11.55-4.84-27.2-7.18-27.86-7.27-.88-.13-1.66.48-1.78,1.34-.13.87.47,1.68,1.33,1.8.16.02,15.93,2.38,27.11,7.07,10.48,4.4,18.58,12.24,22.03,15.58l.69.66c2.82,2.7,13.41,18.58,16.73,26.07,2.8,6.31,4.95,23.95,5.98,32.42.07.59.14,1.11.2,1.63.83-1.36,1.72-2.7,2.67-4.01-1.18-9.59-3.2-25.05-5.99-31.35"/>
          <path class="cls-18" d="M620.22,559.25c-.1-8.09-2.09-22.26-4.25-28.27-1.68-4.69-6.12-11.55-9.68-17.06-1.94-2.99-3.77-5.82-4.22-6.92-.33-.81-1.25-1.19-2.05-.86-.8.33-1.18,1.26-.85,2.08.56,1.38,2.3,4.06,4.49,7.45,3.29,5.09,7.8,12.06,9.36,16.4,2.11,5.88,4.06,20.19,4.06,27.81.06-.01.12-.04.18-.05.95-.23,1.94-.41,2.95-.57"/>
          <path class="cls-20" d="M655.22,540.09c-.82-5.76-1.09-7.7-2.18-12.64-1.16-5.26-2.66-11.49-3.61-15.37-1.25-.72-2.51-1.47-3.78-2.24.62,2.52,2.78,11.28,4.33,18.3,1.07,4.82,1.33,6.73,2.14,12.4.51,3.58,1.52,10.51,2.81,18.93,1.07.04,2.14.08,3.19.1-1.34-8.74-2.38-15.84-2.9-19.49"/>
          <path class="cls-1" d="M595.9,547.76c-2.16-12.47-11.83-32.53-22.26-41.38-9.87-8.37-33.43-23.44-42.73-25.5-1.24-.27-2.77-.67-4.48-1.15-.86.84-1.69,1.7-2.53,2.55,2.44.7,4.64,1.29,6.34,1.67,2.83.63,7.46,2.77,12.7,5.65-1.64-.21-3.32-.4-4.87-.5-3.06-.21-10.23-3.17-15.54-5.42-.78.82-1.55,1.64-2.31,2.47,6.2,2.63,13.84,5.87,17.64,6.13,4.78.33,11.17,1.48,12.72,1.77,7.87,4.81,15.94,10.41,21.06,14.75,9.92,8.41,19.13,27.58,21.19,39.52,1.48,8.56,2.72,17.14,2.57,23.93.95-1.24,1.97-2.45,3.06-3.6-.22-5.88-1.18-12.84-2.57-20.87"/>
          <path class="cls-39" d="M675.89,558.59c.08-.02.17-.03.26-.04h0c.98-.21,1.9-.46,2.8-.73-.05-.83-.08-3.42-.09-4.02-.04-5.11-.68-18.32-.71-18.88-.04-.87-.77-1.53-1.62-1.49-.86.04-1.52.78-1.47,1.64,0,.14.66,13.71.7,18.75,0,.81.05,3.65.13,4.78"/>
          <path class="cls-19" d="M499.72,642.59c.09-4.87,1.29-12.46,2.51-16.31.84-2.66,2.93-5.53,4.76-8.07,1.15-1.59,2.23-3.08,2.96-4.44.92-1.72,5.52-13.93,6.04-15.32.31-.82-.1-1.74-.91-2.05-.81-.31-1.72.1-2.03.92-2.02,5.37-5.24,13.77-5.86,14.93-.63,1.17-1.65,2.59-2.74,4.08-1.98,2.73-4.22,5.83-5.22,8.98-1.2,3.78-2.55,11.82-2.66,17.28,1.06,0,2.11,0,3.13,0"/>
        </g>
        <path class="cls-9" d="M434.86,277.69c-.2-.48-.41-.97-.6-1.41.02-.02.02-.05.04-.07-8.39-22.03-25.58-43.98-13.72-55.52-8.55,6.25-30.09,21.91-49.43,35.49-18.96,13.31-38.46,24.93-40.97,32.65-7.74,23.81,17.8,58.31,8.61,86.59-8.71,26.8-63.96,39.32-59.84,60,4.25,21.36,33.82,9.45,59.71,8.47,22.13-.83,49.57-.65,85.36,9.64,7.16-10.08,15.28-24.69,21.83-44.83,4.84-14.89,6.44-31.27,6.08-47.41-1.28-36.91-9.48-62.93-17.07-83.62"/>
        <g class="cls-41">
          <path class="cls-11" d="M408.15,308.26c-.16-.27-.32-.54-.49-.8,1.46.35,2.99.54,4.56.53,10.42-.06,18.86-8.58,18.8-19.01,0-1.57-.21-3.09-.58-4.55.28.18.58.34.87.51.13.08.25.15.37.22.28.16.56.32.84.48.46.25.92.49,1.38.73.1.05.2.1.3.14.22.11.43.22.65.32.07.7.11,1.4.11,2.12.07,12.59-10.11,22.89-22.7,22.96-.72,0-1.42-.03-2.12-.09-.11-.23-.23-.45-.35-.68-.03-.08-.07-.15-.11-.23-.25-.48-.51-.95-.77-1.42-.14-.26-.29-.51-.44-.76-.1-.16-.2-.32-.29-.48M371.02,358.31h0c-.08,0-.17,0-.25.01-15.02.08-27.32-12.07-27.4-27.1,0-.08,0-.17,0-.25h0c-1.28.45-2.58.85-3.91,1.19.57,16.46,13.95,29.69,30.42,30.07.33-1.33.71-2.64,1.15-3.92M377.02,371c.79-18.23,15.37-32.98,33.59-33.98-.12-.85-.22-1.7-.29-2.57-.04-.45-.09-.89-.11-1.35-20.08,1.19-36.14,17.44-37.11,37.53.51.02,1.01.06,1.51.1.81.07,1.61.15,2.41.26M373.18,353.12c.05-.09.09-.18.13-.28.24-.47.49-.93.74-1.39.15-.28.31-.55.46-.81.08-.14.16-.27.24-.41.17-.28.34-.57.51-.85h0c-1.46.37-2.98.58-4.55.59-10.42.06-18.95-8.38-19.01-18.8,0-1.57.18-3.09.54-4.55h0c-.26.16-.53.32-.79.48-.17.11-.34.21-.5.3-.24.15-.49.3-.74.44-.48.27-.95.53-1.44.78-.07.04-.14.07-.21.11-.23.12-.46.24-.69.35-.06.7-.1,1.41-.09,2.12.07,12.59,10.37,22.78,22.96,22.7.71,0,1.42-.04,2.12-.11.1-.22.22-.44.32-.66M412.26,316.34c-.08,0-.17,0-.26,0,.46,1.28.86,2.58,1.19,3.91,16.47-.57,29.69-13.95,30.07-30.42-1.33-.32-2.64-.71-3.92-1.15,0,.08,0,.17,0,.25.09,15.03-12.07,27.32-27.1,27.41M314.15,289.64c-.04-7.99,6.42-14.52,14.41-14.57,7.99-.05,14.52,6.42,14.57,14.4.05,7.99-6.42,14.52-14.41,14.57-7.99.04-14.52-6.42-14.57-14.41M318.08,289.62c.03,5.82,4.8,10.53,10.62,10.5,5.82-.03,10.53-4.8,10.49-10.62-.03-5.82-4.79-10.53-10.61-10.5-5.82.03-10.53,4.8-10.5,10.62M412.19,303.57c-7.98.04-14.52-6.42-14.57-14.4-.05-7.99,6.42-14.52,14.4-14.57,7.99-.05,14.52,6.42,14.57,14.4.05,7.99-6.42,14.52-14.4,14.57M422.67,289.03c-.03-5.82-4.79-10.53-10.61-10.5-5.82.03-10.53,4.8-10.5,10.62.03,5.82,4.8,10.53,10.61,10.5,5.82-.03,10.53-4.8,10.5-10.62M372.44,292.94c-.07.86-.16,1.71-.27,2.56h0c18.23.79,32.97,15.37,33.97,33.59t0,0c.9-.13,1.8-.23,2.71-.31.4-.03.8-.07,1.2-.1-1.2-20.08-17.44-36.14-37.53-37.1-.02.46-.06.91-.1,1.36M368.21,287.07c.02-.45.06-.89.09-1.34.07-.87.15-1.73.27-2.58h0c-18.23-.79-32.98-15.37-33.97-33.59h0c-.79.11-1.6.21-2.4.28-.5.05-1.01.1-1.51.12,1.2,20.09,17.44,36.14,37.53,37.11M328.74,308.46c-1.57.01-3.09-.18-4.56-.53.17.26.33.53.49.8.1.16.19.32.29.48.15.25.3.5.44.76.27.47.53.94.77,1.42.04.07.08.16.11.23.12.22.23.45.35.68.7.06,1.41.1,2.12.09,12.59-.07,22.78-10.37,22.7-22.96,0-.72-.04-1.42-.11-2.12-.22-.1-.43-.21-.65-.32-.1-.05-.2-.1-.3-.15-.47-.24-.92-.48-1.38-.73-.28-.15-.55-.31-.83-.48-.13-.07-.25-.15-.38-.22-.29-.17-.58-.34-.87-.51.37,1.46.58,2.98.59,4.55.06,10.42-8.38,18.95-18.8,19.01M356.12,331.14c-.04-7.99,6.42-14.52,14.4-14.57,7.99-.05,14.52,6.41,14.57,14.4.05,7.99-6.42,14.52-14.4,14.57-7.99.05-14.52-6.42-14.57-14.41M360.05,331.12c.03,5.82,4.8,10.53,10.62,10.5,5.82-.03,10.53-4.8,10.5-10.62s-4.8-10.53-10.61-10.5c-5.82.03-10.53,4.8-10.5,10.62M328.79,316.81c-.08,0-.17,0-.26,0,.46,1.28.86,2.58,1.19,3.91,16.47-.57,29.69-13.95,30.08-30.42-1.33-.32-2.64-.7-3.92-1.15,0,.08,0,.17,0,.25.08,15.03-12.07,27.32-27.1,27.41M370.19,303.82h0c.09,0,.17,0,.26,0,15.03-.08,27.32,12.08,27.41,27.1,0,.09,0,.17,0,.26h0c1.28-.45,2.58-.85,3.91-1.19-.57-16.47-13.95-29.69-30.42-30.07-.32,1.33-.71,2.64-1.15,3.92M368.03,309.02c-.04.08-.08.16-.12.24-.24.48-.5.96-.75,1.43-.14.26-.28.5-.43.76-.1.17-.19.33-.29.5-.16.27-.32.54-.48.8h0c1.46-.37,2.98-.58,4.55-.59,10.42-.06,18.96,8.38,19.01,18.8,0,1.57-.18,3.09-.53,4.55h0c.28-.17.57-.35.86-.52.12-.08.25-.15.37-.23.28-.17.55-.33.83-.49.45-.26.91-.51,1.37-.75.1-.05.2-.1.29-.15.22-.11.43-.22.64-.33.06-.7.1-1.4.09-2.12-.07-12.59-10.37-22.78-22.97-22.71-.71,0-1.42.05-2.12.12-.11.22-.22.45-.33.67M364.2,291.13c-.79,18.23-15.37,32.98-33.59,33.98.13.84.22,1.69.29,2.55.04.45.09.9.11,1.37,20.08-1.2,36.14-17.44,37.11-37.53-.4-.02-.8-.05-1.19-.08-.91-.06-1.83-.15-2.72-.27M409.73,249.63c-20.08,1.2-36.14,17.44-37.11,37.53.51.02,1.01.06,1.51.1.81.07,1.61.15,2.4.25.79-18.23,15.38-32.98,33.6-33.98-.13-.85-.22-1.7-.29-2.57-.04-.44-.08-.89-.11-1.34M411.98,266.25c-12.59.07-22.78,10.37-22.7,22.96,0,.71.04,1.42.11,2.12.23.11.46.23.69.34.08.04.15.08.22.11.49.25.96.5,1.44.76.25.14.49.28.74.42.18.1.35.2.52.31.26.15.53.31.79.47-.37-1.46-.57-2.98-.58-4.55-.06-10.42,8.37-18.95,18.8-19.01,1.57,0,3.09.17,4.56.53-.18-.28-.35-.56-.52-.85-.08-.14-.16-.27-.24-.4-.16-.27-.32-.54-.47-.81-.26-.46-.51-.92-.76-1.38-.04-.09-.09-.19-.14-.28-.11-.22-.23-.44-.34-.66-.7-.06-1.4-.09-2.12-.09M380.94,288.35c1.33.32,2.64.71,3.92,1.15,0-.08,0-.17,0-.26-.08-15.03,12.07-27.32,27.1-27.41.08,0,.17,0,.25,0-.45-1.27-.85-2.58-1.19-3.91-16.47.58-29.69,13.95-30.08,30.42M413.61,241.15c.13.84.22,1.69.29,2.55.04.45.08.91.11,1.36,20.08-1.19,36.14-17.44,37.11-37.53-.4-.02-.8-.05-1.19-.08-.91-.07-1.83-.16-2.72-.28-.79,18.23-15.38,32.98-33.59,33.98M405.68,245.62s0,0,0,0c.9-.13,1.8-.23,2.71-.31.4-.04.8-.07,1.2-.1-1.2-20.08-17.44-36.14-37.53-37.11-.02.46-.06.91-.1,1.36-.07.86-.15,1.71-.27,2.56h0c18.23.79,32.98,15.37,33.97,33.59M398.1,372.65c-.05-7.99,6.42-14.52,14.4-14.57,7.99-.04,14.53,6.42,14.57,14.41.04,7.99-6.42,14.52-14.4,14.57-7.99.05-14.52-6.42-14.57-14.4M402.03,372.63c.03,5.82,4.79,10.53,10.61,10.5,5.82-.03,10.53-4.8,10.5-10.62-.03-5.82-4.8-10.53-10.62-10.5-5.82.03-10.53,4.8-10.5,10.62M336.57,341.5c-.83-2.7-2.67-5.54-2.83-8.47-.79.12-.27.21-1.08.28-.5.05-1,.09-1.51.12,1.19,20.08,17.43,36.14,37.53,37.11.02-.45.06-.9.09-1.34.07-.86.15-1.73.27-2.57h0c-15.3-.67-28.14-11.04-32.47-25.13M329.02,358.55c7.99-.04,14.52,6.42,14.57,14.4.05,7.99-6.42,14.52-14.4,14.57-7.99.05-14.53-6.42-14.57-14.4-.04-7.99,6.42-14.52,14.4-14.57M318.55,373.1c.03,5.82,4.8,10.53,10.62,10.5,5.82-.03,10.53-4.8,10.5-10.62-.03-5.82-4.8-10.53-10.62-10.5-5.82.03-10.53,4.8-10.5,10.62M409.34,412.26c.4-.03.8-.07,1.2-.1-1.2-20.08-17.44-36.14-37.53-37.11-.02.46-.06.91-.1,1.36-.07.86-.15,1.71-.27,2.55h0c18.23.79,32.98,15.37,33.98,33.6h0c.9-.13,1.8-.23,2.72-.31M454,316.11c7.99-.05,14.52,6.42,14.57,14.4.05,7.99-6.42,14.52-14.4,14.57-7.99.05-14.52-6.42-14.57-14.4-.04-7.99,6.42-14.53,14.41-14.57M454.02,320.04c-5.82.03-10.53,4.8-10.49,10.61.03,5.82,4.79,10.53,10.61,10.5,5.82-.03,10.53-4.8,10.5-10.62-.03-5.82-4.8-10.53-10.62-10.5M435.71,326.13c-.26.17-.53.33-.79.49-.17.11-.33.21-.5.3-.25.15-.5.29-.74.44-.47.27-.95.53-1.44.78-.07.04-.14.07-.21.11-.23.12-.46.24-.69.35-.06.7-.1,1.41-.09,2.12.07,12.59,10.37,22.78,22.97,22.7.71,0,1.42-.04,2.12-.11.1-.22.22-.44.32-.66.05-.09.09-.19.13-.28.24-.47.49-.94.74-1.4.15-.28.31-.55.46-.81.08-.14.16-.27.24-.41.17-.28.34-.57.52-.85h-.01c-1.46.37-2.98.58-4.55.59-10.42.06-18.96-8.38-19.01-18.8,0-1.57.18-3.09.53-4.55h0ZM415.67,249.36c-.5.05-1,.09-1.51.13,1.2,20.08,17.44,36.14,37.53,37.1.02-.45.06-.89.09-1.34.07-.86.16-1.73.27-2.58h0c-18.23-.79-32.98-15.37-33.97-33.59h0c-.79.11-1.6.2-2.4.28M373.79,436.32c.24-.47.49-.94.74-1.39.15-.28.31-.55.46-.81.08-.14.16-.27.24-.41.17-.28.34-.57.51-.85h0c-1.46.37-2.98.58-4.55.58-10.42.06-18.95-8.38-19.01-18.8,0-1.57.18-3.09.53-4.56h0c-.26.16-.53.32-.79.48-.17.11-.34.21-.5.3-.24.15-.49.3-.74.44-.47.27-.95.53-1.44.78-.07.04-.14.07-.21.11-.23.12-.46.24-.7.35-.06.7-.1,1.41-.09,2.12.07,12.59,10.37,22.78,22.97,22.71.71,0,1.42-.05,2.12-.12.1-.22.21-.44.33-.66.05-.09.09-.18.13-.28M371.23,441.79c-15.03.09-27.32-12.07-27.41-27.1,0-.08,0-.17,0-.25h0c-1.28.45-2.58.85-3.91,1.19.57,16.47,13.95,29.69,30.42,30.07.32-1.33.71-2.64,1.15-3.92h0c-.09,0-.17,0-.26,0M389.45,419c.28-.18.57-.36.86-.53.13-.08.25-.15.38-.23.28-.16.55-.33.83-.48.45-.26.91-.51,1.37-.75.1-.05.2-.1.29-.15.22-.11.43-.22.64-.33.06-.7.1-1.4.09-2.12-.07-12.59-10.37-22.78-22.96-22.7-.72,0-1.42.04-2.12.11-.11.23-.22.45-.33.68-.04.08-.08.17-.12.25-.24.48-.5.95-.75,1.42-.14.25-.29.5-.43.76-.09.16-.19.33-.29.49l-.49.81s0,0,0,0c1.46-.37,2.98-.57,4.55-.58,10.42-.06,18.95,8.37,19.01,18.79,0,1.57-.18,3.09-.53,4.56,0,0,0,0,0,0M398.33,414.64c1.28-.46,2.58-.85,3.91-1.19-.58-16.47-13.95-29.69-30.42-30.07-.32,1.33-.71,2.64-1.15,3.92h0c.09,0,.17,0,.25,0,15.03-.08,27.32,12.07,27.41,27.1,0,.08,0,.17,0,.25h0ZM287.45,387.76c15.03-.08,27.32,12.07,27.41,27.1,0,.08,0,.17,0,.25h0c1.28-.45,2.58-.85,3.91-1.19-.58-16.47-13.95-29.69-30.42-30.07-.32,1.33-.71,2.64-1.15,3.92h0c.08,0,.17,0,.26,0M356.59,414.62c-.05-7.99,6.42-14.52,14.41-14.57,7.99-.05,14.52,6.42,14.57,14.4.04,7.99-6.42,14.52-14.4,14.57-7.99.04-14.52-6.42-14.57-14.41M360.52,414.6c.03,5.82,4.8,10.53,10.62,10.5,5.82-.03,10.53-4.79,10.5-10.61-.03-5.82-4.8-10.53-10.62-10.5-5.82.03-10.53,4.8-10.5,10.61M440.07,414.15c-.04-7.99,6.42-14.52,14.41-14.57,7.98-.05,14.52,6.42,14.57,14.4.05,7.99-6.42,14.52-14.4,14.57-7.99.05-14.52-6.41-14.57-14.4M444,414.13c.03,5.82,4.8,10.53,10.62,10.5,5.82-.03,10.53-4.8,10.5-10.62s-4.8-10.53-10.62-10.5c-5.82.03-10.53,4.79-10.5,10.61M287.49,396.11c10.42-.06,18.95,8.37,19.01,18.79,0,1.57-.18,3.09-.53,4.56,0,0,0,0,0,0,.28-.18.57-.36.86-.53.12-.08.25-.15.37-.23.27-.16.55-.33.83-.48.45-.26.91-.51,1.37-.75.1-.05.19-.1.29-.15.22-.11.43-.22.64-.33.06-.7.1-1.4.09-2.12-.07-12.59-10.37-22.77-22.97-22.71-.71,0-1.42.04-2.12.11-.11.23-.22.45-.33.68-.04.08-.08.16-.12.25-.24.48-.49.96-.75,1.43-.14.25-.28.5-.43.75-.1.17-.2.33-.29.49-.16.27-.33.54-.49.81,0,0,0,0,0,0,1.46-.37,2.98-.57,4.55-.58M323.14,413.04h0c.89-.13,1.8-.22,2.72-.3.4-.04.8-.08,1.2-.1-1.19-20.08-17.44-36.14-37.53-37.1-.02.46-.07.91-.1,1.36-.07.86-.16,1.71-.27,2.55h0c18.23.8,32.98,15.38,33.98,33.59M457.26,435.85c.24-.47.49-.94.74-1.39.15-.28.31-.55.46-.81.08-.14.16-.27.24-.41.17-.28.34-.57.52-.85h-.01c-1.46.37-2.98.58-4.55.59-10.42.06-18.95-8.38-19.01-18.8,0-1.57.18-3.09.54-4.55h0c-.26.16-.53.32-.79.48-.17.11-.33.21-.5.3-.25.15-.49.3-.74.44-.47.27-.95.53-1.44.78-.07.04-.14.07-.21.1-.23.12-.46.24-.69.35-.06.7-.1,1.41-.09,2.12.07,12.59,10.37,22.78,22.97,22.71.71,0,1.42-.05,2.12-.12.1-.22.21-.44.32-.66.05-.09.09-.18.14-.28M287.76,442.26c-15.03.09-27.32-12.07-27.41-27.1,0-.08,0-.17,0-.25h0c-1.28.45-2.58.85-3.91,1.19.57,16.46,13.95,29.69,30.42,30.07.33-1.33.71-2.64,1.15-3.92h0c-.08,0-.17,0-.26,0M454.71,441.32c-15.03.08-27.32-12.07-27.41-27.1,0-.08,0-.17,0-.25h0c-1.28.45-2.58.85-3.91,1.19.57,16.47,13.95,29.69,30.42,30.07.32-1.33.71-2.64,1.15-3.92h0c-.09,0-.17,0-.26,0M370.03,228.68c10.42-.06,18.95,8.38,19.01,18.8,0,1.57-.18,3.09-.53,4.55h0c.28-.17.57-.35.86-.53.12-.08.25-.15.38-.23.28-.16.55-.33.83-.49.45-.26.91-.5,1.37-.75.1-.05.19-.1.29-.15.22-.11.43-.22.64-.32.06-.7.1-1.4.09-2.12-.07-12.59-10.37-22.78-22.97-22.71-.71,0-1.42.05-2.12.12-.11.23-.22.45-.33.68-.04.08-.08.16-.12.25-.24.48-.5.95-.75,1.42-.14.26-.28.51-.43.76-.1.17-.19.33-.29.5-.16.27-.32.54-.48.8h0c1.46-.37,2.98-.58,4.55-.59M355.65,247.67c-.04-7.99,6.42-14.52,14.41-14.57,7.99-.05,14.52,6.42,14.57,14.41.05,7.99-6.42,14.52-14.4,14.57-7.99.05-14.52-6.42-14.57-14.4M359.58,247.65c.03,5.82,4.8,10.53,10.62,10.5,5.82-.03,10.53-4.8,10.5-10.62-.03-5.82-4.8-10.53-10.62-10.5-5.82.03-10.53,4.79-10.5,10.62M290.31,436.8c.24-.47.49-.94.74-1.39.15-.28.31-.55.47-.81.08-.14.16-.27.24-.41.17-.29.34-.57.52-.85h-.01c-1.46.37-2.98.58-4.55.59-10.42.06-18.95-8.37-19.01-18.8,0-1.57.18-3.09.53-4.55h0c-.26.16-.53.32-.79.48-.16.1-.33.21-.5.3-.25.15-.5.3-.74.44-.47.27-.95.53-1.43.78-.07.04-.14.07-.21.11-.23.12-.46.24-.7.35-.06.7-.1,1.4-.09,2.12.07,12.59,10.37,22.78,22.97,22.71.71,0,1.42-.05,2.12-.11.1-.22.22-.44.32-.66.05-.09.09-.19.13-.28M451.59,291.01c-.4-.02-.79-.05-1.19-.08-.91-.06-1.82-.15-2.72-.27-.79,18.23-15.37,32.98-33.59,33.97.12.84.22,1.69.29,2.55.04.45.09.9.11,1.37,20.09-1.2,36.14-17.44,37.11-37.53M412.47,353.66c1.57,0,3.09.18,4.56.53-.18-.27-.34-.56-.52-.85-.08-.13-.16-.26-.24-.4-.16-.27-.32-.54-.48-.81-.26-.45-.51-.92-.75-1.39-.05-.09-.09-.18-.14-.27-.11-.22-.22-.44-.33-.65-.7-.06-1.41-.1-2.12-.09-12.59.07-22.77,10.37-22.7,22.97,0,.71.04,1.42.11,2.12.23.11.46.22.69.34.07.04.15.07.23.11.48.25.96.5,1.44.76.25.14.49.28.74.42.17.1.35.21.52.31.26.16.53.31.79.47-.37-1.45-.58-2.98-.58-4.55-.06-10.43,8.38-18.95,18.8-19.01M370.26,270.42c.72,0,1.42-.04,2.12-.11.1-.22.21-.44.32-.66.04-.09.09-.19.14-.28.24-.47.48-.94.74-1.4.15-.27.31-.54.47-.82.08-.13.16-.27.24-.4.17-.29.34-.57.52-.86,0,0,0,0,0,0-1.46.37-2.98.57-4.55.58-10.42.06-18.95-8.37-19.01-18.8,0-1.57.18-3.09.53-4.56t0,0c-.26.16-.53.33-.79.49-.17.1-.34.2-.5.3-.25.14-.49.29-.74.43-.47.27-.95.53-1.43.78-.07.04-.14.07-.21.11-.23.12-.46.24-.7.35-.06.7-.1,1.4-.09,2.12.07,12.59,10.37,22.78,22.96,22.7M454.5,357.84h0c-.09,0-.17,0-.26,0-15.03.09-27.32-12.07-27.41-27.09,0-.09,0-.17,0-.26h0c-1.28.45-2.58.85-3.91,1.19.57,16.46,13.95,29.69,30.42,30.07.33-1.33.71-2.64,1.15-3.92M426.36,247.27c0-.08,0-.17,0-.25h0c-1.28.45-2.58.85-3.91,1.19.57,16.47,13.95,29.69,30.42,30.07.33-1.33.71-2.64,1.15-3.92h0c-.09,0-.17,0-.26,0-15.03.09-27.32-12.07-27.41-27.1M369.98,220.34c15.03-.08,27.32,12.07,27.41,27.1,0,.08,0,.17,0,.25h0c1.28-.45,2.58-.85,3.91-1.19-.57-16.46-13.95-29.69-30.42-30.07-.32,1.33-.71,2.64-1.15,3.92h0c.09,0,.17,0,.26,0M369.4,278.75c.32-1.33.71-2.64,1.15-3.92h0c-.09,0-.17,0-.26,0-15.03.09-27.32-12.07-27.41-27.1,0-.08,0-.17,0-.25h0c-1.28.45-2.58.85-3.91,1.19.57,16.47,13.95,29.69,30.42,30.07M273.12,415.1c-.05-7.99,6.42-14.52,14.4-14.57,7.99-.04,14.52,6.42,14.57,14.41.04,7.99-6.42,14.52-14.41,14.57-7.99.05-14.52-6.41-14.57-14.4M277.05,415.07c.03,5.82,4.79,10.53,10.61,10.49,5.82-.03,10.53-4.79,10.5-10.61-.03-5.82-4.79-10.53-10.62-10.5-5.82.03-10.53,4.8-10.49,10.62M412.43,345.31c.08,0,.17,0,.25,0-.45-1.28-.85-2.58-1.19-3.91-16.46.57-29.69,13.95-30.07,30.42,1.33.32,2.64.71,3.92,1.14,0-.08,0-.17,0-.25-.08-15.03,12.07-27.32,27.1-27.41M329.49,442.03c-7.99.05-14.45,6.58-14.4,14.57l3.93-.02c-.03-5.82,4.68-10.58,10.5-10.62,5.82-.03,10.58,4.68,10.61,10.5l3.93-.02c-.04-7.99-6.58-14.45-14.57-14.41M329.47,437.61c1.57,0,3.09.18,4.55.53-.18-.28-.34-.56-.52-.85-.08-.13-.16-.26-.24-.4-.16-.27-.32-.54-.48-.81-.26-.46-.51-.92-.75-1.39-.05-.09-.09-.18-.14-.27-.11-.22-.22-.44-.33-.65-.7-.06-1.4-.1-2.12-.09-12.59.07-22.78,10.37-22.7,22.96h0s3.93-.02,3.93-.02h0c-.06-10.43,8.37-18.95,18.8-19.01M329.42,429.26c.08,0,.17,0,.26,0-.46-1.28-.85-2.58-1.19-3.91-16.47.57-29.69,13.95-30.07,30.41,1.07.26,2.12.56,3.17.9h.75c-.09-15.03,12.07-27.33,27.1-27.41M412.9,428.79c.08,0,.17,0,.25,0-.45-1.28-.85-2.58-1.19-3.91-16.46.57-29.69,13.95-30.07,30.41,1.07.26,2.12.56,3.16.9h.75c-.09-15.03,12.07-27.33,27.1-27.41M412.97,441.56c-7.99.04-14.45,6.58-14.41,14.57l3.93-.02c-.03-5.82,4.68-10.58,10.5-10.62,5.82-.03,10.58,4.68,10.62,10.5l3.93-.02c-.05-7.99-6.58-14.45-14.57-14.4M412.95,437.14c1.57,0,3.09.18,4.55.53-.18-.28-.34-.56-.52-.85-.08-.13-.16-.26-.24-.4-.16-.27-.32-.54-.48-.81-.26-.46-.51-.92-.75-1.39-.05-.09-.09-.18-.14-.27-.11-.22-.22-.43-.33-.65-.7-.06-1.41-.1-2.12-.09-12.59.07-22.78,10.37-22.7,22.96h0s3.93-.02,3.93-.02h0c-.06-10.43,8.38-18.95,18.8-19.01M496.45,441.08c-7.99.04-14.45,6.58-14.4,14.57l3.93-.02c-.03-5.82,4.68-10.58,10.5-10.62l-.02-3.93ZM496.38,428.32v-.75c-.35-1.03-.66-2.09-.93-3.16-16.47.57-29.69,13.95-30.08,30.42,1.07.26,2.13.56,3.17.9h.75c-.08-15.03,12.07-27.33,27.1-27.41M496.42,436.67l-.02-3.93c-12.59.07-22.78,10.37-22.7,22.96l3.93-.02c-.06-10.42,8.37-18.95,18.8-19.01M412.71,395.4c12.59-.07,22.78-10.37,22.7-22.96,0-.71-.04-1.42-.11-2.12-.22-.1-.43-.21-.64-.32-.1-.05-.2-.1-.3-.15-.46-.23-.93-.48-1.38-.73-.28-.15-.56-.32-.83-.47-.13-.07-.25-.15-.38-.22-.29-.17-.58-.34-.87-.52.37,1.46.57,2.98.58,4.55.06,10.42-8.37,18.95-18.8,19.01-1.57,0-3.09-.18-4.56-.53.17.26.33.53.49.81.1.16.19.31.29.48.15.25.3.5.44.76.27.47.53.94.77,1.42.04.08.08.15.12.23.12.23.23.46.35.68.7.06,1.4.09,2.12.09M443.75,373.3c-1.33-.32-2.64-.71-3.92-1.15,0,.08,0,.17,0,.25.09,15.03-12.07,27.32-27.1,27.41-.08,0-.17,0-.25,0,.45,1.28.85,2.58,1.19,3.91,16.47-.57,29.69-13.94,30.08-30.42M335.53,416.51h0c-.79.11-1.59.2-2.4.28-.5.05-1.01.09-1.51.12,1.2,20.08,17.44,36.14,37.53,37.11.02-.45.06-.89.09-1.34.07-.86.16-1.72.27-2.58h0c-18.23-.79-32.98-15.37-33.98-33.59M494.56,420.03c-.12-.85-.22-1.71-.29-2.57-.04-.45-.08-.89-.11-1.34-20.08,1.19-36.14,17.43-37.11,37.53.51.02,1.01.06,1.51.1.81.07,1.61.15,2.41.25.79-18.23,15.37-32.98,33.59-33.97M331.48,412.49c20.08-1.2,36.14-17.44,37.11-37.53-.4-.02-.8-.05-1.19-.08-.92-.07-1.83-.15-2.72-.28-.79,18.23-15.38,32.98-33.59,33.98.12.84.21,1.69.29,2.55.04.45.08.9.11,1.36M414.96,412.02c20.08-1.2,36.14-17.44,37.11-37.53-.4-.02-.8-.05-1.19-.08-.91-.07-1.83-.15-2.72-.28-.79,18.23-15.38,32.98-33.59,33.97.12.84.22,1.69.29,2.55.04.45.08.9.11,1.36M419.01,416.04h0c-.79.11-1.59.2-2.4.28-.5.05-1,.09-1.51.12,1.2,20.08,17.44,36.14,37.53,37.11.02-.45.06-.89.09-1.34.07-.86.16-1.72.27-2.58h0c-18.23-.79-32.98-15.37-33.98-33.59M411.08,420.5c-.13-.85-.22-1.71-.29-2.57-.04-.45-.09-.89-.11-1.34-20.08,1.19-36.14,17.43-37.11,37.53.51.02,1.01.06,1.51.1.81.07,1.61.15,2.41.25.79-18.23,15.37-32.98,33.59-33.97M360.27,373.78c-1.33-.32-2.64-.71-3.92-1.15,0,.08,0,.17,0,.25.08,15.03-12.07,27.32-27.1,27.41-.08,0-.17,0-.26,0,.45,1.27.85,2.58,1.19,3.91,16.46-.57,29.69-13.94,30.07-30.42M327.61,420.97c-.13-.85-.22-1.7-.3-2.57-.04-.45-.08-.89-.11-1.35-20.08,1.19-36.14,17.44-37.11,37.53.51.02,1.01.06,1.51.1.81.07,1.61.15,2.41.26.79-18.23,15.37-32.98,33.59-33.98M325.43,392.69c.15.25.3.5.44.76.27.47.53.94.77,1.42.04.08.08.15.12.23.12.23.23.46.35.68.7.06,1.4.09,2.12.09,12.59-.07,22.78-10.37,22.7-22.96,0-.71-.04-1.42-.11-2.12-.22-.1-.43-.22-.65-.32-.1-.05-.2-.09-.3-.14-.47-.23-.93-.48-1.38-.73-.28-.15-.56-.32-.84-.48-.13-.08-.25-.15-.37-.22-.29-.17-.58-.34-.87-.52.37,1.46.57,2.98.58,4.55.06,10.42-8.37,18.95-18.8,19.01-1.57,0-3.09-.18-4.56-.53.17.26.33.53.49.8.1.16.19.32.29.48M252.06,416.98h0c-.79.11-1.59.2-2.4.28-.5.05-1,.09-1.51.12,1.2,20.08,17.44,36.14,37.53,37.11.02-.45.06-.89.09-1.34.07-.86.15-1.72.27-2.58h0c-18.23-.79-32.98-15.37-33.98-33.59M411.79,232.86c-.08,0-.17,0-.26,0,.46,1.28.86,2.58,1.19,3.91,16.47-.57,29.69-13.95,30.08-30.42-1.07-.26-2.12-.56-3.17-.9h-.74c.08,15.03-12.07,27.33-27.1,27.41M407.97,225.27c.15.25.3.5.44.76.27.47.52.94.77,1.42.04.07.08.16.12.23.12.22.23.45.35.68.7.06,1.4.1,2.12.09,12.59-.07,22.77-10.37,22.7-22.96l-3.93.02c.06,10.42-8.37,18.95-18.8,19.01-1.57,0-3.1-.18-4.56-.53.17.26.33.53.49.8l.29.48ZM452.91,370.12c.06-1.31.12-2.61.15-3.92l-.54-.04h0c-18.23-.79-32.98-15.38-33.98-33.6-.79.12-1.6.21-2.4.28-.5.05-1,.09-1.51.13,1.19,20.08,17.43,36.14,37.53,37.11l.75.04Z"/>
        </g>
        <path class="cls-6" d="M642.71,508.23c.44.27.89.54,1.31.79,0,.02,0,.05,0,.08,19.74,12.89,46.55,20.54,43.74,36.85,3.25-10.08,11.46-35.41,19.13-57.76,7.52-21.91,16.46-42.77,13.95-50.5-7.74-23.81-48.68-36.71-57.87-64.99-8.71-26.8,28.64-69.41,13.15-83.72-15.99-14.78-32.92,12.23-53.29,28.24-17.41,13.68-39.73,29.66-74.73,42.37.14,12.37,2.15,28.96,8.69,49.1,4.84,14.89,13.17,29.08,22.94,41.93,22.73,29.1,44.66,45.34,62.96,57.62"/>
        <g class="cls-51">
          <path class="cls-31" d="M585.95,431.6c.13.6,13.7,54.77,18.11,70.88-13.14-21.01-20.84-45.82-18.11-70.88"/>
          <path class="cls-31" d="M586.58,398.12c3.45,17.46,27.41,83.3,32.99,92.31-13.09-12.75-37.24-53.97-32.99-92.31"/>
          <path class="cls-31" d="M589.86,377.39c3.96,23.97,12.18,39.49,28.87,71.42.02.04,10.85,20.16,10.85,20.16.17-.08-.35.07-.18.15-.1-.16-.3-.5-.4-.66.05.04.58.5.62.55.08.15-.29.22-.17.17-17.75-12.82-43.72-54.42-39.59-91.8"/>
          <path class="cls-31" d="M592.08,364.2c4.6,22.39,34.06,62.82,47.62,84.7-23.93-20.53-50.6-53.43-47.62-84.7"/>
          <path class="cls-31" d="M595,350.63c4.34,20.86,32.86,51,53.01,83.53-23.3-20.19-55.66-53.16-53.01-83.53"/>
          <path class="cls-31" d="M597.89,339.71c4.29,19.7,34.56,39.83,60.5,80.02-27.52-23.93-62.47-53.68-60.5-80.02"/>
          <path class="cls-31" d="M600.98,331.13c3.97,16.69,43.57,32.88,68.2,71.9-34.54-29.4-69.45-51.21-68.2-71.9"/>
          <path class="cls-31" d="M603.4,322.67c2.19,8.2,12.36,10.26,32.52,22.35,15.39,9.23,32.99,25.3,43.33,41.44-40.04-33.62-76.44-48.04-75.85-63.8"/>
          <path class="cls-31" d="M605.37,316.05s.09,1.01,1.15,2.07c7.19,6.51,51.4,3.11,82.27,50.68-34.41-29.97-58.14-34.04-77.46-45.57-7.14-4.17-5.96-7.17-5.96-7.17"/>
          <path class="cls-31" d="M607.96,311.29s-.29,1.36,3.7,1.43c6.94.16,54.8-9.56,87.84,40.62-17.2-15.08-28.14-22.43-51.69-30.48-23.2-7.99-39.94-7.15-39.86-11.57"/>
          <path class="cls-31" d="M609.16,305.66s-.62.81,4.42-.98c40.56-14.43,72.9-.94,95.4,33.01-26.06-23.23-51.71-35.16-89.62-32.19-5.03.44-9.24,1-10.05.47-.21-.16-.13-.31-.15-.3"/>
          <path class="cls-31" d="M610.74,299.69c23.31-20.76,71.12-25.64,106.63,24.21-23.99-21.28-45.81-34.34-80.2-30.89-11.75,1.21-21.31,4.1-26.43,6.67"/>
          <path class="cls-31" d="M575.55,414.68c-6.41,16.03-16.1,34.54-38.95,52,17.12-29.68,25.33-39.08,38.95-52"/>
          <path class="cls-31" d="M579.4,393.4c-17.61,39.39-51.48,54.72-58.35,56.37,7.3-4.52,8.29-6.74,58.35-56.37"/>
          <path class="cls-31" d="M582.12,376.41c-12.31,26.27-39.05,47.69-72.05,53.31.08.28-.18-.37-.12-.31.13-.03.83-.12.96-.14-.01,0-.83.42-.83.44.06.06-.18-.59-.1-.31,49.77-29.43,61.78-41.79,72.14-53"/>
          <path class="cls-31" d="M584.18,363.56c-13.54,27.81-48.52,38.58-79.17,42.75,27.6-13.85,62.79-25.94,79.17-42.75"/>
          <path class="cls-31" d="M588.02,349.45c-13.19,26.62-51.87,35.17-82.17,39.38,20.78-10.43,67.35-24.29,82.17-39.38"/>
          <path class="cls-31" d="M589.93,338.53c-11.1,21.91-46.73,26.98-85.6,32.3,40.23-19.22,71.03-17.69,85.6-32.3"/>
          <path class="cls-31" d="M617.35,258.98c-18.5,47.73-29.28,92.78-35.74,140.34-1.23,9.04-2.9,18.46-4.87,27.36-5.14,23.25-6.53,50.47-2.55,76.86,4.45-24.99,6.4-51.19,6.88-70.16.49-19.71,2.8-39.98,6.8-59.29,7.91-38.21,19.13-74.84,34.88-113.02l-5.39-2.08Z"/>
          <path class="cls-31" d="M689.16,451.59c15.63-6.57,80.39-22.7,90.47-23.09-17.04-3.55-62.45-.68-90.47,23.09"/>
          <path class="cls-31" d="M674.53,465.22c21.04-9.63,37.68-11.41,71.78-15.23.04,0,21.7-2.16,21.7-2.16.02.18-.13-.32.02-.22-.18.01-.56.03-.74.04.06.02.7.2.77.2.17-.02.02-.35.04-.23-19.57-7.19-66.26-5.55-93.58,17.61"/>
          <path class="cls-31" d="M665.29,473.99c20.14-8.29,67.75-6.55,92.25-7.49-28.96-7.97-69.14-11.52-92.25,7.49"/>
          <path class="cls-31" d="M656.13,483.53c18.78-7.68,57.78-1.2,94.2-2.6-28.35-7.65-71.62-15.65-94.2,2.6"/>
          <path class="cls-31" d="M649.04,491.62c17.84-7.1,49.86,6.09,95.41,5.18-33.55-9-75.66-20.76-95.41-5.18"/>
          <path class="cls-31" d="M643.9,498.63c15.3-5.75,49.17,16.91,93.1,15.59-41.61-11.63-77.42-27.59-93.1-15.59"/>
          <path class="cls-31" d="M638.52,505.04c7.64-2.64,14.68,4.29,34.97,13.78,15.49,7.24,37.55,12.59,55.81,12.16-47.87-13.72-78.64-34.8-90.78-25.94"/>
          <path class="cls-31" d="M696.36,434.05c9.25-13.6,18.7-31.11,20.33-58.45-14.33,29.33-17.38,40.82-20.33,58.45"/>
          <path class="cls-31" d="M681.61,448.43c21.74-34.88,15.81-69.79,13.45-76.1.32,8.17-.91,10.14-13.45,76.1"/>
          <path class="cls-31" d="M669.63,459.62c14.19-23.71,16.88-56.23,3.75-85.29.26-.09-.38.05-.3.07.04.11.35.72.4.83,0-.01-.1-.88-.1-.89.08.02-.56.17-.3.08,3.26,54.98-.11,71.05-3.45,85.2"/>
          <path class="cls-31" d="M660.58,468.09c14.75-25.49,4.64-58.86-8.39-85.3,3.75,29.18,12.94,63.4,8.39,85.3"/>
          <path class="cls-31" d="M651.47,478.64c14-24.59.8-58.37-12-84.54,2.83,21.96,16.03,64.81,12,84.54"/>
          <path class="cls-31" d="M643.87,485.96c11.39-20.43-3.57-51.28-20.07-84.81,6.25,42,23.85,65.52,20.07,84.81"/>
          <path class="cls-31" d="M636.85,494.18c8.84-16.41-9.14-42.65-29.12-82.38,6.25,44.45,32.16,65.37,29.12,82.38"/>
          <path class="cls-31" d="M631.03,500.28c6.49-12.79-17.15-32.7-40.1-77.96,3.02,20.68,12.6,39.66,25.75,55.42,9.9,11.81,15.39,15.7,14.35,22.54"/>
          <path class="cls-31" d="M595.64,549.97c27.85-40.02,57.69-72.53,91.81-102.95,6.49-5.78,13.03-12.12,19.02-18.42,15.62-16.43,36.39-32.03,59.34-42.94-17.37,16.82-37.02,32.31-51.76,42.79-15.3,10.89-30.08,23.5-43.21,36.94-25.97,26.59-48.93,54.96-70.7,87.72l-4.51-3.15Z"/>
        </g>
        <path class="cls-5" d="M622.53,317.45c.39-.34.79-.68,1.15-1.01.03,0,.05.01.08.02,18.36-14.79,33.92-37.92,48.56-30.21-8.58-6.2-30.14-21.84-49.02-36.04-18.52-13.92-35.59-28.87-43.71-28.87-25.04,0-49.96,34.95-79.7,34.95-28.17,0-57.16-48.68-75.56-38.38-19,10.64,1.46,35.09,10.39,59.41,7.63,20.79,15.94,46.95,17.21,84.16,11.81,3.69,28.2,6.91,49.38,6.91,15.65,0,31.73-3.54,46.96-8.87,34.7-12.63,56.92-28.47,74.26-42.07"/>
        <g class="cls-47">
          <path class="cls-33" d="M653.1,273.83c-.09.09-.14.22-.14.34v1.46c-.86.34-1.43,1.16-1.43,2.08,0,1.24,1,2.24,2.24,2.24s2.24-1.01,2.24-2.24-.91-2.14-2.08-2.24v-1.11l1.22-1.22c-.26-.19-.53-.39-.8-.58l-1.26,1.26Z"/>
          <path class="cls-33" d="M644.73,273.2v2.34c-1.01.23-1.76,1.14-1.76,2.18,0,1.24,1.01,2.24,2.25,2.24s2.24-1.01,2.24-2.24c0-1.04-.74-1.96-1.76-2.18v-2.14l4.14-4.14c-.26-.19-.53-.39-.8-.58l-4.18,4.18c-.09.09-.14.21-.14.34"/>
          <path class="cls-33" d="M640.2,295.83c-.23-.99-1.12-1.72-2.18-1.72-1.24,0-2.24,1.01-2.24,2.24s1.01,2.24,2.24,2.24c1.06,0,1.94-.74,2.18-1.72h4.02c.36-.35.71-.7,1.06-1.04h-5.08Z"/>
          <path class="cls-33" d="M469.4,362.25c.09.09.22.14.34.14h18.14c.13,0,.25-.05.35-.14l5.39-5.39c.09-.09.14-.22.14-.35v-6.82l21.98-21.97h29.9l6.08,6.08c.09.09.21.14.35.14h31.14c.13,0,.26-.05.34-.14l19.05-19.05c.41.38.96.6,1.52.6,1.24,0,2.24-1.01,2.24-2.24s-1.01-2.24-2.24-2.24-2.24,1.01-2.24,2.24c0,.28.05.55.16.82l-19.03,19.03h-30.74l-6.08-6.08c-.09-.09-.22-.14-.35-.14h-30.31c-.13,0-.25.05-.35.14l-22.26,22.26c-.09.09-.14.21-.14.34v6.82l-5.1,5.1h-17.73l-3.95-3.95c-.09-.09-.21-.14-.34-.14h-16.64c0,.32,0,.65,0,.98h16.43l3.95,3.95Z"/>
          <path class="cls-33" d="M473.01,357.14c.09.09.22.14.34.14h12.21c.13,0,.25-.05.35-.14l3.31-3.31c.09-.09.14-.22.14-.34v-7.06l25.33-25.33h15.6c.13,0,.25-.05.34-.14l3.34-3.34h21.61l3.84,3.84c.09.09.22.14.34.14h20.56c.13,0,.25-.05.34-.14l5.78-5.78c.09-.09.14-.21.14-.34v-7.22l5.37-5.37c.38.26.81.39,1.25.39,1.24,0,2.24-1.01,2.24-2.24s-1.01-2.24-2.24-2.24-2.24,1-2.24,2.24c0,.4.11.8.32,1.14l-5.53,5.53c-.09.09-.14.22-.14.34v7.22l-5.49,5.49h-20.15l-3.84-3.84c-.09-.09-.22-.14-.34-.14h-22.01c-.13,0-.25.05-.34.14l-3.34,3.34h-15.6c-.13,0-.25.05-.35.14l-25.62,25.62c-.09.09-.14.22-.14.35v7.06l-3.02,3.02h-11.8l-2.24-2.24c-.09-.09-.22-.14-.35-.14h-22.05c.01.33.02.65.03.98h21.82l2.24,2.24Z"/>
          <path class="cls-33" d="M457.81,345.41h27.61c.13,0,.25-.05.34-.14l27.64-27.64h14.15c.13,0,.25-.05.35-.14l5.19-5.19h.74c.23,1.01,1.14,1.76,2.18,1.76,1.24,0,2.24-1.01,2.24-2.24s-1-2.24-2.24-2.24c-1.04,0-1.96.74-2.18,1.75h-.94c-.13,0-.25.05-.35.14l-5.19,5.19h-14.15c-.13,0-.25.05-.35.14l-27.64,27.64h-27.21l-9.17-9.32c.04.51.09,1.01.13,1.51l8.48,8.64c.09.09.22.14.35.14"/>
          <path class="cls-33" d="M459.59,341.06h25.16c.13,0,.25-.05.34-.14l34.69-34.69c.38.27.83.42,1.29.42,1.24,0,2.24-1.01,2.24-2.24s-1.01-2.24-2.24-2.24-2.24,1.01-2.24,2.24c0,.39.1.77.29,1.1l-34.58,34.58h-24.75l-11.63-11.78c.06.52.12,1.04.18,1.56l10.91,11.06c.09.09.22.14.35.14"/>
          <path class="cls-33" d="M459.48,319.17s.02.02.04.02h23.16l2.13,2.13c.09.09.21.15.34.15h6.16c.13,0,.25-.05.35-.15l3.71-3.71c.39.29.86.45,1.34.45,1.24,0,2.24-1.01,2.24-2.24s-1.01-2.24-2.24-2.24-2.24,1.01-2.24,2.24c0,.36.09.72.27,1.05l-3.62,3.62h-5.76l-2.13-2.13c-.09-.09-.22-.14-.35-.14h-23.14c-.35-.33-.66-.62-.98-.92l.92.92-.2.96Z"/>
          <path class="cls-33" d="M461.49,316.16c.09.09.22.14.35.14h23.81c.23,1.01,1.14,1.76,2.18,1.76,1.24,0,2.24-1.01,2.24-2.24s-1.01-2.25-2.24-2.25c-1.04,0-1.95.75-2.18,1.76h-23.61l-7.25-7.25c-.09-.09-.21-.14-.34-.14h-13c.05.21.11.41.16.61.03.12.06.24.08.36h12.56l7.24,7.24Z"/>
          <path class="cls-33" d="M459.13,319.04c.09.09.22.14.34.14v-.02c-.12-.01-.24-.05-.32-.14-3.2-3.38-6.63-7.09-7.14-7.49-.22.02-9,.04-9.73.06.01.07.03.14.04.21h9.56l7.25,7.24Z"/>
          <path class="cls-33" d="M452.56,311.34c.16,0,.2.05.33.15l.23.34c.83.74,2.42,2.42,5.63,5.45l-6.32-6.32c-.09-.09-.22-.14-.35-.14h-9.98c.04.18.08.36.12.53,1.04,0,10.11,0,10.34-.01"/>
          <path class="cls-33" d="M452.89,311.5c-.13-.1-.17-.15-.33-.15-.23,0-9.3,0-10.33.01.02.08.03.16.05.23.73-.02,9.51-.04,9.73-.06.51.41,3.94,4.11,7.14,7.49.08.09.2.13.32.14l.2-.96-.92-.92c-3.2-3.03-4.8-4.71-5.63-5.45l-.23-.34Z"/>
          <path class="cls-33" d="M462.68,313.3c.09.09.22.14.34.14h16.64c.13,0,.25-.05.35-.14l2.07-2.07h18.25l2.35,2.35c-.28.39-.43.83-.43,1.31,0,1.24,1.01,2.24,2.24,2.24s2.24-1.01,2.24-2.24-1.01-2.24-2.24-2.24c-.38,0-.75.1-1.08.28l-2.53-2.53c-.09-.09-.21-.14-.34-.14h-18.65c-.13,0-.25.05-.35.14l-2.07,2.07h-16.24l-7.13-7.13c-.09-.09-.22-.14-.35-.14h-15.01c.08.32.17.65.25.98h14.56l7.13,7.13Z"/>
          <path class="cls-33" d="M480.58,307.84c.09.09.22.14.35.14h31.23c.13,0,.25-.05.35-.14l9.64-9.64c.4.31.87.47,1.37.47,1.24,0,2.24-1.01,2.24-2.24s-1.01-2.24-2.24-2.24-2.24,1.01-2.24,2.24c0,.35.08.69.25,1.01l-9.56,9.56h-30.82l-4.63-4.63c-.09-.09-.21-.14-.34-.14h-36.21c.07.26.15.51.22.77l.06.21h35.72l4.63,4.63Z"/>
          <path class="cls-33" d="M455.92,271.99l8.02-8.02h17.7l4.39,4.39c.09.09.22.14.35.14h12.42l3.73,3.73c.09.09.22.14.35.14h2.81c.13,0,.25-.05.35-.14l2.63-2.64h7.71l5.17,5.17c-.19.34-.29.71-.29,1.1,0,1.24,1.01,2.24,2.24,2.24s2.24-1.01,2.24-2.24-1.01-2.24-2.24-2.24c-.46,0-.91.15-1.29.42l-5.28-5.28c-.09-.09-.21-.14-.34-.14h-8.11c-.13,0-.25.05-.34.14l-2.63,2.64h-2.41l-3.74-3.74c-.09-.09-.22-.14-.35-.14h-12.42l-4.39-4.39c-.09-.09-.22-.14-.35-.14h-18.11c-.13,0-.25.05-.34.14l-8.02,8.02h-26.99c.15.32.29.65.44.98h26.75c.13,0,.25-.05.35-.14"/>
          <path class="cls-33" d="M481.2,297.56l1.66-1.66c.36.23.77.35,1.2.35,1.24,0,2.24-1.01,2.24-2.24s-1.01-2.24-2.24-2.24-2.24,1.01-2.24,2.24c0,.43.12.84.36,1.2l-1.52,1.52h-42.35c.1.31.2.61.3.92,0,.02.01.04.02.06h42.24c.13,0,.25-.05.34-.14"/>
          <path class="cls-33" d="M477.19,294.63l3.76-3.76h9.94l1.49,1.48c-.47.43-.73,1.02-.73,1.65,0,1.24,1.01,2.24,2.24,2.24s2.24-1.01,2.24-2.24-1.01-2.24-2.24-2.24c-.21,0-.41.03-.63.1l-1.82-1.82c-.09-.09-.22-.14-.35-.14h-10.34c-.13,0-.25.05-.35.14l-3.76,3.76h-39.28c.11.32.21.65.32.98h39.17c.13,0,.25-.05.34-.14"/>
          <path class="cls-33" d="M468.65,292.1l1.53-1.53c.36.23.77.35,1.19.35,1.24,0,2.24-1.01,2.24-2.24s-1.01-2.24-2.24-2.24-2.24,1-2.24,2.24c0,.43.13.85.36,1.21l-1.38,1.38h-31.61c.11.33.23.64.34.98h31.47c.13,0,.25-.05.35-.14"/>
          <path class="cls-33" d="M465.36,289.03l4.47-4.47h8.5c.13,0,.25-.05.34-.14l3.41-3.41h8.17l2.03,2.03c-.42.42-.66.98-.66,1.57,0,1.24,1.01,2.24,2.24,2.24s2.24-1.01,2.24-2.24-1.01-2.24-2.24-2.24c-.26,0-.51.04-.75.13l-2.32-2.32c-.09-.09-.22-.14-.35-.14h-8.58c-.13,0-.25.05-.34.14l-3.42,3.42h-8.5c-.13,0-.25.05-.35.14l-4.47,4.47h-29.41,0c.12.33.23.66.34.98h29.27c.13,0,.25-.05.34-.14"/>
          <path class="cls-33" d="M463.39,286.05l5.05-5.06h8.25c.13,0,.25-.05.34-.14l3-3h15.14l5.55,5.55c-.23.36-.35.77-.35,1.2,0,1.24,1.01,2.24,2.24,2.24s2.24-1,2.24-2.24-1.01-2.24-2.24-2.24c-.42,0-.84.12-1.2.36l-5.69-5.69c-.09-.09-.21-.14-.34-.14h-15.54c-.13,0-.25.05-.34.14l-3,3h-8.24c-.13,0-.25.05-.35.14l-5.06,5.06h-28.57c.13.32.25.65.37.98h28.4c.13,0,.25-.05.35-.14"/>
          <path class="cls-33" d="M463.13,282.35l6.67-6.67h2.37c.23,1.01,1.14,1.76,2.18,1.76,1.24,0,2.24-1.01,2.24-2.24s-1.01-2.24-2.24-2.24c-1.04,0-1.95.74-2.18,1.76h-2.57c-.13,0-.25.05-.35.14l-6.67,6.67h-29.76c.13.33.27.64.4.98h29.56c.13,0,.25-.05.34-.14"/>
          <path class="cls-33" d="M461.83,278.63l7.29-7.29h9.38l3.71,3.71c.09.09.22.14.34.14h13.5l5.11,5.11c.09.09.22.14.34.14h6.75l2.95,2.95c-.23.36-.36.77-.36,1.2,0,1.24,1.01,2.24,2.24,2.24s2.24-1.01,2.24-2.24-1.01-2.24-2.24-2.24c-.42,0-.83.12-1.2.35l-3.1-3.09c-.09-.09-.22-.14-.34-.14h-6.75l-5.11-5.11c-.09-.09-.21-.14-.34-.14h-13.5l-3.71-3.71c-.09-.09-.22-.14-.35-.14h-9.79c-.13,0-.25.05-.34.14l-7.29,7.29h-29.99c.09.21.17.4.26.61.05.12.1.24.15.37h29.78c.13,0,.25-.05.34-.14"/>
          <path class="cls-33" d="M457.52,275.36l7.7-7.7h14.5l3.99,3.99c.09.09.22.14.35.14h13.11l4.41,4.41c.09.09.22.14.35.14h7.24c.23,1.01,1.14,1.76,2.18,1.76,1.23,0,2.24-1.01,2.24-2.24s-1.01-2.24-2.24-2.24c-1.04,0-1.96.74-2.18,1.76h-7.05l-4.41-4.41c-.09-.09-.22-.14-.35-.14h-13.11l-3.99-3.99c-.09-.09-.21-.14-.34-.14h-14.91c-.13,0-.25.05-.35.14l-7.7,7.7h-27.08s.02.04.02.06c.13.3.26.61.39.92h26.86c.13,0,.25-.05.34-.14"/>
          <path class="cls-33" d="M527.79,250.25v33.3l-2.65,2.39c-.43-.47-1.02-.73-1.65-.73-1.24,0-2.24,1.01-2.24,2.24s1,2.24,2.24,2.24,2.24-1.01,2.24-2.24c0-.21-.03-.42-.1-.64l2.97-2.68c.1-.09.16-.22.16-.36v-33.72c0-.13-.05-.25-.14-.35l-1.91-2.07c-.29.17-.59.33-.89.49l1.96,2.13Z"/>
          <path class="cls-33" d="M452.22,262.3l11.36-11.36h23.92c-.48-.31-.95-.65-1.43-.98h-22.69c-.13,0-.25.05-.35.14l-11.36,11.36h-26.52c.11.22.21.43.32.65.05.11.1.22.16.33h26.25c.13,0,.25-.05.34-.14"/>
          <path class="cls-33" d="M530.96,249.2v48.41c0,.13.05.25.14.34l3.03,3.03c-.23.36-.36.77-.36,1.2,0,1.24,1.01,2.24,2.24,2.24s2.24-1.01,2.24-2.24-1.01-2.24-2.24-2.24c-.42,0-.83.12-1.2.36l-2.89-2.88v-48.41c0-.13-.05-.25-.14-.34l-2.72-2.74c-.29.17-.58.34-.87.51l2.75,2.77Z"/>
          <path class="cls-33" d="M450.03,258.88l11.09-11.09h21.98c-.42-.32-.84-.65-1.27-.98h-20.91c-.13,0-.25.05-.34.14l-11.1,11.1h-26c.15.3.29.59.44.89.01.03.03.05.04.08h25.72c.13,0,.25-.05.35-.14"/>
          <path class="cls-33" d="M423.49,258.05h0c.15.3.29.59.44.89-.15-.31-.29-.59-.44-.89"/>
          <path class="cls-33" d="M537.21,282.27c0,.13.05.25.14.34l4.47,4.47c.09.09.22.14.34.14h9.32l3.48,3.48v6.3l-8.86,8.86c-.09.09-.14.22-.14.35v5.04c0,.13.05.25.14.35l1.71,1.71c.09.09.22.14.35.14h7.09l4.79,4.79c.09.09.22.14.34.14h11.35c.13,0,.26-.05.35-.14l4.61-4.61c.38.28.83.42,1.29.42,1.24,0,2.24-1,2.24-2.24s-1.01-2.24-2.24-2.24-2.24,1.01-2.24,2.24c0,.39.1.76.29,1.1l-4.5,4.5h-10.95l-4.79-4.79c-.09-.09-.22-.14-.35-.14h-7.09l-1.42-1.42v-4.64l8.86-8.86c.09-.09.14-.21.14-.35v-6.7c0-.13-.05-.25-.14-.34l-3.76-3.76c-.09-.09-.21-.14-.34-.14h-9.32l-4.19-4.19v-36.95c0-.13-.05-.25-.12-.32l-2.31-3.42c-.27.19-.54.37-.81.56l2.26,3.36v36.96Z"/>
          <path class="cls-33" d="M552.43,273.15c-.42-.38-.95-.6-1.51-.6-1.24,0-2.24,1.01-2.24,2.24s1.01,2.24,2.24,2.24,2.24-1.01,2.24-2.24c0-.28-.05-.56-.17-.83l.75-.75c.09-.09.14-.21.14-.34v-44.51s0,0,0,0c-.33.2-.65.41-.97.62v43.7l-.48.48Z"/>
          <path class="cls-33" d="M558.09,242.73l6.2,6.2v9.62c-1.01.23-1.75,1.14-1.75,2.18,0,1.24,1.01,2.24,2.24,2.24s2.24-1.01,2.24-2.24c0-1.04-.74-1.95-1.76-2.18v-9.82c0-.13-.05-.25-.14-.35l-6.2-6.2v-16.75c-.33.18-.65.37-.97.56v16.39c0,.13.05.25.14.34"/>
          <path class="cls-33" d="M590.38,266.5l-10.66,10.66h-5.8c-.13,0-.26.05-.35.14l-5.38,5.38c-.09.09-.14.22-.14.34v16.91l-1.75,1.75c-.41-.38-.96-.6-1.52-.6-1.24,0-2.24,1.01-2.24,2.24s1,2.24,2.24,2.24,2.25-1.01,2.25-2.24c0-.28-.06-.56-.16-.83l2.02-2.01c.09-.09.14-.22.14-.34v-16.91l5.09-5.1h5.81c.13,0,.25-.05.34-.14l10.94-10.94c.09-.09.14-.22.14-.35v-14.19c0-.13-.05-.25-.14-.35l-28.67-28.67c-.31.14-.62.3-.93.45l28.77,28.77v13.79Z"/>
          <path class="cls-33" d="M600.08,256.09v25.91l-3.06,3.06c-.09.09-.14.21-.14.35v21.34l-2.16,2.16c-.41-.37-.94-.58-1.49-.58-1.24,0-2.24,1-2.24,2.24s1.01,2.24,2.24,2.24,2.24-1.01,2.24-2.24c0-.29-.06-.58-.18-.86l2.42-2.42c.09-.09.14-.22.14-.35v-21.34l3.06-3.06c.09-.09.14-.22.14-.35v-25.91l13.15-13.15c-.27-.2-.53-.39-.8-.58l-13.19,13.19c-.09.09-.14.21-.14.34"/>
          <path class="cls-33" d="M616.97,246.63v31.35l-10.31,10.31c-.09.09-.14.22-.14.35v3.91c-1.01.23-1.76,1.14-1.76,2.18,0,1.24,1.01,2.24,2.24,2.24s2.24-1.01,2.24-2.24c0-1.04-.74-1.95-1.76-2.18v-3.71l10.31-10.31c.09-.09.14-.21.14-.34v-31.35l.55-.55c-.26-.2-.53-.39-.8-.58l-.59.59c-.09.09-.14.21-.14.34"/>
          <path class="cls-33" d="M603.82,329.16c-1.04,0-1.95.74-2.18,1.76h-10.43c-.13,0-.25.05-.35.14l-6.33,6.33h-41.06c-.13,0-.25.05-.34.14l-2.27,2.27c-.4-.32-.89-.49-1.39-.49-1.24,0-2.24,1.01-2.24,2.24s1.01,2.24,2.24,2.24,2.24-1.01,2.24-2.24c0-.34-.08-.67-.24-.98l2.2-2.2h41.06c.13,0,.25-.05.35-.14l6.33-6.33h10.23c.13.58.49,1.04.96,1.36,1.13-.77,2.27-1.54,3.36-2.32-.23-1-1.08-1.76-2.15-1.76"/>
          <path class="cls-33" d="M470.39,329.38c1.24,0,2.24-1.01,2.24-2.24s-1.01-2.24-2.24-2.24c-1.06,0-1.95.73-2.18,1.75h-22.21c.05.33.09.65.14.98h22.08c.22,1.01,1.14,1.76,2.18,1.76"/>
          <path class="cls-33" d="M470.39,306.19c-1.24,0-2.24,1.01-2.24,2.24s1.01,2.24,2.24,2.24,2.24-1.01,2.24-2.24-1.01-2.24-2.24-2.24"/>
          <path class="cls-33" d="M442.28,314.8h9.08l6.99,6.99h22.92c.13,0,.25.05.34.14l5.94,5.93h1.55c.23-1.01,1.14-1.75,2.18-1.75,1.24,0,2.24,1.01,2.24,2.24s-1.01,2.24-2.24,2.24c-1.04,0-1.96-.74-2.18-1.76h-1.75c-.13,0-.25-.05-.35-.14l-5.93-5.93h-22.92c-.13,0-.25-.05-.35-.14l-6.9-6.99h-7.25l-1.37-.83Z"/>
          <path class="cls-33" d="M481.22,302.34c-.23.36-.35.77-.35,1.2,0,1.24,1.01,2.24,2.24,2.24s2.24-1.01,2.24-2.24-1.01-2.24-2.24-2.24c-.42,0-.84.12-1.2.36l-2.14-2.14c-.09-.09-.22-.14-.35-.14h-40.32c.1.32.19.65.28.98h39.83l2,2Z"/>
          <path class="cls-33" d="M446.1,221.03h-27.33c-.24.22-.57.54-.94.98h30.26c-.67-.35-1.33-.67-1.99-.98"/>
          <path class="cls-33" d="M619.03,284.38c0,1.24,1.01,2.24,2.24,2.24s2.24-1.01,2.24-2.24c0-1.04-.74-1.95-1.76-2.18v-33.51c-.33-.24-.65-.48-.98-.72v34.23c-1.01.23-1.76,1.14-1.76,2.18"/>
          <path class="cls-33" d="M594.09,267.96l-12.74,12.74h-4.84c-.13,0-.26.05-.35.14l-4.94,4.94c-.09.09-.14.22-.14.34v19.37l-4.73,4.73c-.42-.42-.98-.65-1.57-.65-1.24,0-2.24,1.01-2.24,2.24s1.01,2.24,2.24,2.24,2.24-1.01,2.24-2.24c0-.26-.04-.51-.13-.75l5.02-5.02c.09-.09.14-.22.14-.34v-19.37l4.65-4.65h4.84c.13,0,.25-.05.35-.14l13.02-13.02c.09-.09.14-.22.14-.35v-25.57c0-.13-.05-.25-.14-.34l-22.54-22.54c-.37.08-.74.17-1.11.27l22.82,22.81v25.16Z"/>
          <path class="cls-33" d="M622.82,292.79c-.42-.4-.97-.63-1.54-.63-1.24,0-2.24,1.01-2.24,2.24s1.01,2.24,2.24,2.24,2.24-1.01,2.24-2.24c0-.27-.05-.53-.15-.79l2.36-2.36c.09-.09.14-.22.14-.35v-39.22c-.33-.24-.65-.48-.98-.71v39.74l-2.08,2.08Z"/>
          <path class="cls-33" d="M626.21,297.14c0,1.24,1.01,2.24,2.24,2.24s2.24-1.01,2.24-2.24c0-1.04-.74-1.95-1.76-2.18v-41.01c-.32-.24-.65-.48-.98-.71v41.73c-1.01.23-1.76,1.14-1.76,2.18"/>
          <path class="cls-33" d="M617.1,317.64c-.36-.23-.77-.35-1.2-.35-1.24,0-2.24,1.01-2.24,2.24s1.01,2.24,2.24,2.24,2.24-1.01,2.24-2.24c0-.43-.12-.84-.35-1.2l15.89-15.88c.09-.09.14-.22.14-.35v-46.27c-.33-.24-.65-.48-.98-.71v46.79l-15.74,15.74Z"/>
          <path class="cls-33" d="M540.64,279.28l4.7,4.7c.09.09.21.14.34.14h8.63c.4.27,2.01,1.92,3.7,3.79v12.84l-4.99,4.99c-.4-.32-.88-.49-1.38-.49-1.24,0-2.24,1.01-2.24,2.24s1.01,2.24,2.24,2.24,2.24-1.01,2.24-2.24c0-.34-.08-.68-.24-1l5.2-5.2c.09-.09.14-.22.14-.35v-13.23c0-.12-.04-.23-.12-.33-3.83-4.25-4.22-4.25-4.45-4.25h-8.53l-4.42-4.42v-41.93c-.13.1-.27.2-.4.29-.19.13-.38.27-.57.41v41.43c0,.13.05.25.14.34"/>
          <path class="cls-33" d="M454.3,240.77c1.24,0,2.24-1.01,2.24-2.24s-1.01-2.24-2.24-2.24c-.99,0-1.82.65-2.12,1.54h-37.47c.07.35.13.68.22,1.04h37.17c.16,1.08,1.09,1.91,2.21,1.91"/>
          <path class="cls-33" d="M543.08,276.43l3.36,3.36c.09.09.21.14.34.14h9.99l4.86,4.86v5.52c0,.13.05.25.14.35l1.11,1.11c-.23.36-.35.77-.35,1.2,0,1.24,1.01,2.24,2.24,2.24s2.24-1.01,2.24-2.24-1.01-2.24-2.24-2.24c-.43,0-.84.12-1.2.35l-.97-.97v-5.52c0-.13-.05-.25-.14-.35l-5.15-5.15c-.09-.09-.22-.14-.35-.14h-9.99l-3.07-3.07v-40.83c-.33.23-.65.46-.98.7v40.34c0,.13.05.25.14.34"/>
          <path class="cls-33" d="M443.86,252.94c1.24,0,2.24-1.01,2.24-2.24s-1.01-2.24-2.24-2.24c-1.04,0-1.95.74-2.18,1.76h-22.07c.11.21.2.41.31.63.06.12.11.23.17.35h21.59c.23,1.01,1.14,1.76,2.18,1.76"/>
          <path class="cls-33" d="M419.92,250.83c.06.12.11.23.17.35-.06-.12-.11-.23-.17-.35"/>
          <path class="cls-33" d="M419.61,250.21h0c.1.21.2.41.31.63-.1-.21-.2-.42-.31-.63"/>
          <path class="cls-33" d="M523.5,309.57c-1.24,0-2.24,1.01-2.24,2.24s1.01,2.24,2.24,2.24,2.24-1.01,2.24-2.24-1.01-2.24-2.24-2.24"/>
          <path class="cls-33" d="M513.05,341.79c1.01-.23,1.76-1.14,1.76-2.18,0-1.24-1.01-2.24-2.24-2.24s-2.24,1.01-2.24,2.24c0,1.04.74,1.95,1.76,2.18v8.79c0,.13.05.25.14.34l5.66,5.66c.09.09.21.14.34.14h27.07c.23,1.01,1.14,1.76,2.18,1.76,1.24,0,2.24-1.01,2.24-2.24s-1.01-2.24-2.24-2.24c-1.04,0-1.95.74-2.18,1.75h-26.87l-5.37-5.37v-8.59Z"/>
          <path class="cls-33" d="M474.35,351.2c1.24,0,2.24-1.01,2.24-2.24s-1.01-2.24-2.24-2.24c-1.04,0-1.95.74-2.18,1.76h-23.49c.02.32.04.65.06.98h23.43c.23,1.01,1.14,1.76,2.18,1.76"/>
          <path class="cls-33" d="M484.74,346.71c-1.24,0-2.24,1.01-2.24,2.24s1.01,2.24,2.24,2.24,2.24-1.01,2.24-2.24-1.01-2.24-2.24-2.24"/>
          <path class="cls-33" d="M509.68,358.21c1.01-.23,1.76-1.14,1.76-2.18,0-1.24-1.01-2.24-2.25-2.24s-2.24,1.01-2.24,2.24c0,1.04.74,1.95,1.76,2.18v8.79c0,.13.05.25.14.34l1.14,1.14c.42-.04.86-.06,1.28-.1l-1.58-1.58v-8.59Z"/>
          <path class="cls-33" d="M613.89,246.02v20.86l-10.96,10.96v24.89l4.29,4.29c-.13.28-.2.59-.2.92,0,1.24,1.01,2.24,2.24,2.24s2.24-1.01,2.24-2.24-1.01-2.24-2.24-2.24c-.53,0-1.01.19-1.4.5l-3.9-3.9v-24.03l10.96-10.96v-20.86l1.6-1.6c-.28-.21-.57-.41-.85-.62l-1.64,1.64-.15.15Z"/>
          <path class="cls-33" d="M504.34,263.44c-.43,0-.83.13-1.17.34l-5.29-5.29h-31.22c-.23-.99-1.12-1.72-2.18-1.72-1.24,0-2.24,1.01-2.24,2.24s1.01,2.24,2.24,2.24c1.06,0,1.94-.74,2.18-1.73h30.79l4.99,4.99c-.21.34-.34.74-.34,1.17,0,1.24,1.01,2.24,2.24,2.24s2.24-1.01,2.24-2.24-1.01-2.24-2.24-2.24"/>
          <path class="cls-33" d="M592.92,286.41c-1.24,0-2.24,1.01-2.24,2.24,0,.44.13.84.35,1.18l-4.27,4.27c-.35-.21-.75-.34-1.19-.34-1.24,0-2.24,1.01-2.24,2.24s1.01,2.24,2.24,2.24,2.24-1.01,2.24-2.24c0-.43-.13-.82-.33-1.16l4.29-4.29c.34.21.73.33,1.16.33,1.24,0,2.24-1.01,2.24-2.24s-1.01-2.24-2.24-2.24"/>
          <path class="cls-33" d="M645.4,291.55c-.23-.99-1.12-1.73-2.18-1.73-1.24,0-2.24,1.01-2.24,2.24s1.01,2.24,2.24,2.24c1.06,0,1.94-.74,2.18-1.72h4.22c.37-.34.74-.71,1.1-1.04h-5.32Z"/>
          <path class="cls-33" d="M667.78,285.15l1.59-1.59c-.27-.2-.56-.41-.85-.62l-2.21,2.21c.51-.03.99-.03,1.46,0"/>
          <path class="cls-33" d="M566.38,348.94c0-1.24-1.01-2.24-2.24-2.24s-2.24,1.01-2.24,2.24,1,2.24,2.24,2.24c.43,0,.83-.13,1.17-.34l2.72,2.73c.35-.14.69-.29,1.03-.44l-3.03-3.02c.21-.34.34-.74.34-1.17"/>
          <path class="cls-33" d="M503.51,363.13v-11.79c.99-.24,1.72-1.12,1.72-2.18,0-1.24-1.01-2.24-2.24-2.24s-2.24,1.01-2.24,2.24c0,1.06.74,1.94,1.72,2.18v10.75h-4.54l-6.86,6.86c.47.02.94.04,1.41.06l5.88-5.89h5.14Z"/>
          <path class="cls-33" d="M643.25,285.28c-.17.31-.27.67-.27,1.05,0,1.24,1.01,2.24,2.24,2.24s2.24-1.01,2.24-2.24-1.01-2.24-2.24-2.24c-.48,0-.92.15-1.29.41l-3.49-3.49v-18.63c-.35-.25-.69-.5-1.04-.76v19.82l3.84,3.84Z"/>
          <path class="cls-33" d="M609.39,316.78l6.94-6.94c.34.21.74.34,1.17.34,1.24,0,2.24-1.01,2.24-2.24s-1.01-2.24-2.24-2.24-2.24,1.01-2.24,2.24c0,.43.13.83.34,1.17l-7.24,7.24v9.12l3.68,3.68c.28-.21.57-.41.85-.62l-3.49-3.49v-8.26Z"/>
          <path class="cls-33" d="M578.5,300.21v-7.84l13.17-13.17c.35.22.76.35,1.2.35,1.24,0,2.24-1.01,2.24-2.24s-1.01-2.24-2.24-2.24-2.24,1.01-2.24,2.24c0,.42.12.81.32,1.15l-13.34,13.34-.15.15v8.27c-.99.23-1.73,1.12-1.73,2.18,0,1.24,1.01,2.24,2.24,2.24s2.24-1.01,2.24-2.24c0-1.06-.74-1.94-1.72-2.18"/>
          <path class="cls-33" d="M598.38,247.5c0,1.24,1.01,2.24,2.24,2.24s2.24-1.01,2.24-2.24c0-1.06-.74-1.94-1.72-2.18v-15.02c-.35-.26-.7-.51-1.04-.76v15.78c-.99.23-1.72,1.12-1.72,2.18"/>
          <path class="cls-33" d="M575.31,249.77l-8.63-8.63c.21-.34.34-.74.34-1.17,0-1.24-1.01-2.24-2.24-2.24s-2.24,1.01-2.24,2.24,1.01,2.24,2.24,2.24c.43,0,.83-.13,1.17-.34l8.33,8.33v18.01l-8.37,8.37c-.33-.2-.71-.32-1.13-.32-1.24,0-2.24,1-2.24,2.24s1.01,2.24,2.24,2.24,2.24-1.01,2.24-2.24c0-.45-.13-.86-.36-1.21l8.65-8.65v-18.87Z"/>
          <path class="cls-33" d="M523,263.05h-9.68l-8.77-8.7c-.45.05-.91.08-1.36.1l9.71,9.63h11.11v-.5c.21-6.54.24-18.74.18-20.58-.34.16-.68.32-1.03.48.03,2.67-.07,16.14-.16,19.56"/>
          <path class="cls-33" d="M456.17,229.72h-41.79c-.05.33-.08.69-.12,1.04h43.27c-.46-.35-.91-.69-1.37-1.04"/>
          <path class="cls-33" d="M533.78,246.62v37.3c0,.13.05.25.14.35l9.05,9.05c.09.09.22.14.34.14h3.05c.23,1.01,1.14,1.76,2.18,1.76,1.24,0,2.24-1.01,2.24-2.24s-1.01-2.24-2.24-2.24c-1.04,0-1.95.74-2.18,1.76h-2.85l-8.77-8.77v-37.27c0-.13-.05-.25-.12-.31l-1.64-2.69c-.27.18-.55.36-.83.54l1.61,2.64Z"/>
          <path class="cls-33" d="M449.65,225.12h-33.84c-.16.33-.31.67-.45,1.04h35.85c-.52-.35-1.04-.7-1.56-1.04"/>
          <path class="cls-33" d="M416.89,244.57c.04.07.07.15.11.22h14.53c.16,1.08,1.09,1.91,2.21,1.91,1.24,0,2.24-1.01,2.24-2.24s-1.01-2.24-2.24-2.24c-.99,0-1.82.65-2.12,1.54h-15.04c.11.28.19.53.31.81"/>
          <path class="cls-33" d="M416.89,244.57c.04.07.07.15.11.22-.03-.07-.07-.15-.11-.22"/>
          <path class="cls-33" d="M560.61,341.24l-7.13,7.13h-30.66c-.24-.99-1.12-1.72-2.18-1.72-1.24,0-2.24,1.01-2.24,2.24s1.01,2.24,2.24,2.24c1.06,0,1.94-.74,2.18-1.73h31.09l7.13-7.13h22.85v4.01c.35-.18.69-.36,1.04-.54v-4.51h-24.32Z"/>
          <path class="cls-33" d="M653.88,284.08c-1.24,0-2.24,1.01-2.24,2.24s1.01,2.24,2.24,2.24,2.25-1.01,2.25-2.24c0-.43-.13-.83-.34-1.17l6.66-6.66c-.28-.2-.56-.41-.85-.62l-6.55,6.55c-.34-.21-.74-.34-1.17-.34"/>
        </g>
        <g>
          <g class="cls-56">
            <g class="cls-54">
              <g class="cls-44">
                <rect class="cls-3" x="415.15" y="139.59" width="247.37" height="305.69" transform="translate(52.51 665.74) rotate(-66)"/>
              </g>
            </g>
          </g>
          <g class="cls-56">
            <g class="cls-45">
              <g class="cls-52">
                <rect class="cls-21" x="219.66" y="195.38" width="291.37" height="286.72" transform="translate(-130.85 383.59) rotate(-48)"/>
              </g>
            </g>
          </g>
          <g class="cls-56">
            <g class="cls-49">
              <g class="cls-55">
                <rect class="cls-26" x="244.43" y="397.87" width="294.51" height="287.59" transform="translate(-218.36 268.41) rotate(-30)"/>
              </g>
            </g>
          </g>
          <g class="cls-56">
            <g class="cls-40">
              <g class="cls-48">
                <rect class="cls-36" x="428.12" y="427.38" width="277.3" height="239.37" transform="translate(-101.36 129.79) rotate(-12)"/>
              </g>
            </g>
          </g>
          <g class="cls-56">
            <g class="cls-42">
              <g class="cls-53">
                <rect class="cls-13" x="495.73" y="315.56" width="277.92" height="199.52" transform="translate(155.31 1003.12) rotate(-84)"/>
              </g>
            </g>
          </g>
        </g>
        <polygon class="cls-8" points="391.22 761.33 356.06 718.3 347.99 718.3 347.99 782.64 359.38 782.64 359.38 739.61 394.54 782.64 402.61 782.64 402.61 718.3 391.22 718.3 391.22 761.33"/>
        <polygon class="cls-8" points="446.37 753.52 466.67 753.52 466.67 742.57 446.37 742.57 446.37 729.26 472.84 729.26 472.84 718.3 434.98 718.3 434.98 782.64 473.72 782.64 473.72 771.68 446.37 771.68 446.37 753.52"/>
        <g>
          <path class="cls-8" d="M529.52,717.42c-18.34,0-32.17,14.21-32.17,33.05s13.83,33.05,32.17,33.05,32.17-14.21,32.17-33.05-13.83-33.05-32.17-33.05M550.29,750.47c0,12.6-8.93,22.09-20.77,22.09s-20.77-9.5-20.77-22.09,8.93-22.09,20.77-22.09,20.77,9.5,20.77,22.09"/>
          <polygon class="cls-8" points="641.68 718.3 618.57 754.86 595.46 718.3 587.29 718.3 587.29 782.64 598.68 782.64 598.68 744.2 614.78 769.4 622.36 769.4 638.46 744.2 638.46 782.64 649.85 782.64 649.85 718.3 641.68 718.3"/>
        </g>
      </g>
    </g>
  </g>
</svg>