<?xml version="1.0" encoding="utf-8"?>
<!-- Generator: Adobe Illustrator 23.0.2, SVG Export Plug-In . SVG Version: 6.00 Build 0)  -->
<svg version="1.1" id="Layer_1" xmlns="http://www.w3.org/2000/svg" xmlns:xlink="http://www.w3.org/1999/xlink" x="0px" y="0px"
	 viewBox="0 0 1000 1000" style="enable-background:new 0 0 1000 1000;" xml:space="preserve">
<style type="text/css">
	.st0{fill:#0F2837;}
	.st1{fill:#EB5A3C;}
	.st2{fill:#6E1946;}
	.st3{fill:#91B9B4;}
	.st4{fill:#B41932;}
	.st5{fill:#FAC39B;}
	.st6{fill:#FF9619;}
</style>
<polygon class="st0" points="138.7,548.3 131.5,541 124.4,548.3 131.5,555.5 "/>
<polygon class="st0" points="121.8,548.3 114.7,541 107.6,548.3 114.7,555.5 "/>
<polygon class="st0" points="258.6,547.7 251.5,540.4 244.4,547.7 251.5,555 "/>
<g>
	<path class="st0" d="M265.3,573.4c-3.1-6.1-7.6-9.2-13.6-9.2c-2.5,0-4.8,0.6-6.9,1.7c-2.2,1.1-4,2.6-5.6,4.6
		c-1.6,2-2.8,4.3-3.7,6.9c-0.9,2.7-1.4,5.5-1.4,8.5c0,5.3,1.4,9.4,4.3,12.4c2.9,3,6.8,4.4,11.9,4.4c2.3,0,4.5-0.3,6.5-1
		c2-0.7,3.8-1.7,5.4-2.9v8.1c0,1.5-2.5,2.7-7.6,3.5c-5.1,0.8-91.6,1.2-101.6,1.2h-2.7c-3.8,0-6.5-0.7-8.2-2.1
		c-1.7-1.4-2.5-3.8-2.4-7.1l0.5-39l-9.1,1.6v7c-9.3,1.9-16.5,5-21.7,9.1c-5.2,4.1-7.8,9.2-7.8,15.1c0,2.5,0.5,4.7,1.5,6.6
		c1,2,2.3,3.6,4,4.9c1.7,1.3,3.7,2.3,5.9,3c2.3,0.7,4.7,1,7.3,1c4.4,0,8.2-0.9,11.4-2.8c1.3,8.7,7.5,13,18.5,13h2.7
		c4.1,0,86.6-0.1,89.7-0.2c3.1-0.1,5.8-0.3,8.2-0.6c2.4-0.3,4.4-0.7,6.2-1.1c1.7-0.4,3.3-1,4.8-1.7c3-1.4,5.1-3.4,6.3-6
		c1.2-2.6,1.8-6.5,1.8-11.6C269.9,588.6,268.4,579.5,265.3,573.4 M257.1,593.1c-1.9,0.5-3.8,0.8-5.8,0.8c-3.2,0-5.7-0.7-7.4-2.2
		c-1.7-1.4-2.6-3.6-2.6-6.4c0-3.2,1-5.9,2.9-8.1c1.9-2.2,4.3-3.3,7.1-3.3c3.1,0,5.4,1.3,7.1,4c1.7,2.7,2.7,7,3.3,13
		C260.5,591.8,259,592.5,257.1,593.1 M121.7,601.5c-1.6,0-3.2-0.1-4.7-0.4c-1.5-0.3-2.8-0.7-4-1.3c-1.2-0.6-2.1-1.3-2.7-2.3
		c-0.7-0.9-1-2.1-1-3.5c0-1.7,0.6-3.2,1.8-4.7c1.2-1.4,2.8-2.7,4.8-3.8c2-1.1,4.4-2,7-2.8c2.6-0.7,5.3-1.3,8.2-1.6l0.2,18.5
		C128.6,600.9,125.4,601.5,121.7,601.5"/>
	<polygon class="st0" points="405.8,559.9 398.7,552.7 391.5,559.9 398.7,567.2 	"/>
	<polygon class="st0" points="422.6,559.9 415.5,552.7 408.3,559.9 415.5,567.2 	"/>
	<polygon class="st0" points="540.2,558.1 533,550.8 525.9,558.1 533,565.3 	"/>
	<polygon class="st0" points="541.4,580.2 548.6,572.9 541.4,565.7 534.3,572.9 	"/>
	<polygon class="st0" points="531.8,572.9 524.6,565.7 517.5,572.9 524.6,580.2 	"/>
	<path class="st0" d="M640.6,549.1l0.3,56.4c0,1.1-0.4,2-1.2,2.8c-0.8,0.8-1.8,1.4-3.1,1.8c-1.3,0.5-2.7,0.8-4.3,1
		c-1.6,0.2-82.1,0.3-83.8,0.3c-9.1,0-13.7-2.4-13.7-7.1c0-0.6,0.2-2.3,0.5-5c0.3-2.7,0.7-5.6,1-8.9l-7.8-0.9c-0.2,1-0.3,2.2-0.5,3.5
		c-0.2,1.3-0.3,2.6-0.6,3.9c-0.2,1.3-0.5,2.6-0.7,3.9c-0.2,1.3-0.4,2.3-0.6,3.2c-0.6,2.7-2.1,4.6-4.5,5.8c-2.4,1.2-85,1.7-90.1,1.7
		h0c-2.3,0-4.5,0-6.6-0.1c-2.1-0.1-4-0.2-5.8-0.3c4-3.8,6-8.4,6-14.1c0-2.8-0.5-5.5-1.4-8c-1-2.5-2.3-4.7-3.9-6.5
		c-1.6-1.8-3.6-3.3-5.8-4.4c-2.2-1.1-4.5-1.6-7-1.6s-4.8,0.5-7,1.6c-2.2,1.1-4.1,2.5-5.8,4.4c-1.7,1.8-3,4-3.9,6.5
		c-1,2.5-1.4,5.2-1.4,8c0,5.7,2,10.4,6,14.1c-1.9,0.2-3.8,0.3-5.9,0.3c-2.1,0.1-83.2,0.1-85.4,0.1c-3.8,0-6.5-0.7-8.1-2.1
		c-1.7-1.4-2.5-3.8-2.5-7.1l0.5-54.7l-9.1,1.6l0.5,56.5c0.2,10.7,6.4,16.1,18.8,16.1c4.3,0,87.5-0.3,91.7-1c4.1-0.7,8.1-1.7,11.7-3
		c3.7,1.3,7.6,2.3,11.7,3c4.2,0.7,8.4,1,12.7,1c4.8,0,88-0.7,91.5-2c3.5-1.3,6-3.2,7.5-5.7c3,5.1,9,7.7,18,7.7h0
		c2.9,0,84.4-0.3,87-0.9c2.6-0.6,4.9-1.5,6.9-2.9c2-1.3,3.7-3.1,4.9-5.3c1.3-2.2,1.9-4.9,1.9-8.1l0.5-57.1L640.6,549.1z
		 M407.1,608.6c-7.1-2.3-10.6-6.1-10.6-11.4c0-1.5,0.3-3,0.8-4.3c0.5-1.3,1.3-2.5,2.2-3.5c1-1,2.1-1.8,3.4-2.3
		c1.3-0.5,2.7-0.8,4.2-0.8c1.5,0,2.8,0.3,4.1,0.8c1.3,0.5,2.4,1.3,3.4,2.3c1,1,1.7,2.2,2.3,3.5c0.5,1.3,0.8,2.7,0.8,4.3
		C417.7,602.5,414.1,606.3,407.1,608.6"/>
	<polygon class="st0" points="664.8,621.7 664.2,549.1 673.3,547.5 672.7,621.7 	"/>
	<path class="st0" d="M746.5,604.5c0,5.5-1.8,9.9-5.3,13.2c-3.5,3.3-8.4,4.9-14.5,4.9c-6.5,0-11.5-1.6-14.9-4.8
		c-3.4-3.2-5.1-7.8-5.1-13.8c0-3.8,0.5-7.3,1.6-10.6c1.1-3.3,2.5-6.3,4.3-8.8c1.8-2.5,3.9-4.5,6.3-6c2.4-1.5,5-2.2,7.7-2.2
		c2.8,0,5.3,0.7,7.8,2.2c2.4,1.5,4.5,3.5,6.3,6c1.8,2.5,3.2,5.5,4.2,8.9C746,596.9,746.5,600.6,746.5,604.5 M718.2,567.2l-7.1-7.3
		l7.1-7.3l7.1,7.3L718.2,567.2z M738.7,605.5c0-2.7-0.3-5.2-0.9-7.4c-0.6-2.3-1.4-4.2-2.5-5.9c-1.1-1.6-2.3-2.9-3.8-3.9
		c-1.5-0.9-3.1-1.4-4.8-1.4c-1.6,0-3.2,0.4-4.7,1.2c-1.5,0.8-2.8,1.9-3.9,3.3c-1.1,1.4-1.9,3-2.6,4.8c-0.6,1.8-1,3.8-1,5.9
		c0,3.3,1,5.8,3.1,7.5c2.1,1.7,5.1,2.6,9,2.6c1.6,0,3.1-0.2,4.6-0.5c1.5-0.3,2.7-0.8,3.8-1.5c1.1-0.6,1.9-1.4,2.6-2.2
		C738.4,607.3,738.7,606.4,738.7,605.5 M735,567.2l-7.1-7.3l7.1-7.3l7.1,7.3L735,567.2z"/>
	<path class="st0" d="M743.3,635.7c4.2-1.5,8-3.3,11.5-5.3c3.5-2,6.6-4.1,9.2-6.3c2.6-2.2,4.6-4.4,6-6.6c1.5-2.2,2.2-4.3,2.2-6.3
		c0-1.2-0.3-2.8-0.8-4.7c-0.5-1.9-1.3-4-2.2-6.3c-1-2.3-2.1-4.6-3.4-7.1c-1.3-2.5-2.7-4.8-4.2-7.1l8.3-4.6c3.2,4.3,5.8,9.1,7.6,14.3
		c1.8,5.2,2.8,10.1,2.8,14.6c0,7.2-2.8,13.8-8.3,19.9c-5.5,6-13.3,10.9-23.4,14.6L743.3,635.7z"/>
	<polygon class="st0" points="796.2,621.7 795.6,549.1 804.7,547.5 804.1,621.7 	"/>
	<path class="st0" d="M810.4,635.7c4.1-1.5,8-3.3,11.5-5.3c3.5-2,6.6-4.1,9.2-6.3c2.6-2.2,4.6-4.4,6-6.6c1.5-2.2,2.2-4.3,2.2-6.3
		c0-1.2-0.3-2.8-0.8-4.7c-0.5-1.9-1.3-4-2.2-6.3c-1-2.3-2.1-4.6-3.4-7.1c-1.3-2.5-2.7-4.8-4.2-7.1l8.3-4.6c3.2,4.3,5.8,9.1,7.6,14.3
		c1.8,5.2,2.8,10.1,2.8,14.6c0,7.2-2.8,13.8-8.3,19.9c-5.5,6-13.3,10.9-23.4,14.6L810.4,635.7z M831.5,572.1l-7.1-7.3l7.1-7.3
		l7.1,7.3L831.5,572.1z"/>
	<path class="st0" d="M862.5,635.3c16.6-2.3,26.1-8.3,28.7-18.1c-1.5,1.2-3.3,2-5.4,2.7c-2,0.6-4.2,0.9-6.5,0.9
		c-5.1,0-9.1-1.8-12.2-5.3c-3.1-3.5-4.6-8.2-4.6-13.9c0-3.2,0.5-6.2,1.4-8.9c0.9-2.7,2.2-5.1,3.8-7.1c1.6-2,3.5-3.6,5.8-4.7
		c2.2-1.1,4.6-1.7,7.2-1.7c6,0,10.7,2.7,14,8.1c3.3,5.4,5,13,5,22.9c0,4.6-0.8,8.9-2.4,12.8c-1.6,3.9-3.8,7.4-6.7,10.4
		c-2.9,3-6.4,5.5-10.4,7.4c-4.1,2-8.6,3.3-13.6,4L862.5,635.3z M880.8,611.5c2.1,0,4.2-0.3,6.3-0.9c2-0.6,3.6-1.4,4.8-2.3
		c-0.3-6.1-1.4-10.8-3.4-14.1c-2-3.3-4.7-5-8.1-5c-3,0-5.4,1.1-7.3,3.3c-1.9,2.2-2.8,5.1-2.8,8.7c0,3.2,0.9,5.7,2.8,7.5
		C874.9,610.6,877.5,611.5,880.8,611.5"/>
	<polygon class="st0" points="104.7,662.7 114.1,662.7 134.7,697.9 155.3,662.7 164.4,662.7 167.6,730.4 158,730.4 155.8,678.4 
		136.7,710.4 131.8,710.4 113,678.8 110.7,730.4 101.6,730.4 	"/>
	<path class="st0" d="M184.2,662.4l7.2,7.2l-7.2,7.3l-7.3-7.3L184.2,662.4z M179.7,683.2h9.1v47.2h-9.1V683.2z"/>
	<path class="st0" d="M201.8,730.4v-42.3v-1.9c0-0.6,0-1.6-0.1-3h8.7l0.3,7.1c0.6-0.8,1.4-1.7,2.2-2.7c0.9-1,2-1.9,3.2-2.7
		c1.3-0.8,2.8-1.5,4.5-2c1.7-0.5,3.7-0.8,5.8-0.8c6.2,0,10.7,1.8,13.7,5.4c3,3.6,4.5,8.5,4.5,14.6v28.3h-9.1v-27.6
		c0-4.4-0.9-7.6-2.8-9.7c-1.9-2.1-4.6-3.1-8-3.1c-2.6,0-4.8,0.5-6.6,1.6c-1.8,1.1-3.2,2.5-4.2,4.2c-1.1,1.7-1.8,3.7-2.3,5.9
		c-0.5,2.2-0.7,4.5-0.7,6.8v21.9H201.8z"/>
	<path class="st0" d="M260.4,662.4l7.2,7.2l-7.2,7.3l-7.3-7.3L260.4,662.4z M255.8,683.2h9.1v47.2h-9.1V683.2z"/>
	<path class="st0" d="M280.2,718.5c1.7,1.7,3.7,3,6.1,4.1c2.4,1,5.1,1.5,8.2,1.5c3,0,5.6-0.5,7.6-1.5c2-1,3-2.5,3-4.6
		c0-1.1-0.2-2-0.7-2.8c-0.5-0.8-1.2-1.5-2.2-2.1c-1-0.6-2.4-1.2-4.2-1.7c-1.7-0.5-3.9-1.1-6.4-1.7c-1.8-0.4-3.6-0.9-5.4-1.6
		c-1.8-0.7-3.4-1.6-4.8-2.7c-1.4-1.1-2.6-2.5-3.5-4.1c-0.9-1.6-1.3-3.5-1.3-5.7c0-2.3,0.5-4.3,1.6-6c1-1.7,2.4-3.2,4.2-4.4
		c1.8-1.2,3.7-2.1,5.9-2.7c2.2-0.6,4.5-0.9,6.8-0.9c4,0,7.4,0.5,10.3,1.6c2.9,1.1,5.4,2.5,7.6,4.4l-5,6.3c-1.4-1.3-3.2-2.4-5.3-3.3
		c-2.1-0.9-4.6-1.3-7.5-1.3c-2.9,0-5.3,0.5-7,1.4c-1.8,0.9-2.6,2.5-2.6,4.7c0,2,1.2,3.5,3.5,4.5c2.3,1,5.4,1.9,9.2,2.8
		c2.2,0.5,4.3,1.2,6.2,1.9c1.9,0.7,3.6,1.6,5.1,2.7c1.5,1.1,2.6,2.5,3.5,4.1c0.8,1.6,1.3,3.6,1.3,5.9c0,2.4-0.5,4.4-1.6,6.2
		c-1.1,1.8-2.5,3.3-4.4,4.5c-1.8,1.2-3.9,2.1-6.3,2.7c-2.4,0.6-4.9,0.9-7.4,0.9c-8.9,0-15.6-2.4-20.1-7.2L280.2,718.5z"/>
	<path class="st0" d="M329.2,690.8h-8.5v-7.6h8.5v-15.4h9.1v15.4h13.8v7.6h-13.8v23.3c0,3.8,0.6,6.4,1.8,7.8c1.2,1.4,2.9,2.1,5,2.1
		c1.8,0,3.2-0.3,4.4-0.8c1.1-0.5,2.3-1.4,3.5-2.4l4.2,5.6c-2,1.9-4,3.3-6.1,4.1s-4.5,1.3-7.4,1.3c-5,0-8.7-1.4-11-4.1
		c-2.4-2.7-3.5-6.9-3.5-12.7V690.8z"/>
	<path class="st0" d="M364.9,730.4v-42.6v-1.6c0-0.6,0-1.6-0.1-2.9h8.7l0.3,7.6c0.5-0.8,1.3-1.7,2.1-2.7c0.9-1,2-1.9,3.2-2.7
		c1.3-0.8,2.7-1.5,4.4-2.1c1.7-0.6,3.6-0.9,5.7-0.9c1,0,2,0.1,2.8,0.2c0.8,0.1,1.6,0.3,2.4,0.6l-2,8.5c-1.2-0.5-2.8-0.7-4.7-0.7
		c-2,0-3.8,0.4-5.4,1.1c-1.7,0.8-3.1,1.8-4.3,3.1c-1.2,1.3-2.2,2.9-2.9,4.6c-0.7,1.8-1.1,3.6-1.1,5.6v24.9H364.9z"/>
	<path class="st0" d="M403.7,742c0.7,0.6,1.5,1.1,2.3,1.6c0.9,0.5,2,0.7,3.3,0.7c1.1,0,2-0.2,2.8-0.7c0.8-0.5,1.5-1.2,2.1-2.2
		c0.6-1,1.3-2.2,1.8-3.5c0.6-1.4,1.2-3,2-4.8l1.2-3l-21.1-46.8h10.5l15.2,35.6l13.4-35.6h9.9l-18.9,46c-0.9,2.2-1.8,4.6-2.7,7.2
		c-0.9,2.6-2.1,5.1-3.4,7.4c-1.4,2.3-3,4.3-5,5.8c-2,1.6-4.4,2.3-7.4,2.3c-2.4,0-4.4-0.3-6-1c-1.6-0.6-3-1.5-4.3-2.6L403.7,742z"/>
	<path class="st0" d="M492.1,731.8c-3.6,0-7-0.7-10.1-2c-3-1.3-5.7-3.1-7.9-5.4c-2.2-2.3-3.9-5-5.2-8c-1.3-3-1.9-6.2-1.9-9.7
		c0-3.5,0.6-6.7,1.9-9.7c1.2-3,3-5.7,5.2-8c2.2-2.3,4.8-4.1,7.9-5.4c3-1.3,6.4-2,10.1-2c3.6,0,6.9,0.7,10,2c3,1.3,5.7,3.1,7.9,5.4
		c2.2,2.3,4,5,5.2,8c1.3,3,1.9,6.2,1.9,9.7c0,3.5-0.6,6.7-1.9,9.7c-1.3,3-3,5.7-5.2,8c-2.2,2.3-4.9,4.1-7.9,5.4
		C499.1,731.2,495.7,731.8,492.1,731.8 M492.1,723.9c2.4,0,4.6-0.5,6.6-1.5c2-1,3.6-2.3,5-3.9c1.4-1.6,2.4-3.4,3.1-5.5
		c0.7-2.1,1.1-4.2,1.1-6.3c0-2.1-0.4-4.2-1.1-6.3c-0.7-2.1-1.8-3.9-3.1-5.5c-1.4-1.6-3-2.9-5-3.9c-1.9-1-4.1-1.5-6.6-1.5
		c-2.4,0-4.6,0.5-6.6,1.5c-2,1-3.6,2.3-5,3.9c-1.4,1.6-2.4,3.4-3.1,5.5c-0.7,2.1-1.1,4.2-1.1,6.4c0,2.2,0.4,4.3,1.1,6.3
		s1.8,3.9,3.1,5.5c1.4,1.6,3,2.9,5,3.9C487.5,723.4,489.7,723.9,492.1,723.9"/>
	<path class="st0" d="M531,690.8h-8.5v-7.6h8.5v-3.9c0-3.2,0.5-5.9,1.4-8.3c0.9-2.3,2.1-4.2,3.6-5.7c1.5-1.5,3.3-2.6,5.2-3.3
		c2-0.7,4-1.1,6.2-1.1c2.5,0,5,0.4,7.4,1.2c2.4,0.8,4.6,2.1,6.6,4l-4.6,5.9c-2.5-2.1-5.2-3.1-8-3.1c-2.6,0-4.8,0.9-6.3,2.5
		c-1.6,1.7-2.4,4.6-2.4,8.7v3h13.5v7.6h-13.5v39.6H531V690.8z"/>
	<path class="st0" d="M641.6,718.5c-0.7,1.2-1.9,2.6-3.5,4.2c-1.6,1.6-3.5,3-5.7,4.4c-2.2,1.4-4.8,2.6-7.7,3.5
		c-2.9,0.9-6.1,1.4-9.6,1.4c-5,0-9.6-0.9-13.7-2.6c-4.1-1.8-7.7-4.2-10.7-7.4c-3-3.1-5.3-6.9-7-11.2c-1.7-4.3-2.5-9-2.5-14.1
		c0-4.9,0.8-9.6,2.5-13.9c1.7-4.3,4-8.1,7-11.4c3-3.3,6.6-5.8,10.7-7.7c4.2-1.9,8.8-2.8,13.9-2.8c3.6,0,6.8,0.4,9.7,1.3
		c2.8,0.9,5.3,2,7.5,3.3c2.1,1.3,4,2.8,5.5,4.3c1.5,1.6,2.8,3,3.7,4.5l-6.9,5.9c-0.8-1.1-1.8-2.3-2.9-3.6c-1.1-1.3-2.5-2.4-4-3.4
		c-1.6-1-3.4-1.9-5.4-2.5c-2-0.7-4.4-1-7-1c-3.7,0-7.1,0.7-10,2.1c-2.9,1.4-5.4,3.3-7.5,5.8c-2.1,2.4-3.6,5.3-4.7,8.5
		c-1.1,3.3-1.6,6.7-1.6,10.4c0,3.7,0.6,7.1,1.7,10.3c1.1,3.2,2.7,6,4.7,8.4c2,2.4,4.5,4.2,7.4,5.6c2.9,1.3,6.2,2,9.8,2
		c3,0,5.7-0.4,7.9-1.2c2.2-0.8,4.1-1.7,5.6-2.8c1.5-1.1,2.8-2.2,3.8-3.3c1-1.1,1.8-2,2.5-2.8L641.6,718.5z"/>
	<path class="st0" d="M651.1,683.2h9.1v27.7c0,4.5,0.9,7.7,2.7,9.7c1.8,2,4.5,3,7.9,3c2.6,0,4.8-0.5,6.6-1.6
		c1.7-1.1,3.1-2.5,4.2-4.2c1.1-1.7,1.8-3.7,2.3-5.9c0.4-2.2,0.7-4.5,0.7-6.8v-21.9h9.1v42.4v1.9c0,1,0,2,0.1,2.9h-8.7l-0.3-7
		c-0.6,0.8-1.4,1.7-2.2,2.6c-0.9,0.9-2,1.8-3.3,2.6c-1.3,0.8-2.8,1.4-4.5,2c-1.7,0.5-3.6,0.8-5.8,0.8c-6.2,0-10.7-1.8-13.6-5.3
		c-2.9-3.5-4.4-8.4-4.4-14.6V683.2z"/>
	<rect x="706.4" y="662.7" class="st0" width="9.1" height="67.7"/>
	<path class="st0" d="M732.1,690.8h-8.5v-7.6h8.5v-15.4h9.1v15.4H755v7.6h-13.8v23.3c0,3.8,0.6,6.4,1.8,7.8c1.2,1.4,2.9,2.1,5,2.1
		c1.8,0,3.2-0.3,4.4-0.8c1.1-0.5,2.3-1.4,3.5-2.4l4.2,5.6c-2,1.9-4,3.3-6,4.1c-2.1,0.8-4.5,1.3-7.4,1.3c-5,0-8.7-1.4-11-4.1
		c-2.4-2.7-3.5-6.9-3.5-12.7V690.8z"/>
	<path class="st0" d="M765.7,683.2h9.1v27.7c0,4.5,0.9,7.7,2.7,9.7c1.8,2,4.5,3,7.9,3c2.6,0,4.8-0.5,6.6-1.6
		c1.7-1.1,3.1-2.5,4.2-4.2c1.1-1.7,1.8-3.7,2.3-5.9c0.4-2.2,0.7-4.5,0.7-6.8v-21.9h9.1v42.4v1.9c0,1,0,2,0.1,2.9h-8.7l-0.3-7
		c-0.6,0.8-1.4,1.7-2.2,2.6c-0.9,0.9-2,1.8-3.3,2.6c-1.3,0.8-2.8,1.4-4.5,2c-1.7,0.5-3.6,0.8-5.8,0.8c-6.2,0-10.7-1.8-13.6-5.3
		c-2.9-3.5-4.4-8.4-4.4-14.6V683.2z"/>
	<path class="st0" d="M821,730.4v-42.6v-1.6c0-0.6,0-1.6-0.1-2.9h8.7l0.3,7.6c0.5-0.8,1.3-1.7,2.1-2.7c0.9-1,2-1.9,3.2-2.7
		c1.3-0.8,2.7-1.5,4.4-2.1c1.7-0.6,3.6-0.9,5.7-0.9c1,0,2,0.1,2.8,0.2c0.8,0.1,1.6,0.3,2.4,0.6l-2,8.5c-1.2-0.5-2.8-0.7-4.7-0.7
		c-2,0-3.8,0.4-5.4,1.1c-1.7,0.8-3.1,1.8-4.3,3.1c-1.2,1.3-2.2,2.9-2.9,4.6c-0.7,1.8-1.1,3.6-1.1,5.6v24.9H821z"/>
	<path class="st0" d="M898.5,723.5c-0.5,0.6-1.4,1.4-2.4,2.3c-1.1,0.9-2.5,1.9-4.2,2.7c-1.7,0.9-3.8,1.6-6.1,2.3c-2.3,0.6-5,1-8,1
		c-3.7,0-7-0.6-10.1-1.8c-3.1-1.2-5.7-2.9-7.8-5.2c-2.2-2.2-3.8-4.9-5-8c-1.2-3.1-1.8-6.6-1.8-10.4c0-3.5,0.6-6.7,1.7-9.7
		c1.1-3,2.8-5.6,4.9-7.8c2.1-2.2,4.6-3.9,7.5-5.2c2.9-1.3,6-1.9,9.5-1.9c4.1,0,7.5,0.8,10.5,2.3c2.9,1.6,5.3,3.6,7.2,6.2
		c1.9,2.6,3.2,5.5,4.1,8.8c0.9,3.3,1.3,6.8,1.3,10.4h-37.3c0.1,2.1,0.5,4,1.4,5.8c0.9,1.8,2,3.3,3.4,4.6c1.4,1.3,3,2.3,4.9,3
		c1.8,0.7,3.8,1.1,5.8,1.1c4,0,7.3-0.7,9.8-2c2.6-1.4,4.4-2.7,5.6-4L898.5,723.5z M890.3,702.7c-0.3-3.7-1.6-6.8-3.9-9.3
		c-2.3-2.6-5.5-3.9-9.7-3.9c-2.2,0-4.1,0.4-5.8,1.1c-1.7,0.7-3.2,1.7-4.4,2.9c-1.2,1.2-2.2,2.6-2.8,4.2c-0.7,1.6-1.1,3.2-1.1,4.9
		H890.3z"/>
	<path class="st1" d="M733.8,280.2c-5,67.6,1.1,134.9-0.5,203.1c-0.3,12.5,1.3,25.9,0.3,38.5c-0.1,1.5-0.5,2.6-2.8,2.7
		c-3.1-0.3-6.2-0.6-9.3,0c-1-9-0.6-16-1.4-23.8c-1.8-17-0.8-30.8-0.9-49.3c-0.2-31.7-2.9-63.9-0.6-95.5c0.8-11.3,0.9-29.7,0.3-41
		c-0.6-11.5-1.2-20-0.5-34.6C723.9,279.6,729,279.6,733.8,280.2"/>
	<path class="st1" d="M172.7,261.1c5.5,0.5,8,2.2,8.4,8.4c0.6,9.3-0.7,14.3,0.3,23.4c3.3,30.2-3.8,60.9-0.6,91.2
		c1.7,16,0.1,30.4,0.6,46.4c0.8,23.9-0.2,51-0.8,79h-74.5c-2.6-3.7-2.1-22.3-1.3-27.2c0.7-4.2,0.7-8.6,0.6-12.9
		c-0.2-17.6,0.9-33.3,0.8-50.9c-0.1-10.3-0.2-20.7-1.9-30.9c-1.5-9,0.8-24.8-0.5-33.9c-1.7-11.4-2.6-79.2-2-92.2
		C101.8,261.5,163.9,260.3,172.7,261.1"/>
	<path class="st2" d="M309.2,277c-4.3-1.6-3.6,3.5-3.6,6.1c0,2.5,0,4-0.1,7.3c-0.1,6.5,0.5,24.4,0.5,30.8
		c0.1,10.8,0.8,20.3,0.6,28.8c-0.4,16-0.4,32.1,0.2,48.2c1.6,39.9-0.3,80,0.9,119.7c0.1,3.4,2.3,4.4,5.4,5.2l4.6,0.8
		c-0.2-34,2.5-69.7,0.4-103.6c-0.9-14.2-0.4-28.3-0.4-42.5c0-13.6-0.1-27.2,0.1-40.8c0.2-8.3,0.1-16.5-0.2-24.8
		c-0.3-10.2,0.2-29.9-2.5-32.6C313.7,277.9,312,278,309.2,277"/>
	<path class="st3" d="M235.7,495.9c4.5-0.1,3.6-3.5,3.6-6.2c0-2.5,0.6-4,0.6-7.3c0.1-6.6-0.3-24.6-0.4-31.1
		c-0.1-10.9-0.7-20.4-0.5-29c0.4-16.2,0.6-32.4,0-48.6c-1.4-40.3,0.7-80.7-0.3-120.7c-0.1-3.5-2.4-3.6-6.3-3.8l-5.4,0.2
		c0,34.3,0.4,70.8,0.8,107.3c0.2,14.3,0,25.4,0,39.7c0,13.7,0.3,24.7,0.2,38.4c0,7.3-0.3,15.3-0.4,25.4c-0.1,10.3-0.6,29.8,1.8,32.9
		C231.2,495.3,232.9,495.9,235.7,495.9"/>
	<path class="st1" d="M333.6,516.9c-4.1-0.5-4.7-2.4-4.6-7.1c0.4-14-0.5-44-2-62.3c-1.3-16.6-1-33.6,1.1-50
		c1.4-11.4-0.6-19.8-0.6-33.9c-0.1-18.5,1-33,1-45.5c-0.1-7.7-0.3-15.4-0.7-23.1c-0.3-7.2-0.2-23.1-0.2-24.8
		c1.2-0.4,5.5-0.3,6.6-0.2c4,0.4,5.9,0.9,8.7,2.3c1.7,7.3,1.2,22.8,1.2,31.5c0,5.1-0.3,26.1,0,31.1c0.6,8.4,0.3,16.9,0.3,25.3
		c0.1,10.7,0.7,21.5,0.7,32.2c0,13.6-1.1,27.2-1.5,40.8c-0.6,25.1,2.6,57.5,2.3,78.5c-0.1,4.2,0.4,6.4-4,6.4
		C342,517.9,337.8,517.4,333.6,516.9"/>
	<path class="st4" d="M710.8,505.4c0.8-10.4-1.4-26.5-1.4-34.9c0-4.9-0.6-25.2-0.3-30.1c0.5-8.1,0.1-16.3,0.1-24.5
		c0-10.4,0.6-20.8,0.5-31.2c-0.1-13.2-1.4-26.3-1.9-39.5c-1-27.4,3.1-63.9,1.4-83.3c-6.9-1.5-15.4-1.9-24.7-1.7
		c-2.3,15.3-1.7,30.6-1.4,49.2c0.2,12.1-0.9,26.1-0.6,44.1c0.2,13.6,3.7,29.9,2.3,41c-2,15.9-2.3,32.3-0.8,48.4
		c2.2,23,1.4,60.7,1.7,61.2L710.8,505.4z"/>
	<path class="st2" d="M783.3,506c1.1-28.4,0.9-45.5,1.4-70c0.3-17.3-2.4-39.2-2.1-57.4c0.6-33.4,1-44.8-1.7-75.9
		c-0.6-7,0.4-20.1,0.1-27.1c-0.2-4.7-0.4-10.7-0.5-15.4c0,0,22.9,4.9,40.7,1.2c28.3-6,75.1,0.2,75.1,0.2c2.8,4.8,3.2,15.8,3.1,18.5
		c-0.5,20.5-0.9,13.3-0.2,33.7c0.7,19.3-2.9,36.4-2.9,63.6c0,17.9,2.7,29.7,3.3,41.6c0.6,12.3-1.5,22.6-0.7,42
		c0.5,12,0.2,43.5,0.4,46.4c0,0-84.3,0.5-102.3-1.7C787.5,504.5,783.3,506,783.3,506"/>
	<path class="st5" d="M629.1,249.8c0.5,42.4,0.8,89.4,2.9,127.6c0.7,12.8,0.3,28.8,0.8,43.3c0.2,6.5-0.9,19.4-1.4,28
		c-0.4,7-0.2,14-0.1,20.9c0.2,7.4,0.3,22.9-0.3,23.2c-4.3-0.7-8.9-0.7-13.7,0c-1.6-5.7-0.5-11-0.4-16.9c0.9-50.9-2.7-88-1.8-134.8
		c0.3-15.2-0.2-36-1.4-51.1c-1-13.1-0.6-27.9,1-40.9C619.7,249.1,624.5,249.3,629.1,249.8"/>
	<path class="st6" d="M770.6,252.1c1.3,21.9,0.3,36.3,0.7,55.1c0.4,16.5,2.2,30.6,1.2,49.5c-0.9,16.3,0.8,32.7,1.2,49.1
		c0.3,15.9,0.6,31.9,0.8,47.8c0.3,12.3,0.6,23.5,0.6,35.9c0,2.1-0.2,6.5-0.2,8.6c0,0-4.3-0.8-8.6-0.4c-10.7,1-19-0.3-22.1-0.9
		c-2.6-0.6-0.4-43.7-0.3-47.7c0.3-16.2,0.3-32.4,0.3-48.6c-0.1-16.4-1.6-33.8-1.9-50.1c-0.3-16.6,0.6-32.1,0.2-48.6
		c-0.4-16.7-0.9-30.9-1.4-47.6c-0.1-3.4,3.1-5.2,8.5-3.7C756.6,252.3,764.1,250,770.6,252.1"/>
	<path class="st2" d="M209.3,272.6c5,0.7,8.7,5.4,8.8,11c0.1,8,0,15.1-0.2,22.1c-0.2,7.8-0.5,15.4-0.3,23.9
		c0.4,34.6,1.9,67.6,0.4,103.4c-1.3,30.3,1.5,59.9,1.2,87.7c-9.2-0.5-20.2-1.4-29.1-1.8c2.5-51.3,0.9-99.9,0.3-153.3
		c-0.3-30,4.6-53.5,0.4-93.5C197.2,271.4,203.4,271.8,209.3,272.6"/>
	<path class="st0" d="M605.9,386.6c-0.6-18.3-0.5-52.8,0.9-71.2c1.5-20.4-3.5-51.3-14.8-50.7c-9.8-0.5-20.6,0.6-30.5,1.1
		c-7.9,0.4-18,0.4-25.9,1.1c-13.5,1.2-15-0.6-28.6-0.6c-17,0-31.6,1.4-48.6,1.4c-16.4,0-34.7-0.4-51.1-1.7
		c-16.1-1.2-33.2-3.5-49.2-3c-2.3,0.1-3.6,10.4-4.1,23.2c-0.4,12.3-1.2,38.8-0.2,51.5c7.5-9.2,16.9-12.7,26.1-13.6
		c7.4-0.7,16-1.1,24,0.1c0.8,0.1-5.2-5.6-10.2-9.5c-2.8-2.2-5.9-4.5-9.4-5c-4.3-0.6-8.8-0.2-13.2-0.5c3.2-2.8,8.8-9.8,22.5-8
		c7.4,1,19.8,13.9,24.3,10.4c5-3.9,3-19.2,9.6-20.9c5.4-1.4,8.9,19.1,11.5,23.6c6-7.7,15-13.2,24.7-14.3c5.1-0.6,20.7,1.3,22.8,8.7
		c0-0.1-19.9-3.6-32.2,14.2c17.5-6.9,35.2-4.6,50.1,6.8c4.1,3.2,6.8,6.5,9.6,10.3c4,5.4,3.5,7.8,3.4,10.9
		c-6.5-1.3-12.5-12.5-23.7-15.9c-9.4-2.9-19.5-2.3-28.9,0.5c21.3,3.5,50.8,31.8,40.6,55.1c-3.3,7.5-4.2,2.5-5.4-3.8
		c-1.4-7.5-3.5-11.8-7.1-16.7c-3.1-4.3-6.4-8-10.3-11.7c-3.4-3.3-13.9-7.9-18.8-7.6c13.7,3.9,22.6,31.2,23.7,34.1
		c2.9,7.1,2.8,15.2,3,22.7c0.1,4.3,0.5,19.4-5,20.8c0.1,0,0.9-36.5-24.9-57.4c6.7,11.8,7.3,26.3,6.5,39.5
		c-0.4,7.4-1.6,13.4-4.9,20.1c-0.7,1.5-3.4,8.2-4.5,8.4c-3.4,0.8-1.6-20.4-2.1-24.2c-0.6-4.6-9-36-17.8-28.3
		c-4.5,3.9-2.2,21.5-1.6,29.4c0.7,9.6,1.8,23.7,2,33.3c0.4,20,0.9,34.1,3.5,54.2c23-12.4,124-64.1,138.4-21.4
		c0.1,1.4-0.8,0.4-0.8,0.4h0c-9.9-14.8-36.8-7.2-50.3-3c-24,7.4-47,19.1-68.7,31.5c35.7,0.1,90.8,0,131.6,0
		c9.4,0,16.9-7.8,16.6-17.2c-0.2-6.9-0.4-15.2-0.4-24.1c0-10.1,0.5-21,0.8-31.1C609.3,418.6,606.6,406.7,605.9,386.6 M405.4,407.6
		c-1.4,5.2-3.2,14-3.4,16.3c-0.3,2.3-2.1,14.7-2.1,14.7c-0.8-0.5-1.3-1.4-1.7-2.3c-5.1-11.5-4.1-29.7-4.1-29.8
		c1.8-28.6,12-36.3,12-36.2c-4.6-2.6-13.8,8.2-18.7,15c-6.5,9.1-5.4,15.3-6.2,29.5c-3.5-0.7-6.9-6.5-7.1-10.8
		c-1.2-22.3,8.7-42.7,19.4-51.1c1.2-1.1-12.3,1.6-14.7,2.5c-8.8,3.6-15.1,9.9-19.4,18.3c-9.1,17.6-3.3,38.6-4.5,57.9
		c-0.7,11.1,0.9,22.1,0.8,33.2c-0.1,8.4-2.2,10,6.2,10.7c3.3,0.3,6.6,0.8,9.9,1.5c19.8,4.3,35.6,13.4,49.5,27.8
		c2.2-25.7,2.5-49.4,2.5-75.2c0-10.2,1.7-32.1-5.1-40.8C411.8,380.1,407,401.8,405.4,407.6 M357,482.7c-0.5,10,0.2,18,0.3,29.7
		c9.8-0.7,15.7,0.2,25.5,0.8c9.4,0.6,19.4-0.4,28.8,0.8C397.2,498.4,378.8,484.6,357,482.7 M373.1,344.9c3.5-2.4,18-9.7,19.7-9.6
		c-10.4-4-22.9-3-32,2.8c-8.9,5.6-5.9,21.2-7.1,31.2C358.1,360.4,364.7,350.5,373.1,344.9"/>
	<path class="st3" d="M668,269.3c1.3,0.2,2.3,1.3,2.4,2.6c0.7,27.8,1.3,52.8,3.1,81.6c0.7,11.4,1.3,28.2-0.4,41.6
		c-2.2,17.6,2.3,31.9,1.1,49.6c-1.6,23.4,1.8,42.5,0.5,65.9l-29,0.6c-2.4,0.1-4.6-2.2-4.2-7.8c0.3-5.6-0.1-29.6-0.1-47.7
		c0-18.1,2.4-34.8,0.4-55c-1-9.9,1.4-20.5,0.8-30.4c-1-18-1.6-33.8-2-51.8c-0.2-10.7,0-27-0.3-37.5c-0.2-7.3,1.4-12.7,5.4-14.5
		C650.1,264.5,662.8,268.6,668,269.3"/>
	<path class="st6" d="M249.2,482.4c-0.3,6.7-0.4,9.1-0.4,11.6c0,1.7,1.5,2,2.9,2.7c0.9,0.5,8.7,2.1,11.3,2.7
		c2.2,0.5,5.4,0.8,7.6,0.8c7.5-0.1,15,2.5,22.5,1.8c0.2,0,0.5-0.1,0.7-0.2c0.6-0.4,2.7-1.4,3.3-5.6c0.9-6.4-0.9-12,0.1-23.6
		c1-11.6,0.1-43.1,0.2-50.7c0.5-57.4-2.8-58.3-1.3-102.6c0.5-15.6,0.1-20.8-1.6-37.2c-0.4-4.3-2.4-15.3-1.4-22.9
		c0.4-2.8-1.3-5.1-4-5.2c-12.4-0.6-38.5,1.3-38.5,1.3c-1.4,5.8-1.7,11.3-1.3,19c0.2,5.4-0.8,14.3-0.8,19.7c0,6.1-0.4,12.2-0.1,18.3
		c0.7,16.4,1.2,32.8,0.7,49.1c-1.3,41.5,2.4,65.6,0.8,106.3L249.2,482.4z"/>
</g>
</svg>
